<svg width="269" height="48" viewBox="0 0 269 48" fill="none" xmlns="http://www.w3.org/2000/svg">
<path d="M29 18H28.5V30H29C32.3137 30 35 27.3137 35 24C35 20.6863 32.3137 18 29 18Z" fill="#B52127"/>
<path d="M29 18H28.5V30H29C32.3137 30 35 27.3137 35 24C35 20.6863 32.3137 18 29 18Z" fill="url(#paint0_radial_3522_3085)"/>
<path d="M23.5 30H24V18H23.5C20.1863 18 17.5 20.6863 17.5 24C17.5 27.3137 20.1863 30 23.5 30Z" fill="#B52127"/>
<path d="M23.5 30H24V18H23.5C20.1863 18 17.5 20.6863 17.5 24C17.5 27.3137 20.1863 30 23.5 30Z" fill="url(#paint1_radial_3522_3085)"/>
<path fill-rule="evenodd" clip-rule="evenodd" d="M7.19894 12.0061C6.00001 14.3591 6.00001 17.4394 6.00001 23.6V24.4C6.00001 30.5606 6.00001 33.6409 7.19894 35.9939C8.25355 38.0637 9.93633 39.7465 12.0061 40.8011C14.3591 42 17.4394 42 23.6 42H42.4C48.5606 42 51.6409 42 53.9939 40.8011C56.0637 39.7465 57.7465 38.0637 58.8011 35.9939C60 33.6409 60 30.5606 60 24.4V23.6C60 17.4394 60 14.3591 58.8011 12.0061C57.7465 9.93633 56.0637 8.25354 53.9939 7.19893C51.6409 6 48.5606 6 42.4 6H23.6C17.4394 6 14.3591 6 12.0061 7.19893C9.93633 8.25354 8.25355 9.93633 7.19894 12.0061ZM13.5 24C13.5 29.5229 17.9772 34 23.5 34H29C34.5229 34 39 29.5229 39 24C39 18.4772 34.5229 14 29 14H23.5C17.9772 14 13.5 18.4772 13.5 24ZM52.9577 15H46L41 21V26L46 33H53.0401L46 23.5L52.9577 15Z" fill="#B52127"/>
<path fill-rule="evenodd" clip-rule="evenodd" d="M7.19894 12.0061C6.00001 14.3591 6.00001 17.4394 6.00001 23.6V24.4C6.00001 30.5606 6.00001 33.6409 7.19894 35.9939C8.25355 38.0637 9.93633 39.7465 12.0061 40.8011C14.3591 42 17.4394 42 23.6 42H42.4C48.5606 42 51.6409 42 53.9939 40.8011C56.0637 39.7465 57.7465 38.0637 58.8011 35.9939C60 33.6409 60 30.5606 60 24.4V23.6C60 17.4394 60 14.3591 58.8011 12.0061C57.7465 9.93633 56.0637 8.25354 53.9939 7.19893C51.6409 6 48.5606 6 42.4 6H23.6C17.4394 6 14.3591 6 12.0061 7.19893C9.93633 8.25354 8.25355 9.93633 7.19894 12.0061ZM13.5 24C13.5 29.5229 17.9772 34 23.5 34H29C34.5229 34 39 29.5229 39 24C39 18.4772 34.5229 14 29 14H23.5C17.9772 14 13.5 18.4772 13.5 24ZM52.9577 15H46L41 21V26L46 33H53.0401L46 23.5L52.9577 15Z" fill="url(#paint2_radial_3522_3085)"/>
<path fill-rule="evenodd" clip-rule="evenodd" d="M13.8158 45.3496C16.0316 45.9901 18.779 46 24.6967 46H34.3033C35.1726 46 39.9735 46 40.7183 45.9978L41.7183 45.9947L41.7243 47.9947L40.7243 47.9977C39.976 48 35.1756 48 34.3049 48L24.4702 48C18.8364 48.0001 15.7834 48.0002 13.2604 47.2709C7.22328 45.5259 2.49809 40.8429 0.736109 34.848C-0.000165284 32.3429 -0.000104258 29.8084 2.55314e-06 25.1686V24.9761C2.55314e-06 22.096 2.55555e-06 19.7771 0.0880229 17.8831C0.176165 15.9865 0.354464 14.4505 0.736109 13.152C2.49809 7.15711 7.22328 2.47413 13.2604 0.729084C13.9233 0.53746 14.6155 0.39735 15.3735 0.294307L16.3644 0.159595L16.6338 2.14136L15.6429 2.27607C14.9647 2.36828 14.3699 2.49025 13.8158 2.65042C8.42956 4.20732 4.22256 8.38239 2.65495 13.716C2.34107 14.7839 2.17161 16.131 2.08587 17.9759C2.00025 19.8182 2 22.0914 2 25C2 29.8522 2.00904 32.0864 2.65495 34.284C4.22256 39.6176 8.42956 43.7927 13.8158 45.3496ZM49.3662 45.8586L50.3571 45.7239C51.0353 45.6317 51.6301 45.5098 52.1843 45.3496C57.5705 43.7927 61.7775 39.6176 63.3451 34.284C63.991 32.0864 64 29.8522 64 25C64 22.0914 63.9998 19.8182 63.9141 17.9759C63.8284 16.131 63.6589 14.7839 63.3451 13.716C61.7775 8.38239 57.5705 4.20732 52.1843 2.65042C49.9684 2.00992 47.221 2 41.3033 2H31.6967C30.8274 2 26.0265 2.00001 25.2817 2.00225L24.2817 2.00527L24.2757 0.00527916L25.2757 0.00226173C26.0245 3.4289e-06 30.8304 3.42893e-06 31.6967 3.42893e-06H41.5299C47.1636 -0.000126271 50.2166 -0.000198722 52.7396 0.729084C58.7767 2.47413 63.5019 7.15711 65.2639 13.152C65.6455 14.4505 65.8238 15.9865 65.912 17.8831C66 19.777 66 22.096 66 24.9761V25.1686C66.0001 29.8084 66.0002 32.343 65.2639 34.848C63.5019 40.8429 58.7767 45.5259 52.7396 47.2709C52.0767 47.4625 51.3845 47.6027 50.6265 47.7057L49.6356 47.8404L49.3662 45.8586Z" fill="#B52127"/>
<path fill-rule="evenodd" clip-rule="evenodd" d="M13.8158 45.3496C16.0316 45.9901 18.779 46 24.6967 46H34.3033C35.1726 46 39.9735 46 40.7183 45.9978L41.7183 45.9947L41.7243 47.9947L40.7243 47.9977C39.976 48 35.1756 48 34.3049 48L24.4702 48C18.8364 48.0001 15.7834 48.0002 13.2604 47.2709C7.22328 45.5259 2.49809 40.8429 0.736109 34.848C-0.000165284 32.3429 -0.000104258 29.8084 2.55314e-06 25.1686V24.9761C2.55314e-06 22.096 2.55555e-06 19.7771 0.0880229 17.8831C0.176165 15.9865 0.354464 14.4505 0.736109 13.152C2.49809 7.15711 7.22328 2.47413 13.2604 0.729084C13.9233 0.53746 14.6155 0.39735 15.3735 0.294307L16.3644 0.159595L16.6338 2.14136L15.6429 2.27607C14.9647 2.36828 14.3699 2.49025 13.8158 2.65042C8.42956 4.20732 4.22256 8.38239 2.65495 13.716C2.34107 14.7839 2.17161 16.131 2.08587 17.9759C2.00025 19.8182 2 22.0914 2 25C2 29.8522 2.00904 32.0864 2.65495 34.284C4.22256 39.6176 8.42956 43.7927 13.8158 45.3496ZM49.3662 45.8586L50.3571 45.7239C51.0353 45.6317 51.6301 45.5098 52.1843 45.3496C57.5705 43.7927 61.7775 39.6176 63.3451 34.284C63.991 32.0864 64 29.8522 64 25C64 22.0914 63.9998 19.8182 63.9141 17.9759C63.8284 16.131 63.6589 14.7839 63.3451 13.716C61.7775 8.38239 57.5705 4.20732 52.1843 2.65042C49.9684 2.00992 47.221 2 41.3033 2H31.6967C30.8274 2 26.0265 2.00001 25.2817 2.00225L24.2817 2.00527L24.2757 0.00527916L25.2757 0.00226173C26.0245 3.4289e-06 30.8304 3.42893e-06 31.6967 3.42893e-06H41.5299C47.1636 -0.000126271 50.2166 -0.000198722 52.7396 0.729084C58.7767 2.47413 63.5019 7.15711 65.2639 13.152C65.6455 14.4505 65.8238 15.9865 65.912 17.8831C66 19.777 66 22.096 66 24.9761V25.1686C66.0001 29.8084 66.0002 32.343 65.2639 34.848C63.5019 40.8429 58.7767 45.5259 52.7396 47.2709C52.0767 47.4625 51.3845 47.6027 50.6265 47.7057L49.6356 47.8404L49.3662 45.8586Z" fill="url(#paint3_radial_3522_3085)"/>
<path d="M92.04 11.92C93.432 13.12 94.128 14.68 94.128 16.6C94.128 18.52 93.432 20.08 92.04 21.28C90.648 22.48 88.784 23.192 86.448 23.416V25.36H83.208V23.416C80.856 23.176 78.992 22.464 77.616 21.28C76.24 20.08 75.552 18.52 75.552 16.6C75.552 14.68 76.24 13.128 77.616 11.944C78.992 10.744 80.856 10.024 83.208 9.784V7.84H86.448V9.784C88.784 10.008 90.648 10.72 92.04 11.92ZM86.448 20.392C89.36 20.056 90.816 18.792 90.816 16.6C90.816 14.392 89.36 13.12 86.448 12.784V20.392ZM78.84 16.6C78.84 18.792 80.296 20.048 83.208 20.368V12.808C80.296 13.128 78.84 14.392 78.84 16.6Z" fill="black"/>
<path d="M105.835 25L104.827 21.976H98.1313L97.1233 25H93.5473L99.4273 8.2H103.531L109.435 25H105.835ZM99.1873 18.88H103.795L101.491 12.016L99.1873 18.88Z" fill="black"/>
<path d="M116.779 14.56C118.411 14.56 119.747 15.048 120.787 16.024C121.827 16.984 122.347 18.232 122.347 19.768C122.347 21.32 121.827 22.584 120.787 23.56C119.747 24.52 118.411 25 116.779 25H110.347V8.2H120.907V11.368H113.659V14.56H116.779ZM116.779 21.904C117.435 21.904 117.979 21.72 118.411 21.352C118.843 20.968 119.059 20.44 119.059 19.768C119.059 19.096 118.843 18.576 118.411 18.208C117.979 17.84 117.435 17.656 116.779 17.656H113.659V21.904H116.779Z" fill="black"/>
<path d="M129.93 8.2C131.546 8.2 132.906 8.744 134.01 9.832C135.114 10.92 135.666 12.256 135.666 13.84C135.666 15.424 135.114 16.76 134.01 17.848C132.906 18.936 131.546 19.48 129.93 19.48H126.978V25H123.666V8.2H129.93ZM129.93 16.384C130.634 16.384 131.218 16.144 131.682 15.664C132.146 15.168 132.378 14.56 132.378 13.84C132.378 13.104 132.146 12.496 131.682 12.016C131.218 11.536 130.634 11.296 129.93 11.296H126.978V16.384H129.93Z" fill="black"/>
<path d="M146.822 25V14.752L139.622 25H137.102V8.2H140.414V18.472L147.614 8.2H150.134V25H146.822Z" fill="black"/>
<path d="M165.658 25H161.842L155.842 17.128V25H152.53V8.2H155.842V15.616L161.602 8.2H165.418L159.202 16.36L165.658 25Z" fill="black"/>
<path d="M177.798 25L176.79 21.976H170.094L169.086 25H165.51L171.39 8.2H175.494L181.398 25H177.798ZM171.15 18.88H175.758L173.454 12.016L171.15 18.88Z" fill="black"/>
<path d="M200.717 25H196.901L190.901 17.128V25H187.589V8.2H190.901V15.616L196.661 8.2H200.477L194.261 16.36L200.717 25Z" fill="black"/>
<path d="M207.899 8.2C209.515 8.2 210.875 8.744 211.979 9.832C213.083 10.92 213.635 12.256 213.635 13.84C213.635 15.424 213.083 16.76 211.979 17.848C210.875 18.936 209.515 19.48 207.899 19.48H204.947V25H201.635V8.2H207.899ZM207.899 16.384C208.603 16.384 209.187 16.144 209.651 15.664C210.115 15.168 210.347 14.56 210.347 13.84C210.347 13.104 210.115 12.496 209.651 12.016C209.187 11.536 208.603 11.296 207.899 11.296H204.947V16.384H207.899Z" fill="black"/>
<path d="M218.383 21.832H225.463V25H215.071V8.2H225.343V11.368H218.383V14.944H224.743V18.064H218.383V21.832Z" fill="black"/>
<path d="M234.928 25.336C232.4 25.336 230.312 24.496 228.664 22.816C227.016 21.136 226.192 19.064 226.192 16.6C226.192 14.12 227.016 12.048 228.664 10.384C230.312 8.704 232.4 7.864 234.928 7.864C236.448 7.864 237.848 8.224 239.128 8.944C240.424 9.648 241.432 10.608 242.152 11.824L239.296 13.48C238.88 12.728 238.288 12.144 237.52 11.728C236.752 11.296 235.888 11.08 234.928 11.08C233.296 11.08 231.976 11.592 230.968 12.616C229.976 13.64 229.48 14.968 229.48 16.6C229.48 18.216 229.976 19.536 230.968 20.56C231.976 21.584 233.296 22.096 234.928 22.096C235.888 22.096 236.752 21.888 237.52 21.472C238.304 21.04 238.896 20.456 239.296 19.72L242.152 21.376C241.432 22.592 240.432 23.56 239.152 24.28C237.872 24.984 236.464 25.336 234.928 25.336Z" fill="black"/>
<path d="M246.779 21.832H253.859V25H243.467V8.2H253.739V11.368H246.779V14.944H253.139V18.064H246.779V21.832Z" fill="black"/>
<path d="M254.177 25V21.928C255.169 22.072 255.913 21.872 256.409 21.328C256.905 20.784 257.153 19.72 257.153 18.136V8.2H268.577V25H265.289V11.368H260.441V18.04C260.441 19.496 260.265 20.72 259.913 21.712C259.561 22.704 259.073 23.44 258.449 23.92C257.841 24.4 257.185 24.72 256.481 24.88C255.793 25.04 255.025 25.08 254.177 25Z" fill="black"/>
<path d="M76.9688 40V32H79.6719C80.2995 32 80.8125 32.1133 81.2109 32.3398C81.612 32.5638 81.9089 32.8672 82.1016 33.25C82.2943 33.6328 82.3906 34.0599 82.3906 34.5312C82.3906 35.0026 82.2943 35.431 82.1016 35.8164C81.9115 36.2018 81.6172 36.5091 81.2188 36.7383C80.8203 36.9648 80.3099 37.0781 79.6875 37.0781H77.75V36.2187H79.6563C80.0859 36.2187 80.431 36.1445 80.6914 35.9961C80.9518 35.8477 81.1406 35.6471 81.2578 35.3945C81.3776 35.1393 81.4375 34.8516 81.4375 34.5312C81.4375 34.2109 81.3776 33.9245 81.2578 33.6719C81.1406 33.4193 80.9505 33.2214 80.6875 33.0781C80.4245 32.9323 80.0755 32.8594 79.6406 32.8594H77.9375V40H76.9688Z" fill="black"/>
<path d="M83.5729 40H82.5573L85.4948 32H86.4948L89.4323 40H88.4166L86.026 33.2656H85.9635L83.5729 40ZM83.9479 36.875H88.0416V37.7344H83.9479V36.875Z" fill="black"/>
<path d="M90.7884 40V32H95.6165V32.8594H91.7571V35.3594H93.7884C94.3613 35.3594 94.8444 35.4531 95.2376 35.6406C95.6334 35.8281 95.9329 36.0924 96.136 36.4336C96.3417 36.7747 96.4446 37.1771 96.4446 37.6406C96.4446 38.1042 96.3417 38.513 96.136 38.8672C95.9329 39.2214 95.6334 39.4987 95.2376 39.6992C94.8444 39.8997 94.3613 40 93.7884 40H90.7884ZM91.7571 39.1562H93.7884C94.1529 39.1562 94.4615 39.0833 94.7141 38.9375C94.9694 38.7891 95.1621 38.599 95.2923 38.3672C95.4251 38.1328 95.4915 37.8854 95.4915 37.625C95.4915 37.2422 95.3444 36.9128 95.0501 36.6367C94.7558 36.3581 94.3352 36.2187 93.7884 36.2187H91.7571V39.1562Z" fill="black"/>
<path d="M104.899 36C104.899 36.8437 104.747 37.5729 104.442 38.1875C104.138 38.8021 103.72 39.276 103.188 39.6094C102.657 39.9427 102.05 40.1094 101.368 40.1094C100.686 40.1094 100.079 39.9427 99.5478 39.6094C99.0165 39.276 98.5986 38.8021 98.2939 38.1875C97.9892 37.5729 97.8368 36.8437 97.8368 36C97.8368 35.1562 97.9892 34.4271 98.2939 33.8125C98.5986 33.1979 99.0165 32.724 99.5478 32.3906C100.079 32.0573 100.686 31.8906 101.368 31.8906C102.05 31.8906 102.657 32.0573 103.188 32.3906C103.72 32.724 104.138 33.1979 104.442 33.8125C104.747 34.4271 104.899 35.1562 104.899 36ZM103.962 36C103.962 35.3073 103.846 34.7227 103.614 34.2461C103.385 33.7695 103.074 33.4089 102.681 33.1641C102.29 32.9193 101.852 32.7969 101.368 32.7969C100.884 32.7969 100.445 32.9193 100.052 33.1641C99.6611 33.4089 99.3499 33.7695 99.1181 34.2461C98.8889 34.7227 98.7743 35.3073 98.7743 36C98.7743 36.6927 98.8889 37.2773 99.1181 37.7539C99.3499 38.2305 99.6611 38.5911 100.052 38.8359C100.445 39.0807 100.884 39.2031 101.368 39.2031C101.852 39.2031 102.29 39.0807 102.681 38.8359C103.074 38.5911 103.385 38.2305 103.614 37.7539C103.846 37.2773 103.962 36.6927 103.962 36Z" fill="black"/>
<path d="M105.868 32.8594V32H111.868V32.8594H109.352V40H108.383V32.8594H105.868Z" fill="black"/>
<path d="M112.866 40H111.851L114.788 32H115.788L118.726 40H117.71L115.32 33.2656H115.257L112.866 40ZM113.241 36.875H117.335V37.7344H113.241V36.875Z" fill="black"/>
<path d="M120.082 40V32H124.91V32.8594H121.051V35.5625H124.66V36.4219H121.051V39.1406H124.973V40H120.082Z" fill="black"/>
<path d="M126.766 32H127.922L130.641 38.6406H130.735L133.454 32H134.61V40H133.704V33.9219H133.625L131.125 40H130.25L127.75 33.9219H127.672V40H126.766V32Z" fill="black"/>
<path d="M145.85 32V40H144.882V32.8594H140.85V40H139.882V32H145.85Z" fill="black"/>
<path d="M154.664 36C154.664 36.8437 154.512 37.5729 154.207 38.1875C153.903 38.8021 153.485 39.276 152.954 39.6094C152.422 39.9427 151.815 40.1094 151.133 40.1094C150.451 40.1094 149.844 39.9427 149.313 39.6094C148.782 39.276 148.364 38.8021 148.059 38.1875C147.754 37.5729 147.602 36.8437 147.602 36C147.602 35.1562 147.754 34.4271 148.059 33.8125C148.364 33.1979 148.782 32.724 149.313 32.3906C149.844 32.0573 150.451 31.8906 151.133 31.8906C151.815 31.8906 152.422 32.0573 152.954 32.3906C153.485 32.724 153.903 33.1979 154.207 33.8125C154.512 34.4271 154.664 35.1562 154.664 36ZM153.727 36C153.727 35.3073 153.611 34.7227 153.379 34.2461C153.15 33.7695 152.839 33.4089 152.446 33.1641C152.055 32.9193 151.618 32.7969 151.133 32.7969C150.649 32.7969 150.21 32.9193 149.817 33.1641C149.426 33.4089 149.115 33.7695 148.883 34.2461C148.654 34.7227 148.539 35.3073 148.539 36C148.539 36.6927 148.654 37.2773 148.883 37.7539C149.115 38.2305 149.426 38.5911 149.817 38.8359C150.21 39.0807 150.649 39.2031 151.133 39.2031C151.618 39.2031 152.055 39.0807 152.446 38.8359C152.839 38.5911 153.15 38.2305 153.379 37.7539C153.611 37.2773 153.727 36.6927 153.727 36Z" fill="black"/>
<path d="M159.607 40V32H162.404C162.961 32 163.421 32.0964 163.783 32.2891C164.145 32.4792 164.414 32.7357 164.591 33.0586C164.769 33.3789 164.857 33.7344 164.857 34.125C164.857 34.4687 164.796 34.7526 164.674 34.9766C164.554 35.2005 164.395 35.3776 164.197 35.5078C164.002 35.638 163.789 35.7344 163.56 35.7969V35.875C163.805 35.8906 164.051 35.9766 164.299 36.1328C164.546 36.2891 164.753 36.513 164.92 36.8047C165.086 37.0964 165.17 37.4531 165.17 37.875C165.17 38.276 165.078 38.6367 164.896 38.957C164.714 39.2773 164.426 39.5312 164.033 39.7187C163.64 39.9062 163.128 40 162.498 40H159.607ZM160.576 39.1406H162.498C163.131 39.1406 163.58 39.0182 163.845 38.7734C164.114 38.526 164.248 38.2266 164.248 37.875C164.248 37.6042 164.179 37.3542 164.041 37.125C163.903 36.8932 163.706 36.7083 163.451 36.5703C163.196 36.4297 162.894 36.3594 162.545 36.3594H160.576V39.1406ZM160.576 35.5156H162.373C162.664 35.5156 162.927 35.4583 163.162 35.3437C163.399 35.2292 163.586 35.0677 163.724 34.8594C163.865 34.651 163.935 34.4062 163.935 34.125C163.935 33.7734 163.813 33.4753 163.568 33.2305C163.323 32.9831 162.935 32.8594 162.404 32.8594H160.576V35.5156Z" fill="black"/>
<path d="M173.309 34.5H172.34C172.283 34.2214 172.183 33.9766 172.039 33.7656C171.899 33.5547 171.727 33.3776 171.524 33.2344C171.323 33.0885 171.101 32.9792 170.856 32.9062C170.611 32.8333 170.356 32.7969 170.09 32.7969C169.606 32.7969 169.167 32.9193 168.774 33.1641C168.383 33.4089 168.072 33.7695 167.84 34.2461C167.611 34.7227 167.496 35.3073 167.496 36C167.496 36.6927 167.611 37.2773 167.84 37.7539C168.072 38.2305 168.383 38.5911 168.774 38.8359C169.167 39.0807 169.606 39.2031 170.09 39.2031C170.356 39.2031 170.611 39.1667 170.856 39.0937C171.101 39.0208 171.323 38.9128 171.524 38.7695C171.727 38.6237 171.899 38.4453 172.039 38.2344C172.183 38.0208 172.283 37.776 172.34 37.5H173.309C173.236 37.9089 173.103 38.2747 172.91 38.5977C172.718 38.9206 172.478 39.1953 172.192 39.4219C171.905 39.6458 171.584 39.8164 171.227 39.9336C170.873 40.0508 170.494 40.1094 170.09 40.1094C169.408 40.1094 168.801 39.9427 168.27 39.6094C167.739 39.276 167.321 38.8021 167.016 38.1875C166.711 37.5729 166.559 36.8437 166.559 36C166.559 35.1562 166.711 34.4271 167.016 33.8125C167.321 33.1979 167.739 32.724 168.27 32.3906C168.801 32.0573 169.408 31.8906 170.09 31.8906C170.494 31.8906 170.873 31.9492 171.227 32.0664C171.584 32.1836 171.905 32.3555 172.192 32.582C172.478 32.806 172.718 33.0794 172.91 33.4023C173.103 33.7227 173.236 34.0885 173.309 34.5Z" fill="black"/>
<path d="M174.984 40V32H179.812V32.8594H175.953V35.5625H179.562V36.4219H175.953V39.1406H179.875V40H174.984Z" fill="black"/>
<path d="M181.669 32H182.622V38.2969H182.7L187.075 32H188.012V40H187.044V33.7187H186.965L182.606 40H181.669V32ZM185.606 30H186.465C186.465 30.4219 186.32 30.7669 186.028 31.0352C185.736 31.3034 185.34 31.4375 184.84 31.4375C184.348 31.4375 183.956 31.3034 183.665 31.0352C183.376 30.7669 183.231 30.4219 183.231 30H184.09C184.09 30.2031 184.146 30.3815 184.258 30.5352C184.373 30.6888 184.567 30.7656 184.84 30.7656C185.114 30.7656 185.309 30.6888 185.426 30.5352C185.546 30.3815 185.606 30.2031 185.606 30Z" fill="black"/>
<path d="M193.265 40V32H195.968C196.595 32 197.108 32.1133 197.507 32.3398C197.908 32.5638 198.205 32.8672 198.397 33.25C198.59 33.6328 198.686 34.0599 198.686 34.5312C198.686 35.0026 198.59 35.431 198.397 35.8164C198.207 36.2018 197.913 36.5091 197.515 36.7383C197.116 36.9648 196.606 37.0781 195.983 37.0781H194.046V36.2187H195.952C196.382 36.2187 196.727 36.1445 196.987 35.9961C197.248 35.8477 197.436 35.6471 197.554 35.3945C197.673 35.1393 197.733 34.8516 197.733 34.5312C197.733 34.2109 197.673 33.9245 197.554 33.6719C197.436 33.4193 197.246 33.2214 196.983 33.0781C196.72 32.9323 196.371 32.8594 195.936 32.8594H194.233V40H193.265Z" fill="black"/>
<path d="M203.107 32.9531H204.373C204.966 32.9531 205.494 33.0859 205.955 33.3516C206.416 33.6172 206.778 33.987 207.041 34.4609C207.304 34.9349 207.435 35.4844 207.435 36.1094C207.435 36.7344 207.304 37.2852 207.041 37.7617C206.778 38.2383 206.416 38.6107 205.955 38.8789C205.494 39.1471 204.966 39.2812 204.373 39.2812H203.107C202.513 39.2812 201.986 39.1484 201.525 38.8828C201.064 38.6172 200.702 38.2474 200.439 37.7734C200.176 37.2995 200.044 36.75 200.044 36.125C200.044 35.5 200.176 34.9492 200.439 34.4727C200.702 33.9961 201.064 33.6237 201.525 33.3555C201.986 33.0872 202.513 32.9531 203.107 32.9531ZM203.107 33.8125C202.654 33.8125 202.271 33.9075 201.959 34.0977C201.649 34.2878 201.413 34.556 201.251 34.9023C201.093 35.2487 201.013 35.6562 201.013 36.125C201.013 36.5885 201.093 36.9922 201.251 37.3359C201.413 37.6797 201.649 37.9466 201.959 38.1367C202.271 38.3268 202.654 38.4219 203.107 38.4219H204.373C204.826 38.4219 205.207 38.3268 205.517 38.1367C205.83 37.9466 206.065 37.6784 206.224 37.332C206.386 36.9857 206.466 36.5781 206.466 36.1094C206.466 35.6458 206.386 35.2422 206.224 34.8984C206.065 34.5547 205.83 34.2878 205.517 34.0977C205.207 33.9075 204.826 33.8125 204.373 33.8125H203.107ZM204.232 31.8594V40.3281H203.263V31.8594H204.232Z" fill="black"/>
<defs>
<radialGradient id="paint0_radial_3522_3085" cx="0" cy="0" r="1" gradientUnits="userSpaceOnUse" gradientTransform="translate(54.0638 48) rotate(-121.144) scale(48.8727 66.3693)">
<stop stop-color="#E9343B"/>
<stop offset="1" stop-color="#EB434A" stop-opacity="0"/>
</radialGradient>
<radialGradient id="paint1_radial_3522_3085" cx="0" cy="0" r="1" gradientUnits="userSpaceOnUse" gradientTransform="translate(54.0638 48) rotate(-121.144) scale(48.8727 66.3693)">
<stop stop-color="#E9343B"/>
<stop offset="1" stop-color="#EB434A" stop-opacity="0"/>
</radialGradient>
<radialGradient id="paint2_radial_3522_3085" cx="0" cy="0" r="1" gradientUnits="userSpaceOnUse" gradientTransform="translate(54.0638 48) rotate(-121.144) scale(48.8727 66.3693)">
<stop stop-color="#E9343B"/>
<stop offset="1" stop-color="#EB434A" stop-opacity="0"/>
</radialGradient>
<radialGradient id="paint3_radial_3522_3085" cx="0" cy="0" r="1" gradientUnits="userSpaceOnUse" gradientTransform="translate(47.3298 47) rotate(-118.885) scale(46.7767 60.6972)">
<stop stop-color="#E9343B"/>
<stop offset="1" stop-color="#EB434A" stop-opacity="0"/>
</radialGradient>
</defs>
</svg>
