<svg width="16" height="15" viewBox="0 0 16 15" fill="none" xmlns="http://www.w3.org/2000/svg">
<path d="M7.99999 0.333252L10.8173 4.45525L15.6087 5.86125L12.5587 9.81459L12.702 14.8053L7.99999 13.1266L3.29799 14.8053L3.44133 9.81459L0.391327 5.86125L5.18266 4.45525L7.99999 0.333252ZM6.66666 7.99992H5.33333C5.33332 8.69562 5.60519 9.36378 6.09093 9.86184C6.57667 10.3599 7.23782 10.6484 7.93331 10.6658C8.62879 10.6832 9.30354 10.4281 9.81358 9.95496C10.3236 9.48182 10.6286 8.82808 10.6633 8.13325L10.6667 7.99992H9.33333C9.33488 8.34591 9.20187 8.67895 8.96241 8.92869C8.72295 9.17842 8.39578 9.3253 8.05003 9.33828C7.70429 9.35126 7.36703 9.22933 7.10952 8.99826C6.852 8.76718 6.69439 8.44505 6.66999 8.09992L6.66666 7.99992Z" fill="#E6372A"/>
</svg>
