<svg id="Слой_1" data-name="Слой 1" xmlns="http://www.w3.org/2000/svg" xmlns:xlink="http://www.w3.org/1999/xlink" viewBox="0 0 397 397"><defs><style>.cls-1{fill:url(#Безымянный_градиент_6);}.cls-2{fill:url(#Безымянный_градиент_6-2);}.cls-3{fill:url(#Безымянный_градиент_6-3);}</style><linearGradient id="Безымянный_градиент_6" x1="105" y1="373.51" x2="105" y2="3.34" gradientUnits="userSpaceOnUse"><stop offset="0" stop-color="#c1272d"/><stop offset="1" stop-color="#97272d"/></linearGradient><linearGradient id="Безымянный_градиент_6-2" x1="246.01" y1="105.39" x2="246.01" y2="291.5" xlink:href="#Безымянный_градиент_6"/><linearGradient id="Безымянный_градиент_6-3" x1="320.12" y1="-0.32" x2="320.12" y2="397.32" xlink:href="#Безымянный_градиент_6"/></defs><title>Монтажная область 1</title><path class="cls-1" d="M199.53,105.36V-.35a222.86,222.86,0,0,0-39.35,3.62c-3.3.63-4.47,2.12-4.47,5.53.11,12.76-4.14,24.46-11.16,35a67.57,67.57,0,0,1-88,21.81c-2.66-1.39-4.36-1.17-6.17,1.17-3.94,5.1-8.19,9.89-12,15.1a192.82,192.82,0,0,0-27.33,53.49c-1.17,3.4.21,4.47,2.55,6,17.76,11.7,28.61,28.18,30.84,49.13,2.77,26.59-7.23,48.07-29,63.81-5.74,4.25-6,4.25-3.4,10.95,8.4,22.34,19.78,43,35.3,61.26,5.22,6.06,5.11,6.06,12.34,3.3l3.19-1.28c23.29-10.1,53.6-4.68,71.89,13.08,13,12.66,20.63,27.87,21,46.27.11,3.51,1.39,5.31,4.9,5.74a75.54,75.54,0,0,1,8.5,1.28,195.19,195.19,0,0,0,30.42,2.44V291.47a93.06,93.06,0,1,1,0-186.11Z"/><path class="cls-2" d="M199.53,291.5V105.39a93.06,93.06,0,0,1,0,186.11Z"/><path class="cls-3" d="M397,397.32,397-.32H243.35s-.11,7.87-.11,9.15a60,60,0,0,0,12.76,37c16.17,21.37,37.86,30.31,64.24,26.69,7.76-1.06,15.2-4.47,22.65-7.23,2.34-.85,3.72-.53,5.21,1.17a200.9,200.9,0,0,1,36.9,60.3c1,2.55,1.49,5.21,2.66,7.66a31.62,31.62,0,0,1,.22,4.78,9.82,9.82,0,0,1-3.09,2.66c-17.55,11.49-27.86,28-30.31,48.5-2.76,23.5,5.32,43.6,23.19,59.45a59.35,59.35,0,0,0,7.87,5.74,6,6,0,0,1,2.34,2.23c0,1.7.21,3.83.1,3.94-5.1,15.31-12.12,31.26-20.84,45-5.21,8.09-18.4,27-30.21,21.91a64.88,64.88,0,0,0-42-3.51c-19.15,4.68-34,15.74-43.61,33.29a66.32,66.32,0,0,0-7.12,21.91c-.53,3-.75,17-.75,17H397"/></svg>