<svg width="65" height="20" viewBox="0 0 65 20" fill="none" xmlns="http://www.w3.org/2000/svg">
<g clip-path="url(#clip0_1_1873)">
<path d="M36.1894 2.11338L32.0865 11.81H31.6694V5.64237e-08H25.832V19.9975H30.7828C31.4197 19.9976 32.0433 19.7986 32.5798 19.4241C33.1163 19.0495 33.5431 18.5151 33.8097 17.8841L37.9125 8.18747H38.3297V19.9975H44.1625V5.64237e-08H39.2163C38.5794 -0.000122336 37.9558 0.198876 37.4193 0.573428C36.8828 0.94798 36.456 1.48239 36.1894 2.11338Z" fill="#7F7F7F"/>
<path d="M14.3052 2.62805L11.8754 11.8274H11.4583L9.02847 2.62805C8.82789 1.87058 8.40712 1.20472 7.82952 0.730729C7.25193 0.256739 6.54879 0.00028917 5.826 0L0 0V20H5.83284V8.18001H6.24996L9.57324 20H13.749L17.0837 8.18001H17.5008V20H23.3336V0H17.5076C16.7848 0.00028917 16.0817 0.256739 15.5041 0.730729C14.9265 1.20472 14.5057 1.87058 14.3052 2.62805Z" fill="#7F7F7F"/>
<path d="M46.667 9.08984V19.9998H52.4884V13.6348H58.7498C60.0415 13.6341 61.3012 13.1966 62.3556 12.3827C63.4099 11.5688 64.2071 10.4184 64.6373 9.08984H46.667Z" fill="#7F7F7F"/>
<path d="M58.75 0H45.833C46.2223 2.29687 47.3366 4.37256 48.9825 5.86678C50.6283 7.361 52.7019 8.17943 54.8432 8.18001H64.8723C64.9554 7.73066 64.9974 7.27342 64.9977 6.81502C64.9971 5.00776 64.3387 3.27472 63.1671 1.9968C61.9956 0.718879 60.4068 0.00065898 58.75 0" fill="#7F7F7F"/>
</g>
<defs>
<clipPath id="clip0_1_1873">
<rect width="65" height="20" fill="white"/>
</clipPath>
</defs>
</svg>
