<svg width="295" height="60" viewBox="0 0 295 60" fill="none" xmlns="http://www.w3.org/2000/svg">
<path d="M59.803 33.9166V12.3786H67.2354C68.9604 12.3786 70.371 12.6835 71.4663 13.2935C72.569 13.8964 73.3851 14.7132 73.9156 15.7438C74.4451 16.7745 74.7104 17.9243 74.7104 19.1933C74.7104 20.4623 74.4451 21.6156 73.9156 22.6532C73.3925 23.6909 72.5838 24.5182 71.4885 25.1351C70.3923 25.7451 68.9891 26.0502 67.278 26.0502H61.951V23.7364H67.1918C68.3733 23.7364 69.3221 23.5367 70.038 23.137C70.754 22.7374 71.2734 22.1975 71.5952 21.5174C71.9253 20.8303 72.0895 20.0556 72.0895 19.1933C72.0895 18.3309 71.9253 17.5597 71.5952 16.8796C71.2734 16.1996 70.7503 15.6667 70.0279 15.2811C69.3045 14.8885 68.3446 14.6922 67.1491 14.6922H62.4665V33.9166H59.803ZM80.1608 34.2111V31.7712H81.5353C82.0658 31.7712 82.5091 31.6695 82.8671 31.4662C83.2325 31.2628 83.5329 30.9999 83.7694 30.6774C84.0124 30.355 84.2137 30.0184 84.3704 29.6679L84.7145 28.8685L77.1106 12.3786H79.9893L86.0463 25.7557L91.5885 12.3786H94.4236L86.8197 30.4251C86.5192 31.0981 86.1752 31.7221 85.7884 32.297C85.4091 32.8719 84.8898 33.3346 84.2313 33.6852C83.5793 34.0357 82.6955 34.2111 81.5789 34.2111H80.1608ZM114.539 19.1092H111.876C111.718 18.359 111.443 17.6999 111.05 17.1321C110.663 16.5641 110.19 16.0874 109.631 15.7018C109.08 15.3092 108.468 15.0147 107.795 14.8184C107.122 14.6221 106.42 14.5239 105.69 14.5239C104.358 14.5239 103.152 14.8534 102.07 15.5125C100.996 16.1716 100.141 17.1425 99.5031 18.4256C98.8734 19.7086 98.5581 21.2826 98.5581 23.1475C98.5581 25.0125 98.8734 26.5865 99.5031 27.8695C100.141 29.1525 100.996 30.1236 102.07 30.7826C103.152 31.4416 104.358 31.7712 105.69 31.7712C106.42 31.7712 107.122 31.673 107.795 31.4767C108.468 31.2804 109.08 30.9894 109.631 30.6038C110.19 30.2112 110.663 29.7309 111.05 29.163C111.443 28.5881 111.718 27.9291 111.876 27.186H114.539C114.339 28.2867 113.974 29.2718 113.444 30.1411C112.915 31.0105 112.255 31.7501 111.468 32.3601C110.68 32.963 109.796 33.4223 108.815 33.7377C107.842 34.0532 106.799 34.2111 105.69 34.2111C103.814 34.2111 102.145 33.7624 100.685 32.8649C99.224 31.9674 98.0749 30.6914 97.2374 29.0368C96.4 27.3822 95.9808 25.4191 95.9808 23.1475C95.9808 20.8759 96.4 18.9128 97.2374 17.2582C98.0749 15.6036 99.224 14.3276 100.685 13.4302C102.145 12.5328 103.814 12.0841 105.69 12.0841C106.799 12.0841 107.842 12.2418 108.815 12.5573C109.796 12.8728 110.68 13.3356 111.468 13.9456C112.255 14.5485 112.915 15.2846 113.444 16.154C113.974 17.0164 114.339 18.0014 114.539 19.1092ZM117.641 14.6922V12.3786H134.138V14.6922H127.221V33.9166H124.557V14.6922H117.641ZM136.58 33.9166H133.788L141.865 12.3786H144.615L152.691 33.9166H149.898L143.326 15.7859H143.154L136.58 33.9166ZM137.612 25.5033H148.867V27.8169H137.612V25.5033ZM172.184 14.9446H175.664C177.296 14.9446 178.747 15.3021 180.013 16.0173C181.281 16.7324 182.276 17.728 182.999 19.004C183.722 20.28 184.084 21.7594 184.084 23.442C184.084 25.1247 183.722 26.6075 182.999 27.8906C182.276 29.1736 181.281 30.1762 180.013 30.8983C178.747 31.6204 177.296 31.9815 175.664 31.9815H172.184C170.552 31.9815 169.101 31.6239 167.835 30.9088C166.567 30.1937 165.572 29.1981 164.848 27.9221C164.126 26.6461 163.764 25.1667 163.764 23.4841C163.764 21.8014 164.126 20.3186 164.848 19.0355C165.572 17.7525 166.567 16.7499 167.835 16.0278C169.101 15.3057 170.552 14.9446 172.184 14.9446ZM172.184 17.2582C170.938 17.2582 169.886 17.5141 169.026 18.026C168.174 18.5378 167.527 19.2599 167.082 20.1924C166.646 21.1249 166.428 22.222 166.428 23.4841C166.428 24.732 166.646 25.8188 167.082 26.7443C167.527 27.6697 168.174 28.3883 169.026 28.9001C169.886 29.412 170.938 29.6679 172.184 29.6679H175.664C176.909 29.6679 177.958 29.412 178.811 28.9001C179.669 28.3883 180.318 27.6662 180.754 26.7337C181.199 25.8013 181.42 24.704 181.42 23.442C181.42 22.1941 181.199 21.1073 180.754 20.1818C180.318 19.2564 179.669 18.5378 178.811 18.026C177.958 17.5141 176.909 17.2582 175.664 17.2582H172.184ZM175.277 12V34.8H172.614V12H175.277ZM188.547 12.3786H191.167V29.3313H191.382L203.41 12.3786H205.989V33.9166H203.325V17.0059H203.11L191.124 33.9166H188.547V12.3786ZM211.318 33.9166V12.3786H213.981V21.9697H225.709V12.3786H228.373V33.9166H225.709V24.2833H213.981V33.9166H211.318ZM234.608 33.9166H231.815L239.891 12.3786H242.641L250.718 33.9166H247.926L241.352 15.7859H241.181L234.608 33.9166ZM235.639 25.5033H246.894V27.8169H235.639V25.5033ZM254.144 33.9166V12.3786H256.808V21.9697H268.536V12.3786H271.199V33.9166H268.536V24.2833H256.808V33.9166H254.144ZM294.231 19.1092H291.567C291.41 18.359 291.134 17.6999 290.741 17.1321C290.354 16.5641 289.881 16.0874 289.323 15.7018C288.771 15.3092 288.159 15.0147 287.487 14.8184C286.813 14.6221 286.111 14.5239 285.381 14.5239C284.05 14.5239 282.843 14.8534 281.762 15.5125C280.688 16.1716 279.833 17.1425 279.195 18.4256C278.565 19.7086 278.249 21.2826 278.249 23.1475C278.249 25.0125 278.565 26.5865 279.195 27.8695C279.833 29.1525 280.688 30.1236 281.762 30.7826C282.843 31.4416 284.05 31.7712 285.381 31.7712C286.111 31.7712 286.813 31.673 287.487 31.4767C288.159 31.2804 288.771 30.9894 289.323 30.6038C289.881 30.2112 290.354 29.7309 290.741 29.163C291.134 28.5881 291.41 27.9291 291.567 27.186H294.231C294.03 28.2867 293.665 29.2718 293.136 30.1411C292.606 31.0105 291.947 31.7501 291.159 32.3601C290.372 32.963 289.487 33.4223 288.507 33.7377C287.533 34.0532 286.491 34.2111 285.381 34.2111C283.505 34.2111 281.837 33.7624 280.376 32.8649C278.915 31.9674 277.766 30.6914 276.929 29.0368C276.091 27.3822 275.672 25.4191 275.672 23.1475C275.672 20.8759 276.091 18.9128 276.929 17.2582C277.766 15.6036 278.915 14.3276 280.376 13.4302C281.837 12.5328 283.505 12.0841 285.381 12.0841C286.491 12.0841 287.533 12.2418 288.507 12.5573C289.487 12.8728 290.372 13.3356 291.159 13.9456C291.947 14.5485 292.606 15.2846 293.136 16.154C293.665 17.0164 294.03 18.0014 294.231 19.1092Z" fill="#1B325E"/>
<path d="M73.11 46.8354V47.9646H68.1754V46.8354H73.11ZM75.5726 52.6562V42.1437H76.9379V46.8251H82.9509V42.1437H84.3162V52.6562H82.9509V47.9543H76.9379V52.6562H75.5726ZM87.0515 52.6562V42.1437H93.8575V43.2731H88.4168V46.8251H93.5044V47.9543H88.4168V51.527H93.9458V52.6562H87.0515ZM99.9304 52.8C99.2036 52.8 98.5556 52.6836 97.9865 52.4509C97.4221 52.2182 96.9728 51.8949 96.6386 51.4807C96.3075 51.0634 96.1277 50.5791 96.0978 50.0282H97.4867C97.5151 50.3669 97.6397 50.6595 97.8604 50.9058C98.0811 51.1489 98.3696 51.337 98.7243 51.4706C99.0806 51.604 99.4763 51.6707 99.9083 51.6707C100.394 51.6707 100.823 51.592 101.198 51.4346C101.572 51.2772 101.866 51.0582 102.079 50.7775C102.292 50.497 102.398 50.1719 102.398 49.8023C102.398 49.4155 102.295 49.0752 102.09 48.7808C101.884 48.4831 101.583 48.2504 101.187 48.0827C100.79 47.9151 100.306 47.8311 99.7333 47.8311H98.83V46.7019H99.7333C100.181 46.7019 100.574 46.6267 100.911 46.476C101.253 46.3256 101.52 46.1134 101.71 45.8396C101.904 45.5658 102.002 45.2441 102.002 44.8745C102.002 44.5187 101.917 44.2089 101.748 43.9454C101.579 43.6819 101.341 43.4766 101.032 43.3295C100.728 43.1824 100.369 43.1088 99.9525 43.1088C99.5646 43.1088 99.1973 43.1755 98.852 43.3089C98.5099 43.439 98.2309 43.6289 98.0149 43.8787C97.7989 44.1251 97.6807 44.4229 97.6617 44.7719H96.3406C96.3626 44.221 96.5408 43.7385 96.875 43.3244C97.2093 42.9069 97.646 42.5818 98.1852 42.3491C98.7291 42.1164 99.325 42 99.9745 42C100.673 42 101.27 42.1318 101.77 42.3953C102.27 42.6554 102.653 42.9993 102.921 43.4271C103.189 43.8547 103.323 44.3168 103.323 44.8129C103.323 45.405 103.156 45.9097 102.822 46.3272C102.492 46.7447 102.041 47.0339 101.472 47.1947V47.2768C102.185 47.3863 102.741 47.6686 103.142 48.1237C103.542 48.5755 103.741 49.135 103.741 49.8023C103.741 50.3737 103.575 50.887 103.241 51.3421C102.91 51.7939 102.459 52.1498 101.885 52.4098C101.313 52.6699 100.662 52.8 99.9304 52.8ZM106.654 52.6562H105.223L109.364 42.1437H110.774L114.914 52.6562H113.482L110.113 43.8068H110.025L106.654 52.6562ZM107.183 48.5498H112.954V49.679H107.183V48.5498ZM116.672 52.6562V42.1437H120.615C121.4 42.1437 122.048 42.2704 122.559 42.5236C123.068 42.7734 123.448 43.1105 123.699 43.5348C123.948 43.9557 124.072 44.4229 124.072 44.9362C124.072 45.3878 123.985 45.7608 123.814 46.0552C123.645 46.3495 123.421 46.5821 123.142 46.7532C122.866 46.9244 122.567 47.0509 122.243 47.1331V47.2358C122.589 47.2562 122.935 47.3693 123.285 47.5746C123.634 47.7799 123.926 48.0741 124.16 48.4573C124.395 48.8406 124.512 49.3096 124.512 49.8639C124.512 50.3909 124.384 50.8648 124.127 51.2857C123.87 51.7066 123.465 52.0403 122.91 52.2866C122.355 52.5331 121.635 52.6562 120.746 52.6562H116.672ZM118.037 51.527H120.746C121.638 51.527 122.272 51.3661 122.645 51.0444C123.024 50.7193 123.213 50.3258 123.213 49.8639C123.213 49.508 123.115 49.1795 122.921 48.8784C122.727 48.5737 122.45 48.3308 122.09 48.1495C121.729 47.9646 121.304 47.8723 120.812 47.8723H118.037V51.527ZM118.037 46.7635H120.571C120.981 46.7635 121.353 46.6883 121.682 46.5376C122.016 46.3871 122.281 46.1749 122.475 45.9011C122.674 45.6274 122.773 45.3057 122.773 44.9362C122.773 44.4742 122.6 44.0824 122.254 43.7607C121.911 43.4356 121.364 43.2731 120.615 43.2731H118.037V46.7635ZM126.757 42.1437H128.1V50.4182H128.211L134.378 42.1437H135.699V52.6562H134.334V44.4023H134.224L128.078 52.6562H126.757V42.1437ZM147.508 45.429H146.142C146.06 45.0627 145.92 44.741 145.718 44.4639C145.52 44.1867 145.277 43.9541 144.992 43.7658C144.708 43.5742 144.394 43.4305 144.049 43.3347C143.703 43.2388 143.344 43.1909 142.97 43.1909C142.288 43.1909 141.668 43.3517 141.115 43.6734C140.563 43.9951 140.125 44.469 139.798 45.0952C139.475 45.7216 139.313 46.4897 139.313 47.4C139.313 48.3102 139.475 49.0785 139.798 49.7047C140.125 50.3309 140.563 50.8049 141.115 51.1266C141.668 51.4482 142.288 51.6092 142.97 51.6092C143.344 51.6092 143.703 51.5613 144.049 51.4654C144.394 51.3696 144.708 51.2275 144.992 51.0394C145.277 50.8478 145.52 50.6132 145.718 50.3361C145.92 50.0555 146.06 49.7338 146.142 49.3711H147.508C147.405 49.9084 147.218 50.3891 146.945 50.8135C146.674 51.2378 146.336 51.5989 145.933 51.8966C145.529 52.1908 145.075 52.4149 144.572 52.569C144.072 52.723 143.54 52.8 142.97 52.8C142.009 52.8 141.153 52.581 140.404 52.1429C139.655 51.705 139.065 51.0822 138.636 50.2745C138.206 49.467 137.992 48.5088 137.992 47.4C137.992 46.2913 138.206 45.3331 138.636 44.5255C139.065 43.7179 139.655 43.0951 140.404 42.657C141.153 42.2191 142.009 42 142.97 42C143.54 42 144.072 42.077 144.572 42.231C145.075 42.385 145.529 42.6109 145.933 42.9086C146.336 43.2028 146.674 43.5621 146.945 43.9866C147.218 44.4075 147.405 44.8883 147.508 45.429ZM149.715 42.1437H151.058V50.4182H151.168L157.336 42.1437H158.657V52.6562H157.292V44.4023H157.181L151.036 52.6562H149.715V42.1437ZM161.389 42.1437H163.019L166.852 50.87H166.984L170.817 42.1437H172.447V52.6562H171.17V44.6692H171.06L167.535 52.6562H166.302L162.777 44.6692H162.668V52.6562H161.389V42.1437ZM175.648 52.6562H174.216L178.358 42.1437H179.767L183.907 52.6562H182.476L179.107 43.8068H179.018L175.648 52.6562ZM176.176 48.5498H181.948V49.679H176.176V48.5498ZM193.33 52.6562H191.963V43.2731H189.564C188.954 43.2731 188.463 43.3602 188.093 43.5348C187.722 43.7059 187.453 43.9489 187.283 44.2637C187.114 44.5785 187.03 44.9463 187.03 45.3674C187.03 45.7883 187.112 46.151 187.278 46.4555C187.447 46.7567 187.715 46.9894 188.082 47.1537C188.452 47.3178 188.94 47.4 189.542 47.4H192.581V48.5498H189.498C188.623 48.5498 187.905 48.4146 187.344 48.1443C186.783 47.8705 186.365 47.4942 186.094 47.0151C185.823 46.536 185.687 45.9867 185.687 45.3674C185.687 44.748 185.823 44.1952 186.094 43.7094C186.365 43.2234 186.784 42.8419 187.349 42.5647C187.915 42.284 188.638 42.1437 189.52 42.1437H193.33V52.6562ZM188.022 47.9339H189.564L186.832 52.6562H185.246L188.022 47.9339ZM207.236 42.1437V43.2731H201.795V52.6562H200.43V42.1437H207.236ZM208.494 52.6562H207.062L211.204 42.1437H212.613L216.753 52.6562H215.322L211.953 43.8068H211.864L208.494 52.6562ZM209.022 48.5498H214.794V49.679H209.022V48.5498ZM218.511 52.6562V42.1437H222.322C223.206 42.1437 223.93 42.2926 224.491 42.5903C225.055 42.8847 225.475 43.2834 225.746 43.7864C226.017 44.2894 226.154 44.8505 226.154 45.47C226.154 46.0894 226.017 46.6522 225.746 47.1588C225.478 47.6652 225.063 48.0691 224.502 48.3702C223.941 48.6679 223.22 48.8167 222.344 48.8167H219.611V47.6874H222.299C222.905 47.6874 223.39 47.59 223.758 47.3948C224.125 47.1998 224.392 46.9363 224.557 46.6043C224.726 46.269 224.809 45.8909 224.809 45.47C224.809 45.0491 224.726 44.6727 224.557 44.3407C224.392 44.0088 224.124 43.7486 223.753 43.5605C223.383 43.3689 222.891 43.2731 222.277 43.2731H219.876V52.6562H218.511ZM227.665 52.6562H226.233L230.375 42.1437H231.784L235.926 52.6562H234.494L231.124 43.8068H231.035L227.665 52.6562ZM228.194 48.5498H233.964V49.679H228.194V48.5498ZM237.682 52.6562V42.1437H239.047V46.8251H245.06V42.1437H246.427V52.6562H245.06V47.9543H239.047V52.6562H237.682ZM248.544 43.2731V42.1437H257.003V43.2731H253.455V52.6562H252.09V43.2731H248.544ZM259.109 42.1437H260.454V50.4182H260.564L266.732 42.1437H268.053V52.6562H266.687V44.4023H266.577L260.432 52.6562H259.109V42.1437ZM278.45 52.6562H277.085V43.2731H274.684C274.075 43.2731 273.585 43.3602 273.214 43.5348C272.842 43.7059 272.573 43.9489 272.404 44.2637C272.235 44.5785 272.15 44.9463 272.15 45.3674C272.15 45.7883 272.234 46.151 272.399 46.4555C272.568 46.7567 272.836 46.9894 273.203 47.1537C273.574 47.3178 274.059 47.4 274.662 47.4H277.701V48.5498H274.617C273.744 48.5498 273.027 48.4146 272.466 48.1443C271.903 47.8705 271.486 47.4942 271.215 47.0151C270.943 46.536 270.807 45.9867 270.807 45.3674C270.807 44.748 270.943 44.1952 271.215 43.7094C271.486 43.2234 271.904 42.8419 272.47 42.5647C273.036 42.284 273.758 42.1437 274.64 42.1437H278.45V52.6562ZM273.142 47.9339H274.684L271.953 52.6562H270.367L273.142 47.9339ZM285.858 46.8354V47.9646H280.924V46.8354H285.858Z" fill="#E20E7F"/>
<path d="M28.2862 42.8518L25.6127 40.8922L35.6356 26.9898L25.6127 13.0874L28.2862 11.1277L39.7212 26.9898L28.2862 42.8518Z" fill="#818C02"/>
<path d="M28.6012 10.0469V50.3004C28.0478 50.3426 27.5027 50.3591 26.9493 50.3591H26.9321C26.3787 50.3591 25.8335 50.3426 25.2965 50.2922V10.0469H28.6012Z" fill="#818C02"/>
<path d="M28.6012 50.9254V54.2661C28.0478 54.2991 27.5027 54.3164 26.9493 54.3164H26.9321C26.3869 54.3164 25.8417 54.2991 25.2965 54.2661V50.9171C25.8335 50.9667 26.3787 50.984 26.9321 50.984H26.9493C27.5027 50.984 28.0478 50.9667 28.6012 50.9254Z" fill="#818C02"/>
<path d="M26.9501 9.41943V8.61129V8.29514V7.98642V7.58689" stroke="#818C02" stroke-width="5.33333" stroke-miterlimit="10"/>
<path d="M26.9326 55.5417L19.1288 60H26.9326H34.7362L26.9326 55.5417Z" fill="#1B325E"/>
<path d="M30.4601 50.7171V54.0825C29.8486 54.1659 29.2289 54.2245 28.6011 54.2658C28.0477 54.2996 27.5025 54.3162 26.9491 54.3162H26.9327C26.3876 54.3162 25.8424 54.2996 25.2964 54.2658C11.2025 53.4164 0 41.5867 0 27.1577C0 12.1797 12.0785 0 26.9327 0H28.5847V5.53141C28.0477 5.49014 27.5025 5.46538 26.9491 5.46538C26.3876 5.46538 25.8333 5.49014 25.28 5.53141V3.39099C13.0207 4.24039 3.30469 14.5785 3.30469 27.1577C3.30469 39.7377 13.0289 50.0758 25.2964 50.9169C25.8333 50.9672 26.3786 50.9837 26.9327 50.9837H26.9491C27.5025 50.9837 28.0477 50.9672 28.6011 50.9252C29.2289 50.8838 29.8486 50.817 30.4601 50.7171Z" fill="#E20E7F"/>
<path d="M28.6012 44.8107C28.056 44.8693 27.5109 44.894 26.9493 44.894C26.3869 44.894 25.8417 44.8693 25.2965 44.8107C16.3664 43.9695 9.36001 36.372 9.36001 27.1582C9.36001 17.3782 17.2497 9.4224 26.9493 9.4224C36.648 9.4224 44.5377 17.3782 44.5377 27.1582C44.5377 36.372 37.5321 43.9695 28.6012 44.8107ZM29.2045 6.21463C29.1054 6.19811 29.0064 6.18989 28.8984 6.18161C28.7993 6.17336 28.6921 6.16511 28.5848 6.15603C28.0478 6.11475 27.5027 6.08999 26.9493 6.08999C26.3869 6.08999 25.8335 6.11475 25.2802 6.1651C25.1811 6.1651 25.0739 6.17336 24.9748 6.18989C24.8667 6.18989 24.7595 6.2064 24.6604 6.21463C14.2102 7.37275 6.05615 16.3199 6.05615 27.1582C6.05615 38.221 14.5401 47.3102 25.2965 48.1596C25.8417 48.2017 26.3951 48.2264 26.9493 48.2264C27.5027 48.2264 28.056 48.2017 28.6012 48.1596C39.3576 47.3102 47.8424 38.221 47.8424 27.1582C47.8424 16.3034 39.6712 7.34801 29.2045 6.21463Z" fill="#1B325E"/>
</svg>
