<svg class="img-fluid" id="outputsvg" xmlns="http://www.w3.org/2000/svg" style="transform: matrix(0.769231, 0, 0, 0.769231, 0, 0); transform-origin: 50% 50%; cursor: move; transition: transform 200ms ease-in-out 0s;" width="512" height="512" viewBox="0 0 5120 5120"><g id="l34pRpWb2b69AeSOOvZfnpQ" fill="rgb(0,0,0)" style="transform: none;"><g><path id="pWeUinBOj" d="M1460 4767 c-34 -17 -70 -74 -70 -111 0 -46 54 -132 106 -169 79 -56 122 -66 292 -67 l152 0 0 -110 0 -110 620 0 620 0 0 110 0 110 150 0 c165 0 213 10 287 62 56 38 105 110 110 162 5 47 -25 102 -67 123 -36 18 -2164 18 -2200 0z"></path><path id="pR0drRb11" d="M223 4080 c-91 -19 -156 -69 -195 -155 l-23 -50 0 -1666 0 -1665 30 -59 c34 -66 93 -118 153 -135 25 -7 795 -10 2373 -10 2570 0 2382 -5 2461 60 20 17 49 56 65 88 l28 57 0 1670 c0 1578 -1 1672 -18 1708 -27 58 -82 112 -140 138 l-52 24 -2320 1 c-1276 1 -2339 -2 -2362 -6z m2412 -249 c79 -35 113 -102 102 -198 -14 -128 -168 -194 -278 -120 -56 37 -79 81 -79 149 0 86 34 139 110 172 47 20 97 19 145 -3z m2275 -1925 l0 -1335 -22 -15 c-20 -14 -258 -16 -2332 -16 -2135 0 -2311 1 -2328 17 -17 15 -18 70 -18 1350 l0 1333 2350 0 2350 0 0 -1334z"></path><path id="pBTdASsIt" d="M2511 3704 c-12 -15 -21 -32 -21 -39 0 -27 41 -65 70 -65 29 0 70 38 70 65 0 27 -41 65 -70 65 -19 0 -36 -9 -49 -26z"></path><path id="pDmMFStP0" d="M2215 2851 c-79 -28 -153 -69 -165 -90 -14 -28 -12 -69 6 -121 43 -123 -50 -254 -179 -252 -29 0 -70 7 -92 15 -84 31 -133 -14 -186 -172 -20 -59 -20 -66 -6 -96 10 -22 34 -43 68 -62 75 -40 111 -89 117 -157 2 -29 -1 -69 -7 -88 -15 -45 -64 -95 -119 -120 -42 -20 -72 -59 -72 -95 0 -29 68 -185 91 -209 29 -31 67 -37 118 -19 122 43 240 -13 272 -128 10 -34 9 -54 -5 -107 -9 -36 -16 -75 -16 -88 0 -36 47 -75 132 -110 125 -52 161 -42 214 56 81 153 278 142 360 -19 27 -54 48 -69 94 -69 44 0 180 58 214 92 31 31 31 46 5 155 -10 40 -10 60 -1 92 34 112 161 171 270 125 43 -18 92 -12 114 14 21 24 57 96 78 158 28 81 12 117 -72 160 -26 13 -58 38 -72 57 -25 33 -47 104 -41 135 2 9 6 29 10 44 8 40 61 96 117 124 36 18 54 35 64 60 13 31 12 40 -7 96 -28 85 -65 155 -88 168 -27 14 -60 13 -126 -5 -91 -23 -175 5 -222 76 -31 48 -37 125 -14 200 23 73 5 103 -83 145 -39 18 -92 39 -118 46 -44 11 -50 10 -75 -8 -16 -11 -39 -41 -53 -66 -35 -64 -50 -79 -95 -99 -104 -48 -238 6 -269 108 -9 30 -63 73 -89 72 -12 0 -44 -8 -72 -18z m470 -513 c99 -25 220 -116 272 -206 65 -110 82 -267 42 -384 -134 -398 -677 -430 -856 -51 -33 68 -38 89 -41 169 -7 151 36 261 139 359 119 114 279 154 444 113z"></path></g></g></svg>