<svg width="20" height="18" viewBox="0 0 20 18" fill="none" xmlns="http://www.w3.org/2000/svg">
<path d="M9.5835 17.298L9.5775 17.2944L9.5547 17.2824C9.08117 17.0248 8.61612 16.7518 8.1603 16.464C7.07354 15.7802 6.038 15.0182 5.0619 14.184C2.8539 12.2796 0.399902 9.4224 0.399902 6C0.400008 4.88335 0.746282 3.7942 1.39104 2.8825C2.0358 1.97081 2.94734 1.28142 4.00014 0.909256C5.05295 0.53709 6.19523 0.500454 7.26972 0.804392C8.3442 1.10833 9.29804 1.73789 9.9999 2.6064C10.7018 1.73789 11.6556 1.10833 12.7301 0.804392C13.8046 0.500454 14.9469 0.53709 15.9997 0.909256C17.0525 1.28142 17.964 1.97081 18.6088 2.8825C19.2535 3.7942 19.5998 4.88335 19.5999 6C19.5999 9.4224 17.1471 12.2796 14.9379 14.184C13.5511 15.3689 12.0455 16.4072 10.4451 17.2824L10.4223 17.2944L10.4163 17.298H10.4139C10.2864 17.3655 10.1443 17.401 10 17.4012C9.85576 17.4014 9.7136 17.3664 9.5859 17.2992L9.5835 17.298Z" fill="black"/>
</svg>
