<svg width="18" height="18" viewBox="0 0 18 18" fill="none" xmlns="http://www.w3.org/2000/svg">
<path fill-rule="evenodd" clip-rule="evenodd" d="M0.25 2.75C0.25 2.08696 0.513392 1.45107 0.982233 0.982233C1.45107 0.513392 2.08696 0.25 2.75 0.25H3.89333C4.61 0.25 5.235 0.738333 5.40917 1.43333L6.33 5.11917C6.40462 5.4175 6.38955 5.73122 6.28667 6.02102C6.18379 6.31082 5.99769 6.56383 5.75167 6.74833L4.67417 7.55667C4.56167 7.64083 4.5375 7.76417 4.56917 7.85C5.03948 9.12904 5.78216 10.2906 6.74579 11.2542C7.70941 12.2178 8.87096 12.9605 10.15 13.4308C10.2358 13.4625 10.3583 13.4383 10.4433 13.3258L11.2517 12.2483C11.4362 12.0023 11.6892 11.8162 11.979 11.7133C12.2688 11.6105 12.5825 11.5954 12.8808 11.67L16.5667 12.5908C17.2617 12.765 17.75 13.39 17.75 14.1075V15.25C17.75 15.913 17.4866 16.5489 17.0178 17.0178C16.5489 17.4866 15.913 17.75 15.25 17.75H13.375C6.12667 17.75 0.25 11.8733 0.25 4.625V2.75Z" fill="black"/>
</svg>
