<svg width="89" height="54" viewBox="0 0 89 54" fill="none" xmlns="http://www.w3.org/2000/svg">
<path opacity="0.7" d="M0 11.293L53.2624 2.26768L56.693 18.3007L3.43059 27.326L0 11.293Z" fill="#E6372A"/>
<path opacity="0.7" d="M9.86734 29.4811L53.2632 2.26762L56.6938 18.3007L13.2979 45.5141L9.86734 29.4811Z" fill="#E6372A"/>
<path opacity="0.7" d="M9.86719 29.4805L85.5701 21.8022L89.0006 37.8353L13.2978 45.5135L9.86719 29.4805Z" fill="#E6372A"/>
<path d="M4.561 18.869C4.561 21.334 6.584 23.255 9.491 23.255C12.483 23.255 14.438 21.453 14.438 18.869C14.438 16.676 12.568 14.891 10.171 14.891C8.947 14.891 7.893 15.418 7.162 16.234C7.366 15.333 7.723 14.602 8.301 14.109C9.916 12.783 12.143 13.871 13.911 11.967L12.823 10.352C10.8 12.035 8.301 10.981 6.363 12.732C5.105 13.871 4.561 15.316 4.561 18.869ZM6.941 18.869C6.941 17.713 7.961 16.829 9.491 16.829C11.004 16.829 12.058 17.696 12.058 18.869C12.058 20.093 11.089 21.045 9.491 21.045C7.808 21.045 6.941 20.127 6.941 18.869ZM25.3772 19.345C25.4112 19.158 25.4112 18.954 25.4112 18.767C25.4112 16.064 23.2352 14.245 20.3282 14.245C17.3872 14.245 15.2112 16.166 15.2112 18.767C15.2112 21.334 17.4042 23.255 20.3282 23.255C22.6572 23.255 24.4762 22.133 25.1222 20.399H22.7082C22.2662 21.011 21.4502 21.385 20.4302 21.385C19.0022 21.385 17.9142 20.569 17.6592 19.345H25.3772ZM17.6592 18.155C17.9142 16.965 18.9512 16.166 20.3282 16.166C21.7222 16.166 22.7252 16.948 22.9632 18.155H17.6592ZM28.5569 18.767C28.5569 17.39 29.7469 16.404 31.3789 16.404C32.6539 16.404 33.6059 16.931 33.9969 17.798H36.4619C36.0029 15.622 33.9969 14.245 31.3789 14.245C28.3869 14.245 26.1769 16.166 26.1769 18.767C26.1769 21.334 28.4039 23.255 31.3789 23.255C34.0139 23.255 36.0369 21.844 36.4789 19.685H34.0139C33.6229 20.569 32.6709 21.079 31.3789 21.079C29.7639 21.079 28.5569 20.127 28.5569 18.767ZM40.7972 23H43.1772V16.693H46.9852V14.5H36.9382V16.693H40.7972V23ZM18.671 30.767C18.671 29.39 19.861 28.404 21.493 28.404C22.768 28.404 23.72 28.931 24.111 29.798H26.576C26.117 27.622 24.111 26.245 21.493 26.245C18.501 26.245 16.291 28.166 16.291 30.767C16.291 33.334 18.518 35.255 21.493 35.255C24.128 35.255 26.151 33.844 26.593 31.685H24.128C23.737 32.569 22.785 33.079 21.493 33.079C19.878 33.079 18.671 32.127 18.671 30.767ZM37.3231 31.345C37.3571 31.158 37.3571 30.954 37.3571 30.767C37.3571 28.064 35.1811 26.245 32.2741 26.245C29.3331 26.245 27.1571 28.166 27.1571 30.767C27.1571 33.334 29.3501 35.255 32.2741 35.255C34.6031 35.255 36.4221 34.133 37.0681 32.399H34.6541C34.2121 33.011 33.3961 33.385 32.3761 33.385C30.9481 33.385 29.8601 32.569 29.6051 31.345H37.3231ZM29.6051 30.155C29.8601 28.965 30.8971 28.166 32.2741 28.166C33.6681 28.166 34.6711 28.948 34.9091 30.155H29.6051ZM39.6251 30.784C39.4381 32.467 38.9621 33.079 37.8571 33.079V35.255C40.5261 35.255 41.6141 34.082 41.9881 30.954L42.2431 28.693H46.4421V35H48.8221V26.5H40.1011L39.6251 30.784ZM51.9023 30.784C51.7153 32.467 51.2393 33.079 50.1343 33.079V35.255C52.8033 35.255 53.8913 34.082 54.2653 30.954L54.5203 28.693H58.7193V35H61.0993V26.5H52.3783L51.9023 30.784ZM72.5775 31.345C72.6115 31.158 72.6115 30.954 72.6115 30.767C72.6115 28.064 70.4355 26.245 67.5285 26.245C64.5875 26.245 62.4115 28.166 62.4115 30.767C62.4115 33.334 64.6045 35.255 67.5285 35.255C69.8575 35.255 71.6765 34.133 72.3225 32.399H69.9085C69.4665 33.011 68.6505 33.385 67.6305 33.385C66.2025 33.385 65.1145 32.569 64.8595 31.345H72.5775ZM64.8595 30.155C65.1145 28.965 66.1515 28.166 67.5285 28.166C68.9225 28.166 69.9255 28.948 70.1635 30.155H64.8595ZM73.9041 26.5V38.4H76.2841V33.929C77.1511 34.779 78.3751 35.255 79.7861 35.255C82.6251 35.255 84.7331 33.334 84.7331 30.733C84.7331 28.166 82.6081 26.245 79.7861 26.245C78.3581 26.245 77.1171 26.738 76.2501 27.588L76.0291 26.5H73.9041ZM82.3531 30.733C82.3531 32.127 81.0951 33.147 79.2761 33.147C77.4911 33.147 76.2841 32.161 76.2841 30.733C76.2841 29.322 77.4911 28.336 79.2761 28.336C81.0611 28.336 82.3531 29.339 82.3531 30.733Z" fill="white"/>
</svg>
