<svg width="46" height="50" viewBox="0 0 46 50" fill="none" xmlns="http://www.w3.org/2000/svg">
<path d="M14.4062 0.390625C11.5938 0.390625 9.32812 2.65625 9.32812 5.46875V11.4456C9.32812 12.1097 9.83594 12.6175 10.5 12.6175C11.1641 12.6175 11.6719 12.1097 11.6719 11.4456V5.46875C11.6719 3.94531 12.8828 2.73438 14.4062 2.73438H25.7344V13.2812C25.7344 13.9453 26.2422 14.4531 26.9062 14.4531C27.5703 14.4531 28.0781 13.9453 28.0781 13.2812V2.73438H32.7656V13.2812C32.7656 13.9453 33.2734 14.4531 33.9375 14.4531C34.6016 14.4531 35.1094 13.9453 35.1094 13.2812V2.73438H36.6719C38.1953 2.73438 39.4062 3.94531 39.4062 5.46875V14.0625C39.4062 14.7266 39.9141 15.2344 40.5781 15.2344C41.2422 15.2344 41.75 14.7266 41.75 14.0625V5.46875C41.75 2.65625 39.4844 0.390625 36.6719 0.390625H14.4062ZM4.9519 11.2167C4.87469 11.2198 4.79657 11.2308 4.71844 11.2503C2.45282 11.7581 0.34375 12.4609 0.34375 14.0625C0.34375 15.3516 1.20282 16.8358 11.5544 18.0077C18.1559 18.7498 26.9453 19.1406 36.2812 19.1406H36.6719C38.1953 19.1406 39.4062 20.3516 39.4062 21.875V23.4375C39.4062 24.1016 39.9141 24.6094 40.5781 24.6094C41.2422 24.6094 41.75 24.1016 41.75 23.4375V21.875C41.75 19.0625 39.4844 16.7969 36.6719 16.7969H36.2812C17.0234 16.7969 6.20297 15.1953 3.31235 14.0625C3.70297 13.9062 4.32797 13.7109 5.26547 13.4766C5.89047 13.3594 6.28156 12.7344 6.12531 12.1094C5.98859 11.5625 5.49237 11.1954 4.9519 11.2167ZM1.51562 20.7031C0.851562 20.7031 0.34375 21.2109 0.34375 21.875V44.5312C0.34375 45.8203 1.20282 47.3045 11.5544 48.4764C18.1559 49.2186 26.9453 49.6094 36.2812 49.6094H36.6719C39.4844 49.6094 41.75 47.3438 41.75 44.5312V38.6719H44.4844C45.1484 38.6719 45.6562 38.1641 45.6562 37.5V29.2969C45.6562 28.6328 45.1484 28.125 44.4844 28.125H36.8672C33.9766 28.125 31.5938 30.5078 31.5938 33.3984C31.5938 36.2891 33.9766 38.6719 36.8672 38.6719H39.4062V44.5312C39.4062 46.0547 38.1953 47.2656 36.6719 47.2656H36.2812C15.2656 47.2656 4.28906 45.3519 2.6875 44.2581V21.875C2.6875 21.2109 2.17969 20.7031 1.51562 20.7031ZM36.8672 30.4688H43.3125V36.3281H36.8672C35.2656 36.3281 33.9375 35 33.9375 33.3984C33.9375 31.7969 35.2656 30.4688 36.8672 30.4688Z" fill="black"/>
</svg>
