<svg width="46" height="50" viewBox="0 0 46 50" fill="none" xmlns="http://www.w3.org/2000/svg">
<path d="M21 0.737C20.2324 0.737 19.4646 0.907898 18.7654 1.24969L3.53098 8.71124C1.80441 9.5589 0.6875 11.3517 0.6875 13.2736V23.9494C0.6875 32.4065 5.67944 40.8987 13.7185 46.1136C13.9138 46.2425 14.1368 46.3005 14.3556 46.3005C14.7384 46.3005 15.1171 46.1133 15.3398 45.7657C15.6913 45.2227 15.5348 44.496 14.9919 44.1444C7.61685 39.3593 3.03125 31.6213 3.03125 23.9494V13.2736C3.03125 12.2385 3.63278 11.2732 4.56247 10.8162L19.7968 3.35541C20.5508 2.98822 21.4492 2.98822 22.2032 3.35541L37.4375 10.8162C38.3672 11.2732 38.9688 12.2346 38.9688 13.2736V18.2106C38.9688 18.859 39.4922 19.3825 40.1406 19.3825C40.7891 19.3825 41.3125 18.859 41.3125 18.2106V13.2736C41.3125 11.3478 40.1956 9.5589 38.469 8.71124L23.2346 1.24969C22.5354 0.907898 21.7676 0.737 21 0.737ZM21 10.3592C20.3516 10.3592 19.8281 10.8826 19.8281 11.5311V18.1717C19.8281 18.8201 20.3516 19.3436 21 19.3436C21.6484 19.3436 22.1719 18.8201 22.1719 18.1717V11.5311C22.1719 10.8826 21.6484 10.3592 21 10.3592ZM30.375 20.121C22.1914 20.121 15.5312 26.7812 15.5312 34.9648C15.5312 43.1483 22.1914 49.8085 30.375 49.8085C38.5586 49.8085 45.2188 43.1483 45.2188 34.9648C45.2188 26.7812 38.5586 20.121 30.375 20.121ZM30.375 22.4648C37.2656 22.4648 42.875 28.0702 42.875 34.9648C42.875 41.8593 37.2656 47.4648 30.375 47.4648C23.4844 47.4648 17.875 41.8593 17.875 34.9648C17.875 28.0702 23.4844 22.4648 30.375 22.4648ZM37.8411 30.278C37.5418 30.2663 37.2386 30.3694 37.0004 30.5901L29.3908 37.6526L26.1056 34.5078C25.6368 34.0624 24.8985 34.078 24.4492 34.5428C24 35.0116 24.0195 35.7539 24.4843 36.1992L28.5706 40.1093C28.7972 40.3241 29.0895 40.4335 29.3786 40.4335C29.6638 40.4335 29.9493 40.3285 30.1759 40.1215L38.5934 32.309C39.066 31.8676 39.0974 31.1253 38.6559 30.6526C38.4352 30.4163 38.1404 30.2897 37.8411 30.278Z" fill="black"/>
</svg>
