<svg width="6" height="9" viewBox="0 0 6 9" fill="none" xmlns="http://www.w3.org/2000/svg">
<path fill-rule="evenodd" clip-rule="evenodd" d="M0.967995 8.11618C0.857731 8.00157 0.797478 7.84788 0.800478 7.68887C0.803479 7.52986 0.869486 7.37855 0.983995 7.26818L4.13439 4.30018L0.983994 1.33218C0.924519 1.27823 0.876477 1.21289 0.842716 1.14004C0.808956 1.06718 0.790163 0.988287 0.787451 0.908034C0.78474 0.827781 0.798164 0.7478 0.82693 0.672831C0.855696 0.597861 0.899218 0.529429 0.954917 0.471588C1.01062 0.413747 1.07736 0.367675 1.15119 0.336102C1.22502 0.304528 1.30444 0.288095 1.38474 0.287778C1.46503 0.28746 1.54458 0.303264 1.61866 0.334252C1.69274 0.365241 1.75984 0.410783 1.81599 0.468182L5.41599 3.86818C5.47406 3.92415 5.52025 3.99125 5.5518 4.06548C5.58335 4.1397 5.59961 4.21953 5.59961 4.30018C5.59961 4.38083 5.58335 4.46066 5.5518 4.53488C5.52025 4.60911 5.47406 4.67621 5.41599 4.73218L1.816 8.13218C1.70139 8.24245 1.54769 8.3027 1.38868 8.2997C1.22967 8.2967 1.07836 8.23069 0.967995 8.11618Z" fill="black"/>
</svg>
