<svg width="41" height="22" viewBox="0 0 41 22" fill="none" xmlns="http://www.w3.org/2000/svg">
<g clip-path="url(#clip0_1_1885)">
<path d="M40.733 8.88123V14.2599H38.6682V10.4869H36.68V14.2599H34.6152V8.88086H40.733V8.88123Z" fill="#7F7F7F"/>
<path fill-rule="evenodd" clip-rule="evenodd" d="M30.3749 14.4536C32.2232 14.4536 33.5958 13.3994 33.5958 11.8013C33.5958 10.2545 32.5831 9.25021 30.8907 9.25021C30.1096 9.25021 29.4651 9.50596 28.9796 9.94725C29.0955 9.03516 29.9247 8.3693 30.8376 8.3693C31.0483 8.3693 32.6346 8.36618 32.6346 8.36618L33.5316 6.76953C33.5316 6.76953 31.5401 6.8117 30.6143 6.8117C28.4991 6.84598 27.0703 8.6344 27.0703 10.8065C27.0703 13.3371 28.4638 14.4536 30.3749 14.4536ZM30.3861 10.6644C31.0724 10.6644 31.5482 11.0839 31.5482 11.8011C31.5482 12.4466 31.1254 12.9785 30.3861 12.9799C29.6789 12.9799 29.2031 12.4871 29.2031 11.8121C29.2031 11.0947 29.6789 10.6644 30.3861 10.6644Z" fill="#7F7F7F"/>
<path d="M25.3901 12.4604C25.3901 12.4604 24.9025 12.7218 24.1742 12.7713C23.3369 12.7944 22.5909 12.3026 22.5909 11.4286C22.5909 10.5761 23.2492 10.0875 24.1531 10.0875C24.7073 10.0875 25.4405 10.4448 25.4405 10.4448C25.4405 10.4448 25.977 9.52909 26.255 9.07112C25.746 8.71234 25.0682 8.51562 24.2798 8.51562C22.2901 8.51562 20.749 9.72232 20.749 11.4178C20.749 13.1349 22.1975 14.3135 24.2798 14.278C24.8619 14.2578 25.6648 14.0677 26.1542 13.7753L25.3901 12.4604Z" fill="#7F7F7F"/>
<path d="M0 4.78906L2.86423 9.55115V12.4559L0.00335066 17.2086L0 4.78906Z" fill="#7F7F7F"/>
<path d="M10.9971 7.81807L13.681 6.28797L19.1737 6.2832L10.9971 10.9424V7.81807Z" fill="#7F7F7F"/>
<path d="M10.9827 4.76062L10.9979 11.0654L8.12695 9.42462V0L10.9827 4.76062Z" fill="#7F7F7F"/>
<path d="M19.1745 6.28302L13.6816 6.28778L10.9827 4.76062L8.12695 0L19.1745 6.28302Z" fill="#7F7F7F"/>
<path d="M10.9979 17.235V14.1761L8.12695 12.5664L8.12853 22.0004L10.9979 17.235Z" fill="#7F7F7F"/>
<path d="M13.6746 15.7188L2.86403 9.55115L0 4.78906L19.1624 15.7126L13.6746 15.7188Z" fill="#7F7F7F"/>
<path d="M8.12793 22.0007L10.9969 17.2353L13.6741 15.7191L19.1619 15.7129L8.12793 22.0007Z" fill="#7F7F7F"/>
<path d="M0.00390625 17.208L8.15055 12.566L5.41168 11.0029L2.86478 12.4553L0.00390625 17.208Z" fill="#7F7F7F"/>
</g>
<defs>
<clipPath id="clip0_1_1885">
<rect width="41" height="22" fill="white"/>
</clipPath>
</defs>
</svg>
