<svg width="40" height="50" viewBox="0 0 40 50" fill="none" xmlns="http://www.w3.org/2000/svg">
<path d="M19.2188 0.390625C16.4062 0.390625 14.1406 2.65625 14.1406 5.46875V13.2812C14.1406 14.8047 12.9297 16.0156 11.4062 16.0156H4.29718C3.47687 16.0156 2.8125 15.3513 2.8125 14.5309C2.8125 14.1013 3.00812 13.6722 3.32062 13.3987L10.625 7.14874C11.1328 6.71906 11.1722 5.97641 10.7425 5.50766C10.3128 4.99985 9.57016 4.96124 9.10141 5.39093L1.79703 11.6013C0.937653 12.3434 0.46875 13.3981 0.46875 14.5309C0.46875 16.6403 2.18781 18.3594 4.29718 18.3594H11.4062C14.2188 18.3594 16.4844 16.0938 16.4844 13.2812V5.46875C16.4844 3.94531 17.6953 2.73438 19.2188 2.73438H34.4531C35.9766 2.73438 37.1875 3.94531 37.1875 5.46875V44.5312C37.1875 46.0547 35.9766 47.2656 34.4531 47.2656H5.54688C4.02344 47.2656 2.8125 46.0547 2.8125 44.5312V23.0469C2.8125 22.3828 2.30469 21.875 1.64062 21.875C0.976562 21.875 0.46875 22.3828 0.46875 23.0469V44.5312C0.46875 47.3438 2.73438 49.6094 5.54688 49.6094H34.4531C37.2656 49.6094 39.5312 47.3438 39.5312 44.5312V5.46875C39.5312 2.65625 37.2656 0.390625 34.4531 0.390625H19.2188ZM9.45312 23.8281C8.78906 23.8281 8.28125 24.3359 8.28125 25C8.28125 25.6641 8.78906 26.1719 9.45312 26.1719H11.4062C12.0703 26.1719 12.5781 25.6641 12.5781 25C12.5781 24.3359 12.0703 23.8281 11.4062 23.8281H9.45312ZM17.2656 23.8281C16.6016 23.8281 16.0938 24.3359 16.0938 25C16.0938 25.6641 16.6016 26.1719 17.2656 26.1719H30.5469C31.2109 26.1719 31.7188 25.6641 31.7188 25C31.7188 24.3359 31.2109 23.8281 30.5469 23.8281H17.2656ZM9.45312 29.6875C8.78906 29.6875 8.28125 30.1953 8.28125 30.8594C8.28125 31.5234 8.78906 32.0312 9.45312 32.0312H11.4062C12.0703 32.0312 12.5781 31.5234 12.5781 30.8594C12.5781 30.1953 12.0703 29.6875 11.4062 29.6875H9.45312ZM17.2656 29.6875C16.6016 29.6875 16.0938 30.1953 16.0938 30.8594C16.0938 31.5234 16.6016 32.0312 17.2656 32.0312H30.5469C31.2109 32.0312 31.7188 31.5234 31.7188 30.8594C31.7188 30.1953 31.2109 29.6875 30.5469 29.6875H17.2656ZM9.45312 35.5469C8.78906 35.5469 8.28125 36.0547 8.28125 36.7188C8.28125 37.3828 8.78906 37.8906 9.45312 37.8906H11.4062C12.0703 37.8906 12.5781 37.3828 12.5781 36.7188C12.5781 36.0547 12.0703 35.5469 11.4062 35.5469H9.45312ZM17.2656 35.5469C16.6016 35.5469 16.0938 36.0547 16.0938 36.7188C16.0938 37.3828 16.6016 37.8906 17.2656 37.8906H30.5469C31.2109 37.8906 31.7188 37.3828 31.7188 36.7188C31.7188 36.0547 31.2109 35.5469 30.5469 35.5469H17.2656Z" fill="black"/>
</svg>
