<svg width="40" height="41" viewBox="0 0 40 41" fill="none" xmlns="http://www.w3.org/2000/svg">
<path d="M20 40.5C31.0457 40.5 40 31.5457 40 20.5C40 9.4543 31.0457 0.5 20 0.5C8.9543 0.5 0 9.4543 0 20.5C0 31.5457 8.9543 40.5 20 40.5Z" fill="url(#paint0_linear_8_603)"/>
<path d="M29.7344 12.0077L26.1641 30.0155C26.1641 30.0155 25.6641 31.2655 24.2891 30.664L16.0469 24.3437L13.0469 22.8984L8.00004 21.203C8.00004 21.203 7.2266 20.9296 7.14847 20.328C7.07035 19.7265 8.02347 19.4062 8.02347 19.4062L28.086 11.539C28.086 11.5312 29.7344 10.8046 29.7344 12.0077Z" fill="white"/>
<path d="M15.4062 29.8125C15.4062 29.8125 15.1641 29.7891 14.8672 28.8437C14.5703 27.8984 13.0469 22.8984 13.0469 22.8984L25.1641 15.2031C25.1641 15.2031 25.8672 14.7812 25.8359 15.2031C25.8359 15.2031 25.9609 15.2813 25.5859 15.625C25.2109 15.9766 16.0703 24.1953 16.0703 24.1953" fill="#D2E4F0"/>
<path d="M19.2031 26.7656L15.9453 29.7422C15.9453 29.7422 15.6875 29.9375 15.4141 29.8125L16.0391 24.2891" fill="#B5CFE4"/>
<defs>
<linearGradient id="paint0_linear_8_603" x1="20" y1="0.5" x2="20" y2="40.3541" gradientUnits="userSpaceOnUse">
<stop stop-color="#41BCE7"/>
<stop offset="1" stop-color="#22A6DC"/>
</linearGradient>
</defs>
</svg>
