<svg width="65" height="70" viewBox="0 0 65 70" fill="none" xmlns="http://www.w3.org/2000/svg">
<path fill-rule="evenodd" clip-rule="evenodd" d="M21.1406 22.3047V24.9023C22.7875 24.8271 25.4384 24.5577 26.0625 25.5859C26.8808 27.0055 26.4252 31.4826 25.7891 32.5586C22.3574 33.2371 18.4663 33.0508 15.3984 33.7891C15.3073 36.0221 15.2161 38.2552 15.125 40.4883H24.5586C24.6042 38.7565 24.6497 37.0247 24.6953 35.293C26.3223 34.221 37.4807 34.1216 39.3242 35.1562C39.6971 36.5252 39.6143 38.7021 39.5977 40.4883H45.75V30.0977C39.1127 30.2207 37.2896 27.3645 33.4453 25.0391C31.2988 24.3474 25.5607 25.8789 27.9766 22.4414L33.4453 22.3047L35.7695 20.1172C39.8447 17.6453 46.5452 15.4832 53.8164 17.2461L54.2266 17.9297C54.2721 19.3424 54.3177 20.7552 54.3633 22.168H56.6875C56.6343 20.233 56.5526 18.0056 57.2344 16.8359C58.7063 16.4539 61.2244 16.482 62.7031 16.8359L63.1133 17.5195V18.4766C62.3997 19.3849 61.1172 19.3665 59.4219 19.2969C59.4692 22.521 60.1472 28.1407 58.875 30.3711L57.6445 30.5078L56.8242 29.5508C56.7786 28.0013 56.7331 26.4518 56.6875 24.9023H54.3633V49.6484C54.3633 52.7629 55.0243 57.8862 53.8164 60.0391L14.4414 60.1758C12.1731 60.1758 2.71094 60.6123 2.13672 59.4922L2 10.957C2.33852 10.494 2.39648 10.268 2.95703 10H14.5781C14.9088 10.5347 14.9828 13.2181 15.5352 13.5547C18.1428 15.1438 23.6572 13.4413 26.1992 15.0586V21.4844L25.3789 22.168L21.1406 22.3047ZM4.73438 34.6094H12.5273V12.4609L4.73438 12.5977V34.6094ZM15.2617 16.1523V31.0547H15.3984L18.4062 30.3711C18.3607 25.8143 18.3151 21.257 18.2695 16.6992L15.2617 16.1523ZM21.1406 17.1094V19.5703H23.6016V17.1094H21.1406ZM43.2891 19.707V27.5H51.6289V19.707H43.2891ZM40.2812 20.6641C39.0139 21.8614 37.1293 22.1365 36.043 23.5352C36.8418 24.9949 39.0467 25.8152 40.5547 26.543C40.5997 25.1319 41.0268 21.48 40.2812 20.6641ZM21.1406 27.5V30.0977H23.6016V27.5H21.1406ZM48.4844 30.2344V40.4883H51.6289V30.2344H48.4844ZM4.73438 37.3438V40.4883H12.5273V37.3438H4.73438ZM27.1562 37.3438V40.4883H36.8633V37.3438H27.1562ZM4.73438 47.0508C7.11506 47.0234 10.0306 46.875 11.9805 47.3242L12.5273 48.2812C12.4818 48.4635 12.4362 48.6458 12.3906 48.8281C12.165 49.3278 12.064 49.4174 11.5703 49.6484L4.73438 49.7852L4.87109 57.5781H51.6289V53.6133C49.4768 53.7262 42.9019 54.4788 43.9727 51.8359L44.2461 51.2891C46.1771 50.7678 49.2488 50.9989 51.6289 51.0156V43.2227L4.73438 43.3594V47.0508ZM16.2188 47.0508L17.0391 47.1875C17.8562 47.7609 17.9232 48.3303 17.5859 49.375L16.6289 49.7852C15.491 49.683 15.099 49.2921 15.125 48.0078L16.2188 47.0508ZM21.2773 47.0508C21.8845 47.1997 22.0886 47.2508 22.3711 47.7344C23.1699 48.704 22.2437 49.4177 21.5508 49.7852L20.8672 49.6484L20.0469 48.8281C20.0888 47.833 20.325 47.7378 20.7305 47.1875L21.2773 47.0508ZM39.8711 51.0156L40.8281 51.1523L41.6484 51.6992L41.7852 52.3828L41.2383 53.4766L39.8711 53.6133L39.1875 53.2031C39.0964 52.793 39.0052 52.3828 38.9141 51.9727L39.8711 51.0156Z" fill="white"/>
</svg>
