<svg width="50" height="50" viewBox="0 0 50 50" fill="none" xmlns="http://www.w3.org/2000/svg">
<g clip-path="url(#clip0_6_59)">
<path d="M27.6949 4.56286e-06C28.4299 4.56286e-06 29.0874 0.457505 29.3349 1.1425L31.0999 6.035C31.7324 6.1925 32.2749 6.35 32.7349 6.515C33.2374 6.695 33.8849 6.9675 34.6849 7.34L38.7949 5.165C39.1304 4.98727 39.5145 4.92312 39.8895 4.98216C40.2645 5.04121 40.6103 5.22028 40.8749 5.4925L44.4899 9.23C44.9699 9.7275 45.1049 10.455 44.8349 11.09L42.9074 15.6075C43.2274 16.195 43.4824 16.6975 43.6774 17.1175C43.8874 17.575 44.1474 18.205 44.4574 19.0175L48.9499 20.9425C49.6249 21.23 50.0424 21.905 49.9974 22.6275L49.6674 27.815C49.6449 28.152 49.5239 28.475 49.3195 28.7439C49.115 29.0127 48.8362 29.2157 48.5174 29.3275L44.2624 30.84C44.1399 31.4275 44.0124 31.93 43.8774 32.355C43.6597 33.0114 43.4111 33.6571 43.1324 34.29L45.2699 39.015C45.4208 39.347 45.4614 39.7186 45.3858 40.0753C45.3103 40.432 45.1225 40.7552 44.8499 40.9975L40.7849 44.6275C40.5172 44.8656 40.1832 45.0161 39.8275 45.059C39.4718 45.1019 39.1116 45.0351 38.7949 44.8675L34.6049 42.6475C33.9494 42.9946 33.2731 43.301 32.5799 43.565L30.7499 44.25L29.1249 48.75C29.0045 49.0795 28.7873 49.365 28.5018 49.5689C28.2162 49.7728 27.8757 49.8856 27.5249 49.8925L22.7749 50C22.4148 50.0094 22.0607 49.9071 21.7612 49.7069C21.4617 49.5068 21.2315 49.2188 21.1024 48.8825L19.1874 43.815C18.5341 43.5917 17.8871 43.3499 17.2474 43.09C16.7242 42.8635 16.2089 42.6192 15.7024 42.3575L10.9524 44.3875C10.6395 44.521 10.2944 44.5607 9.9593 44.5017C9.62418 44.4426 9.31346 44.2874 9.06494 44.055L5.54994 40.7575C5.28824 40.5131 5.11002 40.1925 5.04048 39.8412C4.97094 39.49 5.01361 39.1257 5.16244 38.8L7.20494 34.35C6.9333 33.8229 6.68146 33.2859 6.44994 32.74C6.1797 32.0718 5.92958 31.3957 5.69994 30.7125L1.22494 29.35C0.861194 29.2401 0.543928 29.0131 0.322417 28.7043C0.100905 28.3956 -0.0124548 28.0223 -5.78897e-05 27.6425L0.174942 22.84C0.187399 22.5267 0.285284 22.2227 0.458012 21.9609C0.63074 21.6992 0.871738 21.4897 1.15494 21.355L5.84994 19.1C6.06744 18.3025 6.25744 17.6825 6.42494 17.23C6.66079 16.6256 6.92271 16.0317 7.20994 15.45L5.17494 11.15C5.02051 10.8235 4.97361 10.4564 5.04099 10.1015C5.10837 9.74659 5.28657 9.42222 5.54994 9.175L9.05994 5.86C9.306 5.62794 9.61387 5.47191 9.94651 5.41071C10.2792 5.3495 10.6224 5.38572 10.9349 5.515L15.6799 7.475C16.2049 7.125 16.6799 6.8425 17.1099 6.615C17.6224 6.3425 18.3074 6.0575 19.1699 5.75L20.8199 1.1475C20.9419 0.810676 21.1649 0.519708 21.4584 0.314332C21.7519 0.108957 22.1017 -0.000815627 22.4599 4.56286e-06H27.6949ZM26.4699 3.4425H23.6874L22.1749 7.6775C22.086 7.92445 21.9421 8.14795 21.7542 8.33115C21.5662 8.51434 21.3391 8.65244 21.0899 8.735C19.9999 9.0975 19.2124 9.41 18.7524 9.6525C18.2649 9.91 17.6424 10.3025 16.9024 10.8275C16.6602 10.9975 16.379 11.1036 16.0849 11.1359C15.7908 11.1682 15.4933 11.1258 15.2199 11.0125L10.6449 9.125L8.86244 10.81L10.7199 14.735C10.8311 14.9685 10.8876 15.2243 10.885 15.483C10.8824 15.7416 10.8208 15.9963 10.7049 16.2275C10.2049 17.23 9.86744 17.97 9.69744 18.425C9.43675 19.1824 9.2115 19.9516 9.02244 20.73C8.95963 20.9736 8.84429 21.2006 8.6845 21.3949C8.52471 21.5893 8.32434 21.7463 8.09744 21.855L3.62244 24.0025L3.53244 26.4525L7.58244 27.6825C8.11994 27.845 8.54494 28.2575 8.72244 28.7875C9.12244 29.9875 9.44244 30.8725 9.67244 31.4275C9.9772 32.1318 10.3142 32.8217 10.6824 33.495C10.807 33.7266 10.8761 33.984 10.8844 34.2469C10.8926 34.5098 10.8398 34.771 10.7299 35.01L8.85244 39.105L10.6299 40.775L15.0849 38.87C15.3249 38.7675 15.5847 38.7196 15.8455 38.73C16.1062 38.7404 16.3614 38.8087 16.5924 38.93C17.5049 39.41 18.1849 39.7425 18.6149 39.925C19.0524 40.1075 19.8899 40.4125 21.1049 40.8275C21.3461 40.9099 21.5662 41.0444 21.7494 41.2216C21.9327 41.3988 22.0745 41.6142 22.1649 41.8525L23.9349 46.53L26.2499 46.48L27.7424 42.345C27.8278 42.109 27.9635 41.8945 28.14 41.7162C28.3166 41.5379 28.5298 41.4002 28.7649 41.3125L31.3574 40.3425C32.0124 40.1 32.8074 39.7175 33.7349 39.1925C33.9916 39.0483 34.2805 38.9709 34.5749 38.9674C34.8693 38.9639 35.1599 39.0344 35.4199 39.1725L39.3624 41.26L41.5799 39.2825L39.6399 35C39.5403 34.7802 39.4886 34.5416 39.4881 34.3003C39.4877 34.0589 39.5386 33.8202 39.6374 33.6C40.0924 32.5825 40.3999 31.815 40.5549 31.325C40.7074 30.845 40.8649 30.1525 41.0174 29.2625C41.0699 28.9602 41.202 28.6773 41.4002 28.4431C41.5984 28.2089 41.8555 28.0318 42.1449 27.93L46.2649 26.4675L46.4449 23.6175L42.3949 21.8825C42.1793 21.7907 41.9846 21.6561 41.8226 21.4868C41.6606 21.3174 41.5346 21.117 41.4524 20.8975C41.1636 20.1006 40.8484 19.3135 40.5074 18.5375C40.1846 17.8618 39.8343 17.1996 39.4574 16.5525C39.3269 16.3239 39.251 16.0681 39.2358 15.8053C39.2207 15.5424 39.2666 15.2796 39.3699 15.0375L41.1824 10.7875L39.2724 8.8125L35.5524 10.7825C35.3096 10.9113 35.0399 10.9813 34.7651 10.987C34.4902 10.9926 34.2179 10.9337 33.9699 10.815C33.1803 10.4224 32.3728 10.067 31.5499 9.75C30.8483 9.51438 30.1328 9.32235 29.4074 9.175C29.1196 9.11398 28.8521 8.98078 28.6299 8.78792C28.4078 8.59506 28.2383 8.34887 28.1374 8.0725L26.4674 3.44L26.4699 3.4425ZM25.0599 14.1025C31.1474 14.1025 36.0849 18.985 36.0849 25.005C36.0849 31.025 31.1474 35.905 25.0599 35.905C18.9699 35.905 14.0349 31.025 14.0349 25.005C14.0349 18.985 18.9699 14.105 25.0599 14.105V14.1025ZM25.0599 17.5475C20.8924 17.5475 17.5149 20.885 17.5149 25.005C17.5149 29.125 20.8924 32.465 25.0599 32.465C29.2249 32.465 32.6024 29.125 32.6024 25.005C32.6024 20.885 29.2274 17.5475 25.0599 17.5475Z" fill="white"/>
</g>
<defs>
<clipPath id="clip0_6_59">
<rect width="50" height="50" fill="white"/>
</clipPath>
</defs>
</svg>
