<svg width="50" height="42" viewBox="0 0 50 42" fill="none" xmlns="http://www.w3.org/2000/svg">
<path fill-rule="evenodd" clip-rule="evenodd" d="M1.56252 0C0.699576 0 2.1254e-05 0.699555 2.1254e-05 1.5625C2.1254e-05 2.42544 0.699576 3.125 1.56252 3.125H18.75V8.43748H10.9375C10.3309 8.43748 9.80501 8.78318 9.54612 9.28831C9.47402 9.39035 9.41309 9.50275 9.36572 9.62443L6.2487 17.633C6.22544 17.6927 6.20611 17.753 6.19059 17.8136C5.35519 17.8449 4.68754 18.532 4.68754 19.375C4.68754 19.4683 4.69571 19.5596 4.71137 19.6484C4.6957 19.7372 4.68752 19.8286 4.68752 19.9219L4.68752 24.6094C4.68752 24.7584 4.70838 24.9026 4.74736 25.0391C4.7084 25.1756 4.68754 25.3197 4.68754 25.4687C4.68754 26.3317 5.3871 27.0312 6.25004 27.0312H43.75C44.613 27.0312 45.3125 26.3317 45.3125 25.4687C45.3125 25.3197 45.2917 25.1756 45.2527 25.0391C45.2917 24.9026 45.3126 24.7584 45.3126 24.6094V19.9219C45.3126 19.8286 45.3044 19.7372 45.2887 19.6484C45.3044 19.5596 45.3125 19.4683 45.3125 19.375C45.3125 18.5121 44.613 17.8125 43.75 17.8125H43.6088C43.6 17.7822 43.5903 17.752 43.5796 17.7219L40.7045 9.62341C40.5968 9.31985 40.4047 9.07035 40.1641 8.89187C39.8816 8.61103 39.4923 8.43748 39.0625 8.43748H31.25V3.125H48.4375C49.3005 3.125 50 2.42544 50 1.5625C50 0.699555 49.3005 0 48.4375 0H1.56252ZM7.81252 23.9062H42.1876V20.9375H7.81252L7.81252 23.9062ZM28.125 3.125H21.875V8.43748H28.125V3.125ZM38.0768 11.5625L40.2957 17.8125H9.53217L11.9648 11.5625H38.0768ZM1.56252 32.0313C0.699576 32.0313 2.1254e-05 32.7308 2.1254e-05 33.5938C2.1254e-05 33.6599 0.00412734 33.725 0.0120984 33.789C0.00411352 33.853 2.07789e-07 33.9182 2.04896e-07 33.9844L0 38.6719C-9.05857e-09 38.8791 0.0403407 39.0769 0.113597 39.2578C0.0403542 39.4388 2.1254e-05 39.6366 2.1254e-05 39.8438C2.1254e-05 40.7067 0.699576 41.4063 1.56252 41.4063H48.4375C49.3005 41.4063 50 40.7067 50 39.8438C50 39.6365 49.9597 39.4387 49.8864 39.2578C49.9597 39.0768 50 38.8791 50 38.6719V33.9844C50 33.9183 49.9959 33.8531 49.9879 33.7892C49.9959 33.7252 50 33.6599 50 33.5938C50 32.7308 49.3005 32.0313 48.4375 32.0313H1.56252ZM46.875 35.1563H3.125L3.125 38.2813H46.875V35.1563Z" fill="white"/>
</svg>
