<svg width="20" height="20" viewBox="0 0 20 20" fill="none" xmlns="http://www.w3.org/2000/svg">
<path fill-rule="evenodd" clip-rule="evenodd" d="M16.7452 3.25482C16.0701 2.57992 15.1546 2.20079 14.2 2.20079C13.2454 2.20079 12.3299 2.57992 11.6548 3.25482L3.2548 11.6548C2.59887 12.3336 2.23579 13.2429 2.24377 14.1868C2.25175 15.1307 2.63014 16.0338 3.29746 16.7014C3.96477 17.369 4.86761 17.7478 5.81151 17.7563C6.75542 17.7647 7.66487 17.402 8.344 16.7464H8.3452L8.9416 16.1464C9.11078 15.9818 9.33785 15.8903 9.57388 15.8915C9.80991 15.8928 10.036 15.9867 10.2035 16.153C10.3709 16.3194 10.4663 16.5448 10.4691 16.7809C10.4719 17.0169 10.3819 17.2446 10.2184 17.4148L9.6208 18.016L9.6184 18.0184C8.60569 19.0311 7.23217 19.6 5.8 19.6C4.36782 19.6 2.9943 19.0311 1.9816 18.0184C0.968894 17.0057 0.399963 15.6322 0.399963 14.2C0.399963 12.7678 0.968894 11.3943 1.9816 10.3816L10.3816 1.98162C11.3937 0.968278 12.7668 0.398484 14.199 0.397584C15.6312 0.396684 17.0051 0.964751 18.0184 1.97682C19.0317 2.98888 19.6015 4.36205 19.6024 5.79422C19.6033 7.2264 19.0353 8.60028 18.0232 9.61362L13.8772 13.8772C13.5877 14.1825 13.24 14.4267 12.8546 14.5954C12.4692 14.7641 12.0539 14.8539 11.6333 14.8595C11.2126 14.8651 10.7951 14.7864 10.4053 14.628C10.0156 14.4696 9.66151 14.2347 9.36403 13.9372C9.06654 13.6397 8.83166 13.2856 8.67325 12.8959C8.51484 12.5061 8.4361 12.0886 8.44169 11.6679C8.44728 11.2473 8.53708 10.832 8.7058 10.4466C8.87451 10.0612 9.11871 9.71349 9.424 9.42402L13.564 5.28282C13.647 5.19682 13.7463 5.12821 13.856 5.08099C13.9658 5.03377 14.0839 5.00889 14.2034 5.00779C14.3229 5.0067 14.4414 5.02942 14.5521 5.07462C14.6627 5.11982 14.7632 5.1866 14.8477 5.27106C14.9323 5.35552 14.9992 5.45598 15.0445 5.56656C15.0898 5.67715 15.1126 5.79565 15.1116 5.91515C15.1106 6.03465 15.0859 6.15276 15.0387 6.26259C14.9916 6.37241 14.9231 6.47175 14.8372 6.55482L10.6972 10.696C10.5715 10.8211 10.4717 10.9696 10.4034 11.1333C10.3352 11.2969 10.2998 11.4723 10.2994 11.6496C10.2989 11.8269 10.3334 12.0025 10.4009 12.1665C10.4683 12.3305 10.5674 12.4795 10.6924 12.6052C10.8174 12.7309 10.966 12.8307 11.1296 12.899C11.2933 12.9672 11.4687 13.0026 11.646 13.003C11.8233 13.0035 11.9989 12.969 12.1629 12.9016C12.3268 12.8341 12.4759 12.7351 12.6016 12.61L16.7464 8.34642C17.4213 7.67132 17.8004 6.75581 17.8004 5.80122C17.8004 4.84663 17.4213 3.93112 16.7464 3.25602L16.7452 3.25482Z" fill="white"/>
</svg>
