<svg width="52" height="25" viewBox="0 0 52 25" fill="none" xmlns="http://www.w3.org/2000/svg">
<path d="M37.8217 24.712L51.2374 24.712C51.2325 23.037 51.0787 21.3658 50.778 19.718C50.6981 19.2992 50.509 19.1508 50.0762 19.1508C48.4568 19.1647 46.972 18.6241 45.6343 17.7332C43.8726 16.5458 42.6144 14.7468 42.1032 12.6847C41.5921 10.6226 41.8645 8.44414 42.8677 6.57141C43.0441 6.23382 43.0162 6.01808 42.7192 5.78837C42.072 5.28961 41.4641 4.74897 40.8029 4.26544C38.7357 2.76105 36.4455 1.58984 34.0157 0.794447C33.5829 0.645961 33.4484 0.822367 33.2542 1.11934C31.7694 3.37326 29.6779 4.74897 27.0191 5.03325C23.6446 5.38352 20.9185 4.11569 18.921 1.35285C18.3803 0.624386 18.3803 0.597735 17.525 0.921356C14.6911 1.9874 12.0678 3.43164 9.75171 5.40256C8.98263 6.06376 8.98263 6.0498 9.3329 6.96863L9.49535 7.37348C10.7771 10.3292 10.0893 14.1759 7.83536 16.4971C6.22868 18.1469 4.29837 19.1152 1.96322 19.1622C1.51776 19.1761 1.28933 19.3373 1.23476 19.7828C1.20113 20.1456 1.14689 20.5061 1.07231 20.8628C0.868442 22.1396 0.764907 23.4304 0.762648 24.7234L14.2025 24.7234C14.1863 23.1622 14.4798 21.6133 15.066 20.1663C15.6522 18.7193 16.5196 17.4029 17.6178 16.2932C18.716 15.1836 20.0234 14.3026 21.4642 13.7014C22.9051 13.1002 24.4508 12.7907 26.0121 12.7907C27.5733 12.7907 29.1191 13.1002 30.56 13.7014C32.0008 14.3026 33.3082 15.1836 34.4064 16.2932C35.5046 17.4029 36.3719 18.7193 36.9582 20.1663C37.5444 21.6133 37.8379 23.1622 37.8217 24.7234L37.8217 24.712Z" fill="#DFDFDF"/>
</svg>
