<svg width="40" height="50" viewBox="0 0 40 50" fill="none" xmlns="http://www.w3.org/2000/svg">
<path d="M7.99765 0.2781C7.78671 0.404663 7.57578 0.6156 7.44921 0.889819C7.23828 1.31169 7.21718 1.41716 7.21718 4.28591V7.23904L4.17968 7.26013C1.31093 7.28123 1.0789 7.28123 0.783588 7.47107C0.614838 7.57654 0.382807 7.82966 0.277338 7.99841C0.108588 8.33591 0.0874939 9.03201 0.0874939 28.607V48.8781L0.319526 49.2156C0.446088 49.4054 0.699213 49.6164 0.867963 49.7218C1.18437 49.8906 2.13359 49.8906 16.4352 49.8906C31.1164 49.8906 31.6859 49.8906 32.0023 49.7008C32.1922 49.5953 32.4242 49.3633 32.5297 49.1945C32.7195 48.8781 32.7195 48.6672 32.7617 45.8195L32.7828 42.782L35.8203 42.7609C38.668 42.7398 38.8789 42.7187 39.1953 42.5289C39.3641 42.4234 39.5961 42.1703 39.7016 42.0015C39.8703 41.664 39.8914 40.9679 39.8914 21.4562C39.8914 2.40857 39.8914 1.22732 39.7226 0.910913C39.6383 0.721069 39.4273 0.489038 39.2797 0.383569L39.0055 0.172631L23.6703 0.10935C8.96796 0.0882563 8.31406 0.10935 7.99765 0.2781ZM37.0859 21.4351V39.9343H34.9344H32.7828L32.7617 24.0718C32.7406 8.23044 32.7406 8.20935 32.5297 7.93513C32.4242 7.78748 32.2133 7.57654 32.0656 7.47107C31.8125 7.26013 31.7281 7.26013 20.907 7.23904L10.0226 7.21794V5.06638V2.93591H23.5437H37.0859V21.4351ZM29.9562 28.5648V47.064H16.4352H2.91406V28.5648V10.0656H16.4352H29.9562V28.5648Z" fill="white"/>
<path d="M6.22577 19.1359C5.27655 19.6844 5.27655 21.0133 6.22577 21.5617C6.60546 21.7727 6.62655 21.7727 16.1187 21.7727C26.4547 21.7727 26.0117 21.7937 26.518 21.2453C26.7289 21.0344 26.7711 20.8867 26.7711 20.3594C26.7711 19.832 26.7289 19.7055 26.518 19.4734C26.0117 18.925 26.4336 18.9461 16.0976 18.9461C6.62655 18.9461 6.58436 18.9461 6.22577 19.1359Z" fill="white"/>
<path d="M6.16248 27.6367C5.46639 28.0586 5.29764 29.0922 5.84607 29.725C6.05701 29.9781 6.26795 30.1047 6.64764 30.168C7.00623 30.2523 9.85389 30.2734 16.4773 30.2523C25.2312 30.2312 25.8219 30.2102 26.1172 30.0414C27.0453 29.5352 27.0453 28.0586 26.1383 27.5734C25.864 27.4469 24.7039 27.4258 16.1609 27.4258C6.73201 27.4258 6.45779 27.4469 6.16248 27.6367Z" fill="white"/>
<path d="M6.37343 35.9687C5.97264 36.1375 5.65624 36.4961 5.55077 36.8969C5.33983 37.5929 5.86718 38.4789 6.56327 38.6054C6.73202 38.6265 11.1828 38.6476 16.4773 38.6265L26.075 38.6054L26.4758 38.2047C26.8133 37.8461 26.8555 37.7406 26.8555 37.3187C26.8555 36.7281 26.5601 36.264 26.075 36.0109C25.7586 35.8422 25.0836 35.8422 16.2242 35.8422C8.4828 35.8422 6.60546 35.8633 6.37343 35.9687Z" fill="white"/>
</svg>
