<svg width="64" height="27" viewBox="0 0 64 27" fill="none" xmlns="http://www.w3.org/2000/svg">
<path fill-rule="evenodd" clip-rule="evenodd" d="M46.0353 5.81362C42.3129 2.09122 37.2643 0 32 0C26.7357 0 21.6871 2.09122 17.9647 5.81362C14.96 8.8183 13.0181 12.6871 12.381 16.8359H0V19.9579H14.8293V19.8489H15.273C15.273 15.4127 17.0353 11.1581 20.1722 8.02117C23.3092 4.88425 27.5637 3.12195 32 3.12195C36.4363 3.12195 40.6908 4.88425 43.8278 8.02117C46.9647 11.1581 48.727 15.4127 48.727 19.8489H49.1707V19.9579H64V16.8359H51.619C50.9819 12.6871 49.04 8.8183 46.0353 5.81362ZM0 27H64V24H0V27Z" fill="white"/>
</svg>
