<svg width="53" height="37" viewBox="0 0 53 37" fill="none" xmlns="http://www.w3.org/2000/svg">
<g clip-path="url(#clip0_1_166)">
<path d="M52.6648 21.084C52.6594 19.7594 52.1685 18.4826 51.2848 17.4962L43.3359 8.4985C43.1388 8.24282 42.8303 8.09882 42.5077 8.1123H32.6821C32.0726 8.1123 31.5782 8.60631 31.5782 9.2162V18.3795H11.0438C10.1655 18.3795 9.32302 18.7284 8.70192 19.3494C8.08084 19.9705 7.732 20.813 7.732 21.6913V28.3707C7.73123 29.2301 8.06506 30.0564 8.66265 30.6744C9.25985 31.2924 10.0742 31.6539 10.9332 31.6825C11.274 33.3594 12.3726 34.7832 13.9081 35.5379C15.4437 36.2926 17.2422 36.2926 18.7778 35.5379C20.3133 34.7832 21.4123 33.3593 21.7526 31.6825H38.2022C38.543 33.3594 39.6416 34.7832 41.1771 35.5379C42.7127 36.2926 44.5112 36.2926 46.0468 35.5379C47.5823 34.7832 48.6813 33.3593 49.0216 31.6825H49.4633C50.3512 31.6617 51.1986 31.3067 51.8367 30.6891C52.4393 30.0453 52.7747 29.197 52.775 28.3153L52.6648 21.084ZM16.3432 34.0008C15.4826 33.9866 14.6629 33.6319 14.0633 33.0147C13.4635 32.3979 13.1319 31.5685 13.1415 30.7079C13.1516 29.8473 13.5012 29.0257 14.1149 28.4222C14.7283 27.8193 15.5558 27.4831 16.4164 27.4877C17.277 27.4927 18.1006 27.8378 18.7074 28.448C19.3142 29.058 19.655 29.8834 19.655 30.7441C19.6554 31.6177 19.3046 32.4545 18.682 33.0666C18.059 33.6792 17.2165 34.0158 16.3432 34.0008ZM43.612 34.0008C42.748 34.0008 41.9197 33.6577 41.3091 33.047C40.698 32.4364 40.3549 31.6077 40.3549 30.7441C40.3549 29.8805 40.698 29.0522 41.3091 28.4412C41.9198 27.8305 42.748 27.4874 43.612 27.4874C44.4757 27.4874 45.3039 27.8305 45.9145 28.4412C46.5256 29.0523 46.8687 29.8805 46.8687 30.7441C46.8837 31.6124 46.5456 32.4499 45.9315 33.0636C45.3173 33.6778 44.4802 34.0162 43.612 34.0008ZM50.2359 29.1435C50.0261 29.3422 49.7519 29.4596 49.4631 29.4746H48.9664C48.6703 28.2779 47.9822 27.2144 47.0119 26.4543C46.0416 25.6938 44.8446 25.2803 43.612 25.2795C42.3833 25.273 41.1897 25.685 40.2263 26.4474C39.2633 27.2102 38.5883 28.2775 38.3126 29.4746H21.6974C21.4013 28.2779 20.7136 27.2144 19.7429 26.4543C18.7726 25.6938 17.5756 25.2803 16.343 25.2795C15.1147 25.273 13.9207 25.685 12.9577 26.4474C11.9943 27.2102 11.3193 28.2775 11.0436 29.4746C10.446 29.4469 9.96742 28.9683 9.93972 28.3707V21.6913C9.93972 21.0818 10.4341 20.5874 11.0436 20.5874H32.682C32.975 20.5874 33.2557 20.4711 33.4629 20.264C33.6697 20.0568 33.7863 19.7761 33.7863 19.4835V10.3202H42.0109L49.6286 18.9868C50.1719 19.5705 50.4688 20.3418 50.4565 21.1396L50.567 28.3157V28.3153C50.5778 28.6257 50.4577 28.9263 50.2359 29.1435Z" fill="#E6C282"/>
<path d="M41.128 12.804C40.9378 12.5406 40.6244 12.3943 40.3002 12.4178H36.933C36.3234 12.4178 35.8291 12.9118 35.8291 13.5217V19.4833C35.8291 19.7759 35.9454 20.0566 36.1525 20.2638C36.3593 20.4709 36.6404 20.5872 36.933 20.5872H45.3786C45.811 20.5799 46.1995 20.3212 46.3724 19.9249C46.5434 19.5384 46.479 19.0886 46.2068 18.7655L41.128 12.804ZM38.0369 18.3794V14.6256H39.8035L43.0051 18.379L38.0369 18.3794Z" fill="#E6C282"/>
<path d="M27.9904 16.5024C28.283 16.5024 28.5637 16.3861 28.7709 16.1794C28.978 15.9722 29.0943 15.6915 29.0943 15.3985V2.09528C29.0943 1.80264 28.978 1.52195 28.7709 1.31479C28.5637 1.10763 28.283 0.991356 27.9904 0.991356H12.424C11.8145 0.991356 11.3201 1.48575 11.3201 2.09526V15.3985C11.3201 15.6915 11.4364 15.9722 11.6435 16.1793C11.8503 16.3861 12.1314 16.5024 12.424 16.5024L27.9904 16.5024ZM19.0477 3.1992H21.3661V4.9103H19.0477V3.1992ZM13.5277 3.1992H16.8399V6.0143C16.8399 6.30694 16.9562 6.58802 17.1633 6.79479C17.3701 7.00195 17.6512 7.11822 17.9438 7.11822H22.4704C22.7677 7.13439 23.058 7.02311 23.2686 6.81249C23.4792 6.60187 23.5905 6.31155 23.5743 6.01429V3.19919H26.8865V14.2944H13.5281L13.5277 3.1992Z" fill="#E6C282"/>
<path d="M2.26722 3.7512C2.26722 4.04422 2.38351 4.32491 2.59065 4.53207C2.79743 4.73885 3.0785 4.85512 3.37114 4.85512H7.73214C8.02478 4.85512 8.30547 4.73884 8.51263 4.53207C8.71979 4.32491 8.83606 4.04422 8.83606 3.7512C8.85223 3.45395 8.74096 3.16362 8.53033 2.953C8.31971 2.74237 8.02939 2.6311 7.73213 2.64727H3.37113C3.07388 2.6311 2.78356 2.74237 2.57293 2.953C2.3623 3.16362 2.25106 3.45394 2.26722 3.7512Z" fill="#E6C282"/>
<path d="M1.32891 9.9888H7.73221C8.34173 9.9888 8.83611 9.4944 8.83611 8.8849C8.83611 8.27499 8.34171 7.7806 7.73221 7.7806H1.32891C0.718997 7.7806 0.225006 8.275 0.225006 8.8849C0.225006 9.49442 0.719016 9.9888 1.32891 9.9888Z" fill="#E6C282"/>
<path d="M8.836 14.0736C8.836 13.781 8.71972 13.5003 8.51257 13.2931C8.30541 13.086 8.02472 12.9697 7.73208 12.9697H3.37108C2.76156 12.9697 2.26718 13.4641 2.26718 14.0736C2.26718 14.6835 2.76158 15.1779 3.37108 15.1779H7.73208C8.02472 15.1779 8.30541 15.0616 8.51257 14.8544C8.71973 14.6473 8.836 14.3666 8.836 14.0736Z" fill="#E6C282"/>
</g>
<defs>
<clipPath id="clip0_1_166">
<rect width="53" height="37" fill="white"/>
</clipPath>
</defs>
</svg>
