<svg width="43" height="44" viewBox="0 0 43 44" fill="none" xmlns="http://www.w3.org/2000/svg">
<g clip-path="url(#clip0_1_164)">
<path d="M21.4991 0.126884C20.7692 0.126884 20.3323 0.394423 19.8494 0.660552C19.3664 0.926681 18.8894 1.25493 18.4241 1.57469C17.9587 1.89448 17.5064 2.20684 17.1369 2.44438C16.7674 2.68192 16.4232 2.82875 16.4662 2.81746C16.5091 2.80581 16.1403 2.84817 15.7017 2.82734C15.2631 2.80616 14.7182 2.75746 14.1555 2.71369C13.593 2.66957 13.0198 2.6378 12.4689 2.64945C11.9179 2.6611 11.4046 2.64698 10.7724 3.01264C10.1401 3.3783 9.89378 3.83009 9.60846 4.30231C9.32311 4.77457 9.06772 5.29416 8.8243 5.8045C8.58088 6.31487 8.34485 6.81433 8.1437 7.20539C7.94255 7.59646 7.72026 7.89155 7.75161 7.86013C7.78296 7.82872 7.49093 8.05144 7.1006 8.25298C6.71028 8.45452 6.21181 8.68853 5.70242 8.93242C5.19338 9.17631 4.67199 9.4322 4.2007 9.7181C3.72935 10.004 3.28093 10.2507 2.91596 10.8842C2.551 11.5178 2.55523 12.0321 2.54361 12.584C2.53198 13.1361 2.5739 13.7104 2.61758 14.274C2.66162 14.8377 2.70777 15.3862 2.72855 15.8256C2.74899 16.265 2.70706 16.6346 2.71869 16.5915C2.73031 16.5485 2.58342 16.8933 2.34634 17.2636C2.10926 17.6338 1.79009 18.0845 1.47094 18.5508C1.15177 19.0171 0.83156 19.4975 0.565955 19.9813C0.300341 20.4652 0.0357819 20.9029 0.0357819 21.6342C0.0357819 22.3656 0.300341 22.8107 0.565955 23.2945C0.831569 23.7785 1.15179 24.2588 1.47094 24.7251C1.7901 25.1913 2.10926 25.642 2.34634 26.0123C2.58342 26.3826 2.73031 26.72 2.71869 26.6769C2.70706 26.6339 2.74899 27.0009 2.72855 27.4404C2.70812 27.8798 2.66127 28.4382 2.61758 29.0018C2.57355 29.5655 2.53198 30.1398 2.54361 30.6918C2.55523 31.2438 2.55065 31.7581 2.91596 32.3916C3.28092 33.0251 3.72936 33.2719 4.2007 33.5577C4.67205 33.8436 5.19343 34.0995 5.70242 34.3434C6.21141 34.5873 6.71029 34.8213 7.1006 35.0229C7.49091 35.2244 7.78296 35.4471 7.75161 35.4157C7.72026 35.3843 7.94255 35.6794 8.1437 36.0704C8.34485 36.4615 8.58088 36.9609 8.8243 37.4713C9.06772 37.9817 9.32311 38.5012 9.60846 38.9735C9.8938 39.4458 10.14 39.8976 10.7724 40.2632C11.4047 40.6288 11.9179 40.6147 12.4689 40.6264C13.0198 40.638 13.593 40.6059 14.1555 40.5621C14.7181 40.518 15.2631 40.4619 15.7017 40.4411C16.1403 40.4199 16.5091 40.4697 16.4662 40.4584C16.4232 40.4467 16.7674 40.5936 17.1369 40.8315C17.5064 41.069 17.9587 41.3814 18.4241 41.7011C18.8894 42.0209 19.3664 42.3492 19.8494 42.6153C20.3324 42.8814 20.7692 43.1391 21.4991 43.1391C22.229 43.1391 22.6757 42.8814 23.1586 42.6153C23.6416 42.3492 24.1186 42.0209 24.584 41.7011C25.0493 41.3814 25.5017 41.069 25.8711 40.8315C26.2406 40.5939 26.575 40.4471 26.532 40.4584C26.489 40.47 26.8579 40.4203 27.2964 40.4411C27.735 40.4623 28.28 40.5184 28.8426 40.5621C29.4052 40.6063 29.9882 40.6377 30.5391 40.6264C31.0901 40.6147 31.6034 40.6288 32.2356 40.2632C32.8679 39.8975 33.1167 39.4457 33.4021 38.9735C33.6874 38.5013 33.9403 37.9817 34.1838 37.4713C34.4272 36.9613 34.6533 36.4615 34.8545 36.0704C35.0557 35.6794 35.2779 35.3843 35.2466 35.4157C35.2152 35.4471 35.5171 35.2244 35.9075 35.0229C36.2978 34.8213 36.7966 34.5873 37.3056 34.3434C37.8147 34.0995 38.3361 33.8436 38.8074 33.5577C39.2787 33.2718 39.7271 33.0251 40.0921 32.3916C40.4571 31.758 40.4454 31.2438 40.4571 30.6918C40.4687 30.1398 40.4243 29.5655 40.3806 29.0018C40.3366 28.4382 40.2904 27.8798 40.2696 27.4404C40.2485 27.0009 40.2911 26.6339 40.2795 26.6769C40.2679 26.72 40.4144 26.3826 40.6519 26.0123C40.8889 25.642 41.2081 25.1913 41.5273 24.7251C41.8464 24.2588 42.1666 23.7784 42.4322 23.2945C42.6978 22.8107 42.9649 22.3656 42.9649 21.6342C42.9649 20.9029 42.6979 20.4652 42.4322 19.9813C42.1666 19.4975 41.8464 19.017 41.5273 18.5508C41.2081 18.0845 40.8889 17.6338 40.6519 17.2636C40.4148 16.8933 40.2679 16.5485 40.2795 16.5915C40.2911 16.6346 40.2492 16.265 40.2696 15.8256C40.2908 15.3862 40.3369 14.8376 40.3806 14.274C40.4246 13.7103 40.4687 13.136 40.4571 12.584C40.4454 12.032 40.4571 11.5177 40.0921 10.8842C39.7271 10.2507 39.2787 10.004 38.8074 9.7181C38.336 9.4322 37.815 9.17631 37.3056 8.93242C36.7966 8.68853 36.2978 8.45451 35.9075 8.25298C35.5171 8.05144 35.2152 7.82872 35.2466 7.86013C35.2779 7.89155 35.0557 7.59647 34.8545 7.20539C34.6533 6.81432 34.4272 6.31488 34.1838 5.8045C33.9403 5.29412 33.6874 4.77461 33.4021 4.30231C33.1167 3.83005 32.868 3.37823 32.2356 3.01264C31.6033 2.64706 31.0901 2.66075 30.5391 2.64945C29.9882 2.6378 29.4052 2.66992 28.8426 2.71369C28.28 2.75781 27.7351 2.80651 27.2964 2.82734C26.8579 2.84852 26.489 2.80581 26.532 2.81746C26.575 2.82911 26.2407 2.68228 25.8711 2.44438C25.5016 2.20684 25.0493 1.89448 24.584 1.57469C24.1186 1.25491 23.6417 0.926663 23.1586 0.660552C22.6756 0.394441 22.2289 0.126884 21.4991 0.126884ZM21.5016 2.69393C21.5851 2.72464 21.7492 2.77758 21.938 2.8817C22.2759 3.06771 22.713 3.35113 23.1587 3.6575C23.6043 3.96386 24.058 4.28718 24.5001 4.57164C24.9422 4.85612 25.317 5.11202 25.881 5.26344C26.4449 5.41485 26.8927 5.38238 27.4172 5.35733C27.9418 5.33262 28.5009 5.27826 29.0398 5.23627C29.5788 5.19426 30.0994 5.16144 30.4848 5.16956C30.7004 5.17414 30.8674 5.21262 30.9533 5.23132C31.01 5.29521 31.1259 5.42192 31.2394 5.60934C31.4391 5.9397 31.6769 6.40808 31.9101 6.89657C32.1433 7.38506 32.3769 7.89646 32.6178 8.36415C32.8588 8.83182 33.0532 9.23772 33.4661 9.65138C33.879 10.065 34.2866 10.2599 34.7533 10.5013C35.22 10.7427 35.7281 10.9767 36.2156 11.2104C36.7031 11.444 37.173 11.6848 37.5028 11.8849C37.6835 11.9943 37.8089 12.1048 37.8751 12.1616C37.8906 12.2481 37.9272 12.4203 37.9318 12.6409C37.9399 13.0271 37.9072 13.5388 37.8652 14.0789C37.8233 14.6189 37.7793 15.1865 37.7543 15.712C37.7296 16.2375 37.6969 16.6887 37.848 17.2537C37.9991 17.8187 38.2422 18.1918 38.5261 18.6348C38.81 19.0777 39.1451 19.5323 39.4508 19.9788C39.7566 20.4253 40.037 20.8658 40.2227 21.2043C40.3262 21.3927 40.3794 21.5526 40.4076 21.6342C40.3794 21.7175 40.327 21.8816 40.2227 22.0715C40.037 22.41 39.7566 22.848 39.4508 23.2944C39.1451 23.7409 38.8101 24.1956 38.5261 24.6385C38.2422 25.0815 37.9991 25.457 37.848 26.0221C37.6969 26.5871 37.7296 27.0358 37.7543 27.5613C37.7789 28.0868 37.8233 28.6569 37.8652 29.1969C37.9072 29.737 37.9399 30.2488 37.9318 30.6349C37.9272 30.8562 37.8903 31.026 37.8751 31.1093C37.8085 31.1686 37.6831 31.2815 37.5028 31.3909C37.173 31.591 36.7031 31.8293 36.2156 32.0629C35.728 32.2966 35.2201 32.5306 34.7533 32.772C34.2865 33.0135 33.8789 33.2083 33.4661 33.622C33.0533 34.0356 32.8588 34.444 32.6178 34.9116C32.3769 35.3793 32.1433 35.8883 31.9101 36.3768C31.6769 36.8653 31.4391 37.3361 31.2394 37.6664C31.1302 37.8472 31.0174 37.9728 30.9583 38.0395C30.8748 38.0547 30.7057 38.0918 30.4848 38.0963C30.0994 38.1045 29.5787 38.0815 29.0398 38.0395C28.5008 37.9975 27.9417 37.9432 27.4172 37.9185C26.8927 37.8937 26.445 37.8609 25.881 38.0123C25.317 38.1638 24.9422 38.4172 24.5001 38.7017C24.058 38.9862 23.6043 39.3119 23.1587 39.6183C22.713 39.9248 22.2758 40.2081 21.938 40.3941C21.7489 40.4983 21.5851 40.5487 21.5016 40.577C21.4202 40.5487 21.2582 40.4976 21.07 40.3941C20.7322 40.2081 20.295 39.9247 19.8494 39.6183C19.4038 39.312 18.9402 38.9862 18.4981 38.7017C18.056 38.4172 17.6837 38.1638 17.1197 38.0123C16.5557 37.8609 16.1055 37.8934 15.581 37.9185C15.0565 37.9432 14.4999 37.9975 13.9609 38.0395C13.4219 38.0815 12.9012 38.1045 12.5159 38.0963C12.295 38.0918 12.1259 38.0547 12.0424 38.0395C11.9832 37.9728 11.8705 37.8472 11.7613 37.6664C11.5616 37.3361 11.3308 36.8656 11.0976 36.3768C10.8648 35.8883 10.6308 35.3797 10.3902 34.9116C10.1493 34.444 9.95483 34.0356 9.5416 33.622C9.12874 33.2083 8.7215 33.0135 8.25443 32.772C7.78766 32.531 7.28001 32.2966 6.79248 32.0629C6.30458 31.8296 5.83709 31.591 5.50738 31.3909C5.31892 31.2766 5.19104 31.1604 5.12763 31.1043C5.10896 31.0182 5.07303 30.8505 5.06845 30.6349C5.06035 30.2488 5.09064 29.737 5.13257 29.1969C5.17449 28.6569 5.23121 28.0869 5.25586 27.5613C5.28052 27.0357 5.31328 26.5872 5.16215 26.0221C5.01103 25.457 4.75563 25.0814 4.4717 24.6385C4.18777 24.1956 3.86508 23.7409 3.55933 23.2944C3.25355 22.848 2.97068 22.4099 2.78503 22.0715C2.68111 21.8819 2.6258 21.7178 2.59515 21.6342C2.6258 21.5526 2.68181 21.3927 2.78503 21.2043C2.97068 20.8658 3.25355 20.4253 3.55933 19.9788C3.8651 19.5324 4.18779 19.0777 4.4717 18.6348C4.75563 18.1918 5.01104 17.8187 5.16215 17.2537C5.31327 16.6886 5.28052 16.2375 5.25586 15.712C5.2312 15.1864 5.17449 14.6188 5.13257 14.0789C5.09065 13.5388 5.06035 13.027 5.06845 12.6409C5.07303 12.426 5.10896 12.2555 5.12763 12.1665C5.19069 12.1133 5.31857 11.9996 5.50738 11.8849C5.83711 11.6848 6.30458 11.444 6.79212 11.2104C7.27966 10.9767 7.78764 10.7427 8.25443 10.5013C8.72119 10.2599 9.12877 10.065 9.5416 9.65138C9.95443 9.23771 10.1489 8.83181 10.3899 8.36415C10.6308 7.89648 10.8644 7.38504 11.0976 6.89657C11.3308 6.40808 11.5612 5.93969 11.7609 5.60934C11.8744 5.42192 11.9903 5.29521 12.047 5.23132C12.1329 5.21262 12.2999 5.17414 12.5155 5.16956C12.9009 5.16144 13.4216 5.19426 13.9605 5.23627C14.4995 5.27827 15.056 5.33262 15.5806 5.35733C16.1052 5.38203 16.5554 5.41486 17.1193 5.26344C17.6832 5.11201 18.0557 4.85612 18.4978 4.57164C18.9399 4.28716 19.4035 3.96385 19.8491 3.6575C20.2946 3.35115 20.7319 3.06771 21.0697 2.8817C21.2574 2.77829 21.4198 2.72463 21.5012 2.69393H21.5016ZM21.4991 8.23328C14.1271 8.23328 8.12596 14.2456 8.12596 21.6323C8.12596 29.0191 14.1266 35.0431 21.4991 35.0431C28.8712 35.0431 34.8741 29.0185 34.8741 21.6323C34.8741 14.2462 28.871 8.23328 21.4991 8.23328ZM21.4991 10.7633C27.5068 10.7633 32.3562 15.6126 32.3562 21.6323C32.3562 27.6521 27.5064 32.5131 21.4991 32.5131C15.4914 32.5131 10.6511 27.6515 10.6511 21.6323C10.6511 15.6132 15.491 10.7633 21.4991 10.7633ZM26.6254 16.8338C26.2961 16.8465 25.9846 16.9874 25.7574 17.2267L19.711 23.3787L17.2402 20.8759C17.0059 20.6303 16.6829 20.4894 16.3436 20.4849C16.0044 20.4806 15.6775 20.6133 15.4368 20.853C15.1962 21.0926 15.062 21.4191 15.0645 21.759C15.0669 22.0992 15.2061 22.4236 15.4499 22.6597L18.8158 26.0693H18.8162C19.0547 26.3089 19.3791 26.4427 19.717 26.441C20.0548 26.4392 20.3778 26.3015 20.6135 26.0594L27.5575 19.0006C27.9295 18.6346 28.0387 18.0773 27.8323 17.5973C27.6262 17.1176 27.1468 16.8144 26.6254 16.8338Z" fill="#E6C282"/>
</g>
<defs>
<clipPath id="clip0_1_164">
<rect width="43" height="44" fill="white"/>
</clipPath>
</defs>
</svg>
