<svg width="48" height="42" viewBox="0 0 48 42" fill="none" xmlns="http://www.w3.org/2000/svg">
<path d="M47.4375 8.5C47.4375 7.875 47.125 7.40625 46.6562 7.09375L35.7188 0.84375C35.4062 0.6875 35.25 0.6875 34.9375 0.6875C34.625 0.6875 34.4688 0.6875 34.1562 0.84375L24 6.625L13.8438 0.84375C13.5312 0.6875 13.375 0.6875 13.0625 0.6875C12.75 0.6875 12.5938 0.6875 12.2812 0.84375L1.34375 7.09375C0.875 7.40625 0.5625 7.875 0.5625 8.5V39.75C0.5625 40.6875 1.1875 41.3125 2.125 41.3125C2.4375 41.3125 2.59375 41.1562 2.90625 41.1562L13.0625 35.375L23.2188 41.1562C23.5312 41.3125 23.6875 41.3125 24 41.3125C24.3125 41.3125 24.4688 41.3125 24.7812 41.1562L34.9375 35.375L45.0938 41.1562C45.25 41.3125 45.5625 41.3125 45.875 41.3125C46.8125 41.3125 47.4375 40.6875 47.4375 39.75V8.5ZM3.6875 9.4375L11.5 4.90625V32.5625L3.6875 37.0938V9.4375ZM22.4375 37.0938L14.625 32.5625V4.90625L22.4375 9.4375V37.0938ZM33.375 32.5625L25.5625 37.0938V9.4375L33.375 4.90625V32.5625ZM36.5 32.5625V4.90625L44.3125 9.4375V37.0938L36.5 32.5625Z" fill="white"/>
</svg>
