<svg width="20" height="16" viewBox="0 0 20 16" fill="none" xmlns="http://www.w3.org/2000/svg">
<path fill-rule="evenodd" clip-rule="evenodd" d="M0.234001 0.357001C0.0825148 0.536975 -0.000380263 0.764759 1.31146e-06 1V13C1.31146e-06 13.7957 0.316072 14.5587 0.878681 15.1213C1.44129 15.6839 2.20435 16 3 16H17C17.7957 16 18.5587 15.6839 19.1213 15.1213C19.6839 14.5587 20 13.7957 20 13V1.01C20.001 0.860989 19.9688 0.713624 19.9059 0.578557C19.8429 0.443491 19.7507 0.324096 19.636 0.229001C19.4582 0.081736 19.2348 0.000789688 19.004 1.17803e-06H1C0.853968 -0.000223297 0.709668 0.0316352 0.577304 0.0933244C0.44494 0.155014 0.327744 0.245027 0.234001 0.357001ZM2 3.414V13C2 13.2652 2.10536 13.5196 2.29289 13.7071C2.48043 13.8946 2.73478 14 3 14H17C17.2652 14 17.5196 13.8946 17.7071 13.7071C17.8946 13.5196 18 13.2652 18 13V3.414L10.707 10.707C10.5195 10.8945 10.2652 10.9998 10 10.9998C9.73484 10.9998 9.48053 10.8945 9.293 10.707L2 3.414Z" fill="#C1272D"/>
</svg>
