<svg width="50" height="51" viewBox="0 0 50 51" fill="none" xmlns="http://www.w3.org/2000/svg">
<path d="M45.5859 31.7415C44.2188 31.7415 43.125 32.8352 43.125 34.2024V39.886L33.5352 30.2961C32.5781 29.3391 31.0156 29.3391 30.0391 30.2961C29.082 31.2532 29.082 32.8352 30.0391 33.7922L39.6289 43.3821H33.9453C32.5781 43.3821 31.4844 44.4758 31.4844 45.843C31.4844 47.2102 32.5977 48.304 33.9453 48.304H45.5859C45.8984 48.304 46.1914 48.2454 46.4844 48.1282C46.5039 48.1282 46.5234 48.1282 46.5234 48.1086C46.8164 47.9915 47.0898 47.7961 47.3242 47.5813C47.5586 47.3469 47.7344 47.0735 47.8516 46.7805C47.8516 46.761 47.8516 46.7415 47.8711 46.7219C47.9883 46.4485 48.0469 46.136 48.0469 45.843V34.2024C48.0469 32.8547 46.9336 31.7415 45.5859 31.7415ZM10.3906 7.17114H16.0742C17.4414 7.17114 18.5352 6.05786 18.5352 4.71021C18.5352 3.34302 17.4219 2.24927 16.0742 2.24927H4.41406C4.10156 2.24927 3.80859 2.30786 3.51562 2.42505C3.49609 2.42505 3.49609 2.42505 3.47656 2.42505C3.18359 2.54224 2.89063 2.73755 2.65625 2.95239C2.42188 3.18677 2.24609 3.4602 2.12891 3.75317C2.12891 3.7727 2.12891 3.79224 2.10938 3.81177C2.01172 4.08521 1.95312 4.37817 1.95312 4.67114V4.69067V16.3313C1.95312 17.6985 3.06641 18.7922 4.41406 18.7922C5.78125 18.7922 6.875 17.679 6.875 16.3313V10.6672L16.4844 20.2766C16.9727 20.7649 17.5977 20.9993 18.2422 20.9993C18.8672 20.9993 19.5117 20.7649 19.9805 20.2766C20.9375 19.3196 20.9375 17.7571 19.9805 16.7805L10.3906 7.17114ZM16.5039 30.2766L6.89453 39.886V34.2024C6.89453 32.8352 5.78125 31.7415 4.43359 31.7415C3.06641 31.7415 1.97266 32.8547 1.97266 34.2024V45.843C1.97266 46.1555 2.03125 46.468 2.14844 46.761V46.7805C2.26562 47.0735 2.46094 47.3665 2.67578 47.5813C2.91016 47.8157 3.18359 47.9915 3.47656 48.1086C3.49609 48.1086 3.49609 48.1086 3.51562 48.1282C3.80859 48.2454 4.10156 48.304 4.41406 48.304H16.0547C17.4219 48.304 18.5156 47.1907 18.5156 45.8235C18.5156 44.4563 17.4023 43.3625 16.0547 43.3625H10.3906L20 33.7532C20.957 32.7961 20.957 31.2336 20 30.2571C19.0234 29.3196 17.4609 29.3196 16.5039 30.2766ZM48.0469 4.69067C48.0469 4.37817 47.9883 4.08521 47.8711 3.79224C47.8711 3.77271 47.8711 3.7727 47.8516 3.75317C47.7344 3.4602 47.5391 3.18677 47.3242 2.95239C47.1094 2.71802 46.8164 2.54224 46.5234 2.42505C46.5039 2.42505 46.5039 2.42505 46.4844 2.40552C46.1914 2.28833 45.8984 2.22974 45.5859 2.22974H33.9453C32.5781 2.22974 31.4648 3.34302 31.4648 4.69067C31.4648 6.05786 32.5781 7.15161 33.9453 7.15161H39.6289L30.0195 16.761C29.0625 17.718 29.0625 19.2805 30.0195 20.2571C30.5078 20.7454 31.1328 20.9797 31.7773 20.9797C32.4219 20.9797 33.0469 20.7454 33.5156 20.2571L43.1055 10.6477V16.3313C43.1055 17.6985 44.2188 18.7922 45.5664 18.7922C46.9336 18.7922 48.0273 17.679 48.0273 16.3313V4.69067C48.0469 4.69067 48.0469 4.69067 48.0469 4.69067Z" fill="white"/>
</svg>
