<svg width="55" height="54" viewBox="0 0 55 54" fill="none" xmlns="http://www.w3.org/2000/svg">
<path fill-rule="evenodd" clip-rule="evenodd" d="M22.0925 9.67923L22.3538 10.6981H31.6214L31.8696 9.67923H22.0925ZM21.4394 7.13206H32.4901L33.6069 2.54717H20.2638L21.4394 7.13206ZM18.0753 0C17.5208 0 17.1151 0.522834 17.2529 1.05994L20.2137 12.6071C20.31 12.9827 20.6484 13.2453 21.0361 13.2453H25.9812V20.5472C25.9812 21.2506 26.5514 21.8208 27.2548 21.8208C27.9581 21.8208 28.5283 21.2506 28.5283 20.5472V13.2453H32.9555C33.347 13.2453 33.6878 12.9776 33.7805 12.5972L36.5932 1.05C36.7235 0.515379 36.3186 0 35.7683 0H18.0753ZM26.9647 22.967C27.0642 22.8676 27.1991 22.8118 27.3397 22.8118C27.4803 22.8118 27.6152 22.8676 27.7147 22.967C27.9998 23.2521 29.1291 24.472 30.1904 26.0533C31.2376 27.612 32.2925 29.6286 32.2925 31.4788C32.2925 33.2646 31.7647 34.6479 30.8463 35.5868C29.9286 36.5236 28.6762 36.9623 27.3397 36.9623C26.0024 36.9623 24.7508 36.5243 23.8331 35.5868C22.9147 34.6479 22.3868 33.2646 22.3868 31.4788C22.3868 29.6286 23.4425 27.612 24.489 26.0533C25.5503 24.472 26.6795 23.2514 26.9647 22.967ZM25.1321 39.2264C25.1321 38.7575 24.7519 38.3774 24.283 38.3774H0.509434C0.228081 38.3774 0 38.6055 0 38.8868V53.4906C0 53.7719 0.22808 54 0.509432 54H54.1698C54.4512 54 54.6792 53.7719 54.6792 53.4906V38.8868C54.6792 38.6055 54.4512 38.3774 54.1698 38.3774H30.2264C29.7575 38.3774 29.3774 38.7575 29.3774 39.2264V40.0755C29.3774 40.5444 29.7575 40.9245 30.2264 40.9245H51.283C51.7519 40.9245 52.1321 41.3047 52.1321 41.7736V50.6038C52.1321 51.0727 51.7519 51.4529 51.283 51.4529H3.39623C2.92731 51.4529 2.54717 51.0727 2.54717 50.6038V41.7736C2.54717 41.3047 2.9273 40.9245 3.39623 40.9245H24.283C24.7519 40.9245 25.1321 40.5444 25.1321 40.0755V39.2264Z" fill="white"/>
</svg>
