<svg width="40" height="41" viewBox="0 0 40 41" fill="none" xmlns="http://www.w3.org/2000/svg">
<g clip-path="url(#clip0_8_609)">
<path d="M20 40.5C31.0457 40.5 40 31.5457 40 20.5C40 9.45431 31.0457 0.5 20 0.5C8.95431 0.5 0 9.45431 0 20.5C0 31.5457 8.95431 40.5 20 40.5Z" fill="#4D76A1"/>
<path fill-rule="evenodd" clip-rule="evenodd" d="M19.2445 29.2719H20.8143C20.8143 29.2719 21.2884 29.2198 21.5305 28.9588C21.7533 28.7193 21.7462 28.2693 21.7462 28.2693C21.7462 28.2693 21.7155 26.163 22.6931 25.8529C23.6568 25.5473 24.8943 27.8886 26.2059 28.7888C27.1977 29.4701 27.9514 29.3207 27.9514 29.3207L31.4585 29.2719C31.4585 29.2719 33.2931 29.1589 32.4232 27.7164C32.3519 27.5984 31.9166 26.6493 29.8156 24.6992C27.6166 22.6581 27.9111 22.9882 30.5601 19.4576C32.1733 17.3075 32.8183 15.9947 32.6168 15.4325C32.4247 14.897 31.2382 15.0386 31.2382 15.0386L27.2894 15.0632C27.2894 15.0632 26.9967 15.0232 26.7795 15.153C26.5674 15.2803 26.4309 15.5769 26.4309 15.5769C26.4309 15.5769 25.8059 17.2408 24.9723 18.6558C23.214 21.6417 22.5109 21.7992 22.2236 21.6138C21.5551 21.1817 21.722 19.878 21.722 18.9517C21.722 16.0582 22.1608 14.8517 20.8674 14.5394C20.4381 14.4357 20.1223 14.3672 19.0245 14.3562C17.6156 14.3416 16.423 14.3605 15.7478 14.6913C15.2986 14.9113 14.952 15.4015 15.1631 15.4297C15.424 15.4646 16.0152 15.589 16.3285 16.0158C16.7332 16.5662 16.7189 17.8027 16.7189 17.8027C16.7189 17.8027 16.9514 21.2088 16.1759 21.632C15.6437 21.9222 14.9135 21.3297 13.3459 18.6209C12.5427 17.2333 11.9362 15.6996 11.9362 15.6996C11.9362 15.6996 11.8193 15.4129 11.6107 15.2596C11.3576 15.0739 11.0039 15.0147 11.0039 15.0147L7.25156 15.0393C7.25156 15.0393 6.68826 15.055 6.48148 15.2999C6.29752 15.5177 6.46687 15.9684 6.46687 15.9684C6.46687 15.9684 9.40458 22.8413 12.7309 26.3049C15.7809 29.4804 19.2445 29.2719 19.2445 29.2719Z" fill="white"/>
</g>
<defs>
<clipPath id="clip0_8_609">
<rect width="40" height="40" fill="white" transform="translate(0 0.5)"/>
</clipPath>
</defs>
</svg>
