<svg width="20" height="20" viewBox="0 0 20 20" fill="none" xmlns="http://www.w3.org/2000/svg">
<path fill-rule="evenodd" clip-rule="evenodd" d="M16.7452 3.2547C16.0701 2.5798 15.1546 2.20066 14.2 2.20066C13.2454 2.20066 12.3299 2.5798 11.6548 3.2547L3.2548 11.6547C2.59887 12.3335 2.23579 13.2428 2.24377 14.1867C2.25175 15.1306 2.63014 16.0336 3.29746 16.7013C3.96477 17.3689 4.86761 17.7477 5.81151 17.7561C6.75542 17.7646 7.66487 17.4019 8.344 16.7463H8.3452L8.9416 16.1463C9.11078 15.9817 9.33785 15.8902 9.57388 15.8914C9.80991 15.8926 10.036 15.9865 10.2035 16.1529C10.3709 16.3192 10.4663 16.5447 10.4691 16.7807C10.4719 17.0168 10.3819 17.2444 10.2184 17.4147L9.6208 18.0159L9.6184 18.0183C8.60569 19.031 7.23217 19.5999 5.8 19.5999C4.36782 19.5999 2.9943 19.031 1.9816 18.0183C0.968894 17.0056 0.399963 15.6321 0.399963 14.1999C0.399963 12.7677 0.968894 11.3942 1.9816 10.3815L10.3816 1.9815C11.3937 0.968156 12.7668 0.398362 14.199 0.397462C15.6312 0.396562 17.0051 0.964629 18.0184 1.97669C19.0317 2.98876 19.6015 4.36192 19.6024 5.7941C19.6033 7.22628 19.0353 8.60016 18.0232 9.6135L13.8772 13.8771C13.5877 14.1824 13.24 14.4266 12.8546 14.5953C12.4692 14.764 12.0539 14.8538 11.6333 14.8594C11.2126 14.865 10.7951 14.7863 10.4053 14.6278C10.0156 14.4694 9.66151 14.2345 9.36403 13.9371C9.06654 13.6396 8.83166 13.2855 8.67325 12.8958C8.51484 12.506 8.4361 12.0885 8.44169 11.6678C8.44728 11.2472 8.53708 10.8319 8.7058 10.4465C8.87451 10.0611 9.11871 9.71337 9.424 9.4239L13.564 5.28269C13.647 5.1967 13.7463 5.12809 13.856 5.08087C13.9658 5.03365 14.0839 5.00877 14.2034 5.00767C14.3229 5.00658 14.4414 5.02929 14.5521 5.07449C14.6627 5.1197 14.7632 5.18648 14.8477 5.27094C14.9323 5.3554 14.9992 5.45586 15.0445 5.56644C15.0898 5.67703 15.1126 5.79553 15.1116 5.91503C15.1106 6.03453 15.0859 6.15264 15.0387 6.26246C14.9916 6.37229 14.9231 6.47163 14.8372 6.5547L10.6972 10.6959C10.5715 10.8209 10.4717 10.9695 10.4034 11.1331C10.3352 11.2968 10.2998 11.4722 10.2994 11.6495C10.2989 11.8268 10.3334 12.0024 10.4009 12.1664C10.4683 12.3303 10.5674 12.4794 10.6924 12.6051C10.8174 12.7308 10.966 12.8306 11.1296 12.8988C11.2933 12.9671 11.4687 13.0025 11.646 13.0029C11.8233 13.0034 11.9989 12.9689 12.1629 12.9014C12.3268 12.834 12.4759 12.7349 12.6016 12.6099L16.7464 8.34629C17.4213 7.6712 17.8004 6.75569 17.8004 5.8011C17.8004 4.8465 17.4213 3.93099 16.7464 3.2559L16.7452 3.2547Z" fill="#C1272D"/>
</svg>
