<svg width="50" height="50" viewBox="0 0 50 50" fill="none" xmlns="http://www.w3.org/2000/svg">
<path d="M20.0781 4.21878C19.5312 4.45315 19.4336 4.82425 19.4336 6.7969V8.49612H13.8672H8.30078L8.14453 8.14456C7.87109 7.57815 7.32422 7.01175 6.73828 6.69925C6.23047 6.42581 6.09375 6.38675 5.19531 6.38675C4.375 6.38675 4.14062 6.42581 3.76953 6.62112C3.08594 6.97268 2.53906 7.51956 2.22656 8.16409C1.97266 8.65237 1.93359 8.86722 1.93359 9.57034C1.95312 10.6446 2.20703 11.2891 2.96875 11.9922C4.55078 13.4375 7.07031 13.0274 8.06641 11.1328L8.32031 10.6641H10.5664C11.7969 10.6641 12.8125 10.6836 12.8125 10.7032C12.8125 10.7227 12.5 10.918 12.1289 11.1328C11.7578 11.3477 10.9961 11.875 10.4297 12.2852C5.50781 15.9961 2.53906 21.6016 2.24609 27.7344C2.1875 28.8672 2.20703 29.0039 2.40234 29.2969C2.67578 29.7266 3.28125 29.9414 3.71094 29.7266C4.25781 29.4532 4.35547 29.1992 4.47266 27.5782C4.92188 21.7188 7.79297 16.6602 12.5195 13.4961C14.1992 12.3828 16.7969 11.25 18.5547 10.8789C18.8477 10.8203 19.1602 10.7422 19.2578 10.7227C19.4141 10.6641 19.4336 10.8008 19.4336 12.461C19.4336 14.0625 19.4531 14.2774 19.6484 14.5899C19.7656 14.7852 19.9805 14.9805 20.1172 15.0391C20.293 15.0977 22.1289 15.1367 25.1172 15.1172L29.8438 15.0782L30.1172 14.7852L30.4102 14.5117L30.4492 12.5977C30.4883 10.8594 30.5078 10.7032 30.6641 10.7422C30.7617 10.7813 31.0742 10.8399 31.3477 10.8985C32.5977 11.1719 34.1016 11.7188 35.4492 12.4024C39.7266 14.5508 42.9102 18.2227 44.4922 22.7735C45.0195 24.3164 45.3125 25.7617 45.4492 27.6367C45.5469 29.0039 45.5859 29.1992 45.8008 29.4532C46.1133 29.8047 46.543 29.9024 46.9922 29.7071C47.6758 29.4336 47.8125 28.7891 47.5781 26.6797C47.2461 23.5352 46.2109 20.4883 44.6094 17.9297C42.9688 15.293 40.5859 12.8907 37.9492 11.2696C37.4805 10.9766 37.0898 10.7422 37.0703 10.7032C37.0508 10.6836 38.0664 10.6641 39.3359 10.6641H41.6406L41.8945 11.1328C42.8906 13.0274 45.4102 13.4375 46.9922 11.9922C47.7539 11.3086 48.0273 10.6641 48.0273 9.57034C48.0273 8.86722 47.9883 8.65237 47.7344 8.16409C47.4219 7.51956 46.875 6.97268 46.1914 6.62112C45.8203 6.42581 45.5859 6.38675 44.7656 6.38675C43.8672 6.38675 43.7305 6.42581 43.2227 6.69925C42.6367 7.03128 42.0898 7.57815 41.8164 8.14456L41.6602 8.49612H36.0547H30.4688V6.73831C30.4688 4.74612 30.3906 4.45315 29.8047 4.19925C29.2773 3.9844 20.5859 4.00393 20.0781 4.21878Z" fill="white"/>
<path d="M18.9258 24.5117C15.8789 29.1602 14.0234 32.0899 14.0039 32.2852C13.9648 32.461 14.5703 34.9805 15.3516 38.1055C16.1328 41.1328 16.7578 43.6328 16.7578 43.6524C16.7578 43.6719 16.3281 43.6914 15.8203 43.6914C14.4922 43.6914 13.9648 44.0039 13.9648 44.8242C13.9648 45.293 14.1992 45.625 14.6484 45.8203C15.1562 46.0352 34.7266 46.0352 35.2539 45.8203C35.7031 45.625 35.9375 45.293 35.9375 44.8242C35.9375 44.0235 35.3711 43.6914 34.0234 43.6914C33.2227 43.6914 33.1445 43.6719 33.1836 43.4961C33.6914 41.7188 35.9375 32.5196 35.8984 32.2852C35.8594 32.0899 34.0039 29.1602 31.0352 24.6094C28.3789 20.5664 26.1719 17.1875 26.1133 17.1289C26.0547 17.0703 26.0156 20.8985 26.0156 26.543V36.0352L26.5625 36.3477C28.6523 37.5391 28.7891 40.5274 26.8164 41.8555C26.0938 42.3438 25.625 42.4805 24.7461 42.4219C23.5352 42.3633 22.5 41.6992 21.9727 40.6055C21.6406 39.9219 21.6406 38.3594 21.9727 37.7344C22.2656 37.168 22.9102 36.543 23.4375 36.2696L23.8477 36.0547V26.5625C23.8477 21.3477 23.8281 17.0703 23.8086 17.0703C23.8086 17.0508 21.6016 20.4102 18.9258 24.5117Z" fill="white"/>
<path d="M24.3555 38.2617C24.0625 38.418 23.8672 38.7891 23.8672 39.2188C23.8672 39.7266 24.4336 40.2734 24.9414 40.2734C25.4492 40.2734 26.0156 39.7266 26.0156 39.2578C26.0156 38.8086 25.7617 38.3594 25.4883 38.2617C25.1172 38.125 24.5898 38.125 24.3555 38.2617Z" fill="white"/>
</svg>
