<svg width="40" height="41" viewBox="0 0 40 41" fill="none" xmlns="http://www.w3.org/2000/svg">
<g clip-path="url(#clip0_8_595)">
<path d="M20 40.5C8.956 40.5 0 31.544 0 20.5C0 9.456 8.956 0.5 20 0.5C31.044 0.5 40 9.456 40 20.5C40 31.544 31.044 40.5 20 40.5Z" fill="#25D366"/>
<path fill-rule="evenodd" clip-rule="evenodd" d="M29.356 11.188C26.876 8.70403 23.572 7.33603 20.056 7.33203C12.812 7.33203 6.91195 13.228 6.91195 20.476C6.91195 22.792 7.51595 25.056 8.66795 27.048L6.80396 33.86L13.772 32.032C15.692 33.08 17.852 33.632 20.052 33.632H20.056C27.3 33.632 33.196 27.736 33.2 20.488C33.204 16.976 31.84 13.672 29.356 11.188ZM20.06 31.412H20.056C18.096 31.412 16.172 30.884 14.496 29.888L14.096 29.652L9.95995 30.736L11.064 26.704L10.804 26.292C9.71196 24.552 9.13195 22.544 9.13195 20.476C9.13595 14.452 14.036 9.55203 20.064 9.55203C22.984 9.55203 25.724 10.692 27.788 12.756C29.852 14.82 30.988 17.568 30.984 20.484C30.984 26.512 26.08 31.412 20.06 31.412ZM26.052 23.228C25.724 23.064 24.108 22.268 23.808 22.16C23.508 22.052 23.288 21.996 23.068 22.324C22.848 22.652 22.22 23.392 22.028 23.612C21.836 23.832 21.644 23.86 21.316 23.696C20.988 23.532 19.928 23.184 18.676 22.064C17.7 21.192 17.04 20.116 16.848 19.788C16.656 19.46 16.828 19.28 16.992 19.116C17.14 18.968 17.32 18.732 17.484 18.54C17.648 18.348 17.704 18.212 17.812 17.992C17.92 17.772 17.868 17.58 17.784 17.416C17.7 17.252 17.044 15.636 16.772 14.976C16.504 14.336 16.236 14.424 16.032 14.412C15.84 14.404 15.62 14.4 15.404 14.4C15.184 14.4 14.828 14.484 14.528 14.812C14.228 15.14 13.38 15.936 13.38 17.552C13.38 19.168 14.556 20.732 14.72 20.948C14.884 21.168 17.036 24.484 20.332 25.908C21.116 26.248 21.728 26.448 22.204 26.6C22.992 26.852 23.708 26.816 24.272 26.732C24.904 26.636 26.216 25.936 26.488 25.172C26.76 24.404 26.76 23.748 26.68 23.612C26.6 23.476 26.38 23.396 26.052 23.228Z" fill="white"/>
</g>
<defs>
<clipPath id="clip0_8_595">
<rect width="40" height="40" fill="white" transform="translate(0 0.5)"/>
</clipPath>
</defs>
</svg>
