<svg width="200" height="53" viewBox="0 0 200 53" fill="none" xmlns="http://www.w3.org/2000/svg">
<g clip-path="url(#clip0_2_104)">
<path d="M24.5903 14.3876V0.638306C22.8737 0.643392 21.1609 0.800958 19.4722 1.10914C19.043 1.19109 18.8908 1.38488 18.8908 1.82841C18.9051 3.48805 18.351 5.00983 17.438 6.38072C16.221 8.18622 14.3773 9.47579 12.2639 9.99963C10.1505 10.5235 7.91795 10.2443 5.99865 9.21616C5.65268 9.03537 5.43156 9.06399 5.19614 9.36834C4.68498 10.0317 4.1309 10.6547 3.63535 11.3323C2.09355 13.4509 0.89322 15.7981 0.0780441 18.2883C-0.0741332 18.7318 0.106659 18.8697 0.411013 19.0687C2.72099 20.5904 4.1309 22.7339 4.42225 25.4588C4.78123 28.9173 3.48187 31.7111 0.650335 33.7583C-0.0962445 34.3124 -0.123558 34.3124 0.20811 35.1891C1.30067 38.0934 2.78082 40.7819 4.80074 43.1556C5.47839 43.9438 5.46408 43.9438 6.40576 43.5848L6.82067 43.4183C9.84991 42.1047 13.7922 42.8096 16.1711 45.1196C17.862 46.7662 18.8544 48.7445 18.9025 51.1378C18.9168 51.5943 19.082 51.8284 19.5385 51.8843C19.9103 51.9188 20.2799 51.9744 20.6454 52.0508C21.954 52.2598 23.2769 52.3659 24.602 52.3682V38.5942C23.002 38.6108 21.4146 38.31 19.9316 37.7092C18.4486 37.1083 17.0995 36.2195 15.9622 35.0939C14.825 33.9684 13.9221 32.6285 13.306 31.1518C12.6898 29.6752 12.3726 28.091 12.3726 26.4909C12.3726 24.8908 12.6898 23.3066 13.306 21.8299C13.9221 20.3533 14.825 19.0134 15.9622 17.8879C17.0995 16.7623 18.4486 15.8734 19.9316 15.2726C21.4146 14.6718 23.002 14.371 24.602 14.3876H24.5903Z" fill="url(#paint0_linear_2_104)"/>
<path d="M24.5903 38.5994V14.3915C27.8005 14.3915 30.8792 15.6667 33.1491 17.9366C35.419 20.2066 36.6942 23.2853 36.6942 26.4954C36.6942 29.7056 35.419 32.7843 33.1491 35.0542C30.8792 37.3241 27.8005 38.5994 24.5903 38.5994Z" fill="url(#paint1_linear_2_104)"/>
<path d="M67.2077 17.4871H64.8665V36.452H67.2077C70.622 36.452 71.9799 34.4763 71.9799 31.0217V22.9173C71.9799 19.4628 70.6636 17.4871 67.2077 17.4871Z" fill="url(#paint2_linear_2_104)"/>
<path d="M55.8946 22.9173V31.0217C55.8946 34.4763 57.2109 36.452 60.6667 36.452H63.0079V17.4871H60.6667C57.2109 17.4871 55.8946 19.4628 55.8946 22.9173Z" fill="url(#paint3_linear_2_104)"/>
<path d="M120.484 33.2432L116.492 14.783L112.377 33.2432H120.484Z" fill="url(#paint4_linear_2_104)"/>
<path d="M83.2098 13.9492C80.0427 13.9492 78.8083 16.2527 78.8083 19.3795V34.354C78.8083 37.4756 80.0427 39.7842 83.2098 39.7842C86.4185 39.7842 87.6945 37.4795 87.6945 34.354V19.3795C87.6945 16.2527 86.4185 13.9492 83.2098 13.9492Z" fill="url(#paint5_linear_2_104)"/>
<path d="M120.839 34.8886H112.088L110.649 41.2618H108.921L115.215 12.4275H115.984L113.436 0.638306H30.2885C30.2885 0.638306 30.2742 1.66193 30.2742 1.82841C30.2748 3.57304 30.8595 5.26723 31.9351 6.64085C34.037 9.42037 36.8594 10.5832 40.2893 10.1123C41.2999 9.97445 42.2676 9.53222 43.2353 9.17194C43.5396 9.06138 43.7204 9.10301 43.9142 9.32412C45.9646 11.6345 47.5895 14.2899 48.7136 17.1671C48.8437 17.4988 48.9074 17.8447 49.0596 18.1634C49.0833 18.3697 49.0925 18.5775 49.0869 18.7851C48.9792 18.9273 48.8427 19.0452 48.6863 19.1311C46.4037 20.6256 45.0614 22.7729 44.744 25.4393C44.3837 28.4959 45.4347 31.1102 47.759 33.1717C48.0796 33.4476 48.4219 33.6973 48.7826 33.9183C48.9086 33.9853 49.0139 34.0857 49.0869 34.2084C49.0869 34.4295 49.1142 34.7065 49.1012 34.7208C48.4366 36.7121 47.5235 38.7867 46.3894 40.5738C45.7117 41.626 43.9961 44.0856 42.4614 43.4235C40.7419 42.668 38.8196 42.5073 36.9986 42.967C34.5091 43.5757 32.5763 45.0142 31.3277 47.2969C30.8542 48.1852 30.5403 49.1498 30.4003 50.1467C30.3314 50.5369 30.3041 52.3578 30.3041 52.3578H124.618L120.839 34.8886ZM73.8307 30.8982C73.8307 35.4635 71.8966 38.139 67.2077 38.139H64.8665V41.2605H63.0118V38.139H60.6706C55.9401 38.139 54.0476 35.4635 54.0476 30.8982V23.0409C54.0476 18.4743 55.9401 15.8014 60.6706 15.8014H63.0118V12.4743H64.8626V15.8066H67.2038C71.8862 15.8066 73.8268 18.4795 73.8268 23.0461L73.8307 30.8982ZM89.5869 34.2305C89.5869 38.4264 87.6528 41.5142 83.2137 41.5142C78.8539 41.5142 76.9211 38.429 76.9211 34.2305V19.4979C76.9211 15.302 78.8539 12.2142 83.2137 12.2142C87.6567 12.2142 89.5869 15.2994 89.5869 19.4979V34.2305ZM104.52 41.2644L96.5858 27.7376L94.6114 30.8592V41.2644H92.7137V12.4743H94.6062V27.692L103.985 12.4743H105.96L97.7329 25.8802L106.494 41.2644H104.52Z" fill="url(#paint6_linear_2_104)"/>
<path d="M146.398 45.2146V41.2645H134.633V45.2146H131.547V38.4264H133.398C134.386 37.3144 134.592 35.9994 134.673 34.2305L135.789 12.4744H147.349V38.4264H149.529V45.2146H146.398ZM137.801 34.1954C137.671 36.253 137.389 37.4861 136.483 38.4329H144.094V15.3891H138.747L137.801 34.1954Z" fill="black"/>
<path d="M152.075 19.4198C152.075 15.0197 154.254 12.1816 158.657 12.1816C163.1 12.1816 165.28 15.0197 165.28 19.4198V34.3124C165.28 38.6722 163.1 41.5519 158.657 41.5519C154.254 41.5519 152.075 38.6722 152.075 34.3124V19.4198ZM155.244 34.4763C155.244 37.1088 156.354 38.6319 158.657 38.6319C160.998 38.6319 162.071 37.1088 162.071 34.4763V19.2585C162.071 16.6663 161.001 15.1029 158.657 15.1029C156.354 15.1029 155.244 16.6637 155.244 19.265V34.4763Z" fill="black"/>
<path d="M173.221 28.7586L171.53 31.598V41.2645H168.321V12.4744H171.53V26.3784L179.184 12.4744H182.436L175.152 25.5967L182.68 41.2697H179.39L173.221 28.7586Z" fill="black"/>
<path d="M188.399 35.4635L187.289 41.2645H184.327L189.841 12.4744H194.488L200 41.2697H196.79L195.678 35.4687L188.399 35.4635ZM188.812 32.7087H195.229L191.978 16.0889L188.812 32.7087Z" fill="black"/>
</g>
<defs>
<linearGradient id="paint0_linear_2_104" x1="12.2951" y1="49.2648" x2="12.2951" y2="1.11825" gradientUnits="userSpaceOnUse">
<stop stop-color="#C1272D"/>
<stop offset="1" stop-color="#97272D"/>
</linearGradient>
<linearGradient id="paint1_linear_2_104" x1="30.6345" y1="14.3915" x2="30.6345" y2="38.5994" gradientUnits="userSpaceOnUse">
<stop stop-color="#C1272D"/>
<stop offset="1" stop-color="#97272D"/>
</linearGradient>
<linearGradient id="paint2_linear_2_104" x1="68.4213" y1="17.4871" x2="68.4213" y2="36.452" gradientUnits="userSpaceOnUse">
<stop stop-color="#C1272D"/>
<stop offset="1" stop-color="#97272D"/>
</linearGradient>
<linearGradient id="paint3_linear_2_104" x1="59.4532" y1="17.4871" x2="59.4532" y2="36.452" gradientUnits="userSpaceOnUse">
<stop stop-color="#C1272D"/>
<stop offset="1" stop-color="#97272D"/>
</linearGradient>
<linearGradient id="paint4_linear_2_104" x1="116.43" y1="14.783" x2="116.43" y2="33.2432" gradientUnits="userSpaceOnUse">
<stop stop-color="#C1272D"/>
<stop offset="1" stop-color="#97272D"/>
</linearGradient>
<linearGradient id="paint5_linear_2_104" x1="83.2514" y1="13.9492" x2="83.2514" y2="39.7842" gradientUnits="userSpaceOnUse">
<stop stop-color="#C1272D"/>
<stop offset="1" stop-color="#97272D"/>
</linearGradient>
<linearGradient id="paint6_linear_2_104" x1="77.4452" y1="0.642208" x2="77.4452" y2="52.3617" gradientUnits="userSpaceOnUse">
<stop stop-color="#C1272D"/>
<stop offset="1" stop-color="#97272D"/>
</linearGradient>
<clipPath id="clip0_2_104">
<rect width="200" height="51.7234" fill="white" transform="translate(0 0.638306)"/>
</clipPath>
</defs>
</svg>
