<svg width="10" height="6" viewBox="0 0 10 6" fill="none" xmlns="http://www.w3.org/2000/svg">
<path fill-rule="evenodd" clip-rule="evenodd" d="M1.00711 0.489003C1.13605 0.364956 1.30895 0.297172 1.48784 0.300547C1.66672 0.303923 1.83695 0.378181 1.96111 0.507003L5.30011 4.0512L8.63911 0.507003C8.69981 0.440093 8.77331 0.386046 8.85528 0.348065C8.93724 0.310085 9.02599 0.288943 9.11628 0.285892C9.20656 0.282842 9.29654 0.297944 9.38088 0.330306C9.46522 0.362668 9.54221 0.41163 9.60728 0.474291C9.67235 0.536952 9.72418 0.612037 9.7597 0.695096C9.79522 0.778156 9.81371 0.867501 9.81407 0.957837C9.81442 1.04817 9.79665 1.13766 9.76178 1.221C9.72692 1.30434 9.67568 1.37983 9.61111 1.443L5.78611 5.493C5.72315 5.55833 5.64766 5.61029 5.56415 5.64579C5.48065 5.68128 5.39085 5.69957 5.30011 5.69957C5.20938 5.69957 5.11958 5.68128 5.03607 5.64579C4.95257 5.61029 4.87708 5.55833 4.81411 5.493L0.989113 1.443C0.865066 1.31407 0.797282 1.14116 0.800657 0.962278C0.804033 0.783392 0.878291 0.613165 1.00711 0.489003Z" fill="black"/>
</svg>
