<svg width="20" height="18" viewBox="0 0 20 18" fill="none" xmlns="http://www.w3.org/2000/svg">
<path d="M9.5835 17.2981L9.5775 17.2945L9.5547 17.2825C9.08117 17.0248 8.61612 16.7519 8.1603 16.4641C7.07354 15.7803 6.038 15.0183 5.0619 14.1841C2.8539 12.2797 0.399902 9.42247 0.399902 6.00007C0.400008 4.88343 0.746282 3.79427 1.39104 2.88258C2.0358 1.97089 2.94734 1.2815 4.00014 0.909332C5.05295 0.537167 6.19523 0.500531 7.26972 0.804469C8.3442 1.10841 9.29804 1.73797 9.9999 2.60647C10.7018 1.73797 11.6556 1.10841 12.7301 0.804469C13.8046 0.500531 14.9469 0.537167 15.9997 0.909332C17.0525 1.2815 17.964 1.97089 18.6088 2.88258C19.2535 3.79427 19.5998 4.88343 19.5999 6.00007C19.5999 9.42247 17.1471 12.2797 14.9379 14.1841C13.5511 15.369 12.0455 16.4073 10.4451 17.2825L10.4223 17.2945L10.4163 17.2981H10.4139C10.2864 17.3656 10.1443 17.401 10 17.4012C9.85576 17.4015 9.7136 17.3664 9.5859 17.2993L9.5835 17.2981Z" fill="#A3A3A3"/>
</svg>
