<svg width="16" height="15" viewBox="0 0 16 15" fill="none" xmlns="http://www.w3.org/2000/svg">
<path d="M8 0.333252L10.8173 4.45525L15.6087 5.86125L12.5587 9.81459L12.702 14.8053L8 13.1266L3.298 14.8053L3.44133 9.81459L0.391335 5.86125L5.18267 4.45525L8 0.333252ZM6.66667 7.99992H5.33333C5.33332 8.69562 5.60519 9.36378 6.09094 9.86184C6.57668 10.3599 7.23783 10.6484 7.93331 10.6658C8.6288 10.6832 9.30355 10.4281 9.81358 9.95496C10.3236 9.48182 10.6286 8.82808 10.6633 8.13325L10.6667 7.99992H9.33333C9.33488 8.34591 9.20188 8.67895 8.96241 8.92869C8.72295 9.17842 8.39579 9.3253 8.05004 9.33828C7.70429 9.35126 7.36704 9.22933 7.10952 8.99826C6.85201 8.76718 6.6944 8.44505 6.67 8.09992L6.66667 7.99992Z" fill="#1860CC"/>
</svg>
