<?xml version="1.0" encoding="utf-8"?><svg width="75" height="338" viewBox="0 0 75 338" xmlns="http://www.w3.org/2000/svg" xmlns:xlink="http://www.w3.org/1999/xlink"><svg width="75" height="75" fill="none" viewBox="0 0 75 75" id="about-icon" xmlns="http://www.w3.org/2000/svg"><g clip-path="url(#ba)"><path d="M56.543 16.846a8.423 8.423 0 1 0 0-16.846 8.423 8.423 0 0 0 0 16.846Z" fill="#E20E7F"/><path d="M43.36 32.959h26.367a2.567 2.567 0 0 0 2.563-2.564 15.765 15.765 0 0 0-8.669-14.062 10.594 10.594 0 0 1-14.156 0 15.765 15.765 0 0 0-8.67 14.063 2.567 2.567 0 0 0 2.564 2.563ZM18.457 16.846a8.423 8.423 0 1 0 0-16.846 8.423 8.423 0 0 0 0 16.846Z" fill="#E20E7F"/><path d="M5.273 32.959h26.368a2.566 2.566 0 0 0 2.563-2.564 15.765 15.765 0 0 0-8.669-14.062 10.594 10.594 0 0 1-14.156 0A15.765 15.765 0 0 0 2.71 30.396a2.567 2.567 0 0 0 2.563 2.563Z" fill="#E20E7F"/><path d="M73.901 45.703A1.098 1.098 0 0 0 75 44.604v-5.859a1.098 1.098 0 0 0-1.099-1.098H1.1A1.098 1.098 0 0 0 0 38.745v5.86a1.098 1.098 0 0 0 1.099 1.098H2.71v21.24H1.099A1.099 1.099 0 0 0 0 68.042v5.86A1.099 1.099 0 0 0 1.099 75H73.9A1.098 1.098 0 0 0 75 73.901v-5.859a1.099 1.099 0 0 0-1.099-1.099H72.29v-21.24h1.611Zm-71.704-5.86h70.606v3.663H2.197v-3.662Zm70.606 32.96H2.197V69.14h70.606v3.662Zm-2.71-5.86H4.907v-21.24h65.186v21.24Z" fill="#1B325E"/><path d="M11.133 64.014a1.099 1.099 0 0 0 1.098-1.099V49.731a1.099 1.099 0 1 0-2.197 0v13.184a1.098 1.098 0 0 0 1.099 1.099ZM19.922 64.014a1.099 1.099 0 0 0 1.098-1.099V49.731a1.098 1.098 0 1 0-2.197 0v13.184a1.099 1.099 0 0 0 1.099 1.099ZM28.71 64.014a1.099 1.099 0 0 0 1.1-1.099V49.731a1.099 1.099 0 0 0-2.198 0v13.184a1.099 1.099 0 0 0 1.099 1.099ZM37.5 64.014a1.099 1.099 0 0 0 1.099-1.099V49.731a1.099 1.099 0 1 0-2.198 0v13.184a1.099 1.099 0 0 0 1.099 1.099ZM46.29 64.014a1.099 1.099 0 0 0 1.098-1.099V49.731a1.099 1.099 0 0 0-2.198 0v13.184a1.099 1.099 0 0 0 1.1 1.099ZM55.078 64.014a1.099 1.099 0 0 0 1.099-1.099V49.731a1.099 1.099 0 0 0-2.197 0v13.184a1.098 1.098 0 0 0 1.098 1.099ZM63.867 64.014a1.099 1.099 0 0 0 1.099-1.099V49.731a1.098 1.098 0 1 0-2.197 0v13.184a1.099 1.099 0 0 0 1.098 1.099Z" fill="#1B325E"/></g><defs><clipPath id="ba"><path fill="#fff" d="M0 0h75v75H0z"/></clipPath></defs></svg><svg width="75" height="75" fill="none" viewBox="0 0 75 75" id="about-icon-green" y="75" xmlns="http://www.w3.org/2000/svg"><g clip-path="url(#aa)"><path d="M56.543 16.846a8.423 8.423 0 1 0 0-16.846 8.423 8.423 0 0 0 0 16.846Z" fill="#818C02"/><path d="M43.36 32.959h26.367a2.567 2.567 0 0 0 2.563-2.564 15.765 15.765 0 0 0-8.669-14.062 10.594 10.594 0 0 1-14.156 0 15.765 15.765 0 0 0-8.67 14.063 2.567 2.567 0 0 0 2.564 2.563ZM18.457 16.846a8.423 8.423 0 1 0 0-16.846 8.423 8.423 0 0 0 0 16.846Z" fill="#818C02"/><path d="M5.273 32.959h26.368a2.566 2.566 0 0 0 2.563-2.564 15.765 15.765 0 0 0-8.669-14.062 10.594 10.594 0 0 1-14.156 0A15.765 15.765 0 0 0 2.71 30.396a2.567 2.567 0 0 0 2.563 2.563Z" fill="#818C02"/><path d="M73.901 45.703A1.098 1.098 0 0 0 75 44.604v-5.859a1.098 1.098 0 0 0-1.099-1.098H1.1A1.098 1.098 0 0 0 0 38.745v5.86a1.098 1.098 0 0 0 1.099 1.098H2.71v21.24H1.099A1.099 1.099 0 0 0 0 68.042v5.86A1.099 1.099 0 0 0 1.099 75H73.9A1.098 1.098 0 0 0 75 73.901v-5.859a1.099 1.099 0 0 0-1.099-1.099H72.29v-21.24h1.611Zm-71.704-5.86h70.606v3.663H2.197v-3.662Zm70.606 32.96H2.197V69.14h70.606v3.662Zm-2.71-5.86H4.907v-21.24h65.186v21.24Z" fill="#1B325E"/><path d="M11.133 64.014a1.099 1.099 0 0 0 1.098-1.099V49.731a1.099 1.099 0 1 0-2.197 0v13.184a1.098 1.098 0 0 0 1.099 1.099ZM19.922 64.014a1.099 1.099 0 0 0 1.098-1.099V49.731a1.098 1.098 0 1 0-2.197 0v13.184a1.099 1.099 0 0 0 1.099 1.099ZM28.71 64.014a1.099 1.099 0 0 0 1.1-1.099V49.731a1.099 1.099 0 0 0-2.198 0v13.184a1.099 1.099 0 0 0 1.099 1.099ZM37.5 64.014a1.099 1.099 0 0 0 1.099-1.099V49.731a1.099 1.099 0 1 0-2.198 0v13.184a1.099 1.099 0 0 0 1.099 1.099ZM46.29 64.014a1.099 1.099 0 0 0 1.098-1.099V49.731a1.099 1.099 0 0 0-2.198 0v13.184a1.099 1.099 0 0 0 1.1 1.099ZM55.078 64.014a1.099 1.099 0 0 0 1.099-1.099V49.731a1.099 1.099 0 0 0-2.197 0v13.184a1.098 1.098 0 0 0 1.098 1.099ZM63.867 64.014a1.099 1.099 0 0 0 1.099-1.099V49.731a1.098 1.098 0 1 0-2.197 0v13.184a1.099 1.099 0 0 0 1.098 1.099Z" fill="#1B325E"/></g><defs><clipPath id="aa"><path fill="#fff" d="M0 0h75v75H0z"/></clipPath></defs></svg><svg width="75" height="75" fill="none" viewBox="0 0 75 75" id="agree-icon" y="150" xmlns="http://www.w3.org/2000/svg"><g clip-path="url(#da)"><path d="m73.203 26.074-1.587-.915.894-1.532a2.637 2.637 0 0 0 .322-1.842 2.545 2.545 0 0 0-1.24-1.717l-3.754-2.17a2.637 2.637 0 0 0-1.84-.32 2.55 2.55 0 0 0-1.712 1.23L54.032 36.57a2.564 2.564 0 0 0 .938 3.5l3.808 2.198a2.546 2.546 0 0 0 1.946.256 2.55 2.55 0 0 0 1.557-1.193l8.24-14.272 1.583.92a.366.366 0 0 1 .133.499l-4.394 7.617a1.098 1.098 0 1 0 1.904 1.099l4.395-7.617a2.565 2.565 0 0 0-.94-3.503ZM73.352 12.633a3.3 3.3 0 0 0-4.504 1.205l-.982 1.7c.355.106.696.253 1.017.439l3.808 2.197c.32.185.618.406.887.66l.983-1.695a3.299 3.299 0 0 0-1.209-4.506ZM45.337 59.234a1.099 1.099 0 0 0 1.645.973c3.06-1.751 5.6-4.282 7.364-7.335l4.714-8.163a4.755 4.755 0 0 1-1.385-.532l-3.808-2.197a4.755 4.755 0 0 1-1.153-.932l-4.712 8.162a19.948 19.948 0 0 0-2.665 10.024Z" fill="#E20E7F"/><path d="M65.552 0h-51.27A5.499 5.499 0 0 0 8.79 5.493v58.52H1.1A1.099 1.099 0 0 0 0 65.114v4.394A5.5 5.5 0 0 0 5.493 75h51.27a5.499 5.499 0 0 0 5.493-5.493v-25.23a4.759 4.759 0 0 1-2.197.538v24.692a3.296 3.296 0 0 1-6.592 0v-4.395a1.099 1.099 0 0 0-1.099-1.098H10.986V5.494a3.3 3.3 0 0 1 3.296-3.297h46.875a5.464 5.464 0 0 0-1.098 3.296V21.74l2.197-3.809v-6.945h7.69a1.099 1.099 0 0 0 1.099-1.098V5.493A5.499 5.499 0 0 0 65.552 0ZM52.368 72.803H5.493a3.298 3.298 0 0 1-3.296-3.296V66.21H51.27v3.296a5.463 5.463 0 0 0 1.102 3.296h-.003Zm16.48-64.014h-6.592V5.493a3.296 3.296 0 1 1 6.592 0V8.79Z" fill="#1B325E"/><path d="M45.22 8.684a1.83 1.83 0 0 0-2.178-2.564l-.475.147a9.754 9.754 0 0 1-6.626-.323 1.094 1.094 0 0 0-.843 0 9.868 9.868 0 0 1-3.75.753 9.754 9.754 0 0 1-2.867-.43l-.475-.147a1.831 1.831 0 0 0-2.178 2.564l.114.23a8.507 8.507 0 0 1 .514 6.038 8.729 8.729 0 0 0 3.294 9.398c.98.71 2.096 1.211 3.278 1.472l2.251.519c.162.037.33.037.492 0l2.252-.519a8.863 8.863 0 0 0 3.277-1.465 8.73 8.73 0 0 0 3.294-9.4 8.508 8.508 0 0 1 .514-6.038l.112-.235Zm-2.748 6.843a6.545 6.545 0 0 1-2.482 7.054c-.74.53-1.58.905-2.47 1.1l-2.003.461-2.006-.461a6.667 6.667 0 0 1-2.456-1.1 6.546 6.546 0 0 1-2.482-7.054 10.762 10.762 0 0 0-.425-7.073c1.041.29 2.116.438 3.197.44a12.08 12.08 0 0 0 4.178-.757c1.335.497 2.749.753 4.174.758 1.08-.002 2.156-.15 3.197-.44a10.762 10.762 0 0 0-.422 7.072ZM54.932 29.957a1.098 1.098 0 0 0-1.099-1.098H30.86a1.098 1.098 0 1 0 0 2.197h22.973a1.099 1.099 0 0 0 1.099-1.099ZM15.747 31.055h8.032a1.099 1.099 0 0 0 0-2.198h-8.032a1.099 1.099 0 0 0 0 2.198ZM50.537 37.282a1.098 1.098 0 0 0-1.099-1.099h-33.69a1.099 1.099 0 0 0 0 2.197h33.69a1.099 1.099 0 0 0 1.1-1.098ZM47.607 44.606a1.098 1.098 0 0 0-1.098-1.099H15.747a1.099 1.099 0 0 0 0 2.198H46.51a1.099 1.099 0 0 0 1.098-1.099ZM43.58 50.83H15.746a1.099 1.099 0 1 0 0 2.197H43.58a1.099 1.099 0 1 0 0-2.197ZM15.747 58.154a1.099 1.099 0 1 0 0 2.198h11.719a1.099 1.099 0 0 0 0-2.198H15.747ZM43.58 58.154H31.86a1.098 1.098 0 1 0 0 2.198h11.72a1.099 1.099 0 0 0 0-2.198Z" fill="#1B325E"/></g><defs><clipPath id="da"><path fill="#fff" d="M0 0h75v75H0z"/></clipPath></defs></svg><svg width="75" height="75" fill="none" viewBox="0 0 75 75" id="agree-icon-green" y="225" xmlns="http://www.w3.org/2000/svg"><g clip-path="url(#ca)"><path d="m73.203 26.074-1.587-.915.894-1.532a2.637 2.637 0 0 0 .322-1.842 2.545 2.545 0 0 0-1.24-1.717l-3.754-2.17a2.637 2.637 0 0 0-1.84-.32 2.55 2.55 0 0 0-1.712 1.23L54.032 36.57a2.564 2.564 0 0 0 .938 3.5l3.808 2.198a2.546 2.546 0 0 0 1.946.256 2.55 2.55 0 0 0 1.557-1.193l8.24-14.272 1.583.92a.366.366 0 0 1 .133.499l-4.394 7.617a1.098 1.098 0 1 0 1.904 1.099l4.395-7.617a2.565 2.565 0 0 0-.94-3.503ZM73.352 12.633a3.3 3.3 0 0 0-4.504 1.205l-.982 1.7c.355.106.696.253 1.017.439l3.808 2.197c.32.185.618.406.887.66l.983-1.695a3.299 3.299 0 0 0-1.209-4.506ZM45.337 59.234a1.099 1.099 0 0 0 1.645.973c3.06-1.751 5.6-4.282 7.364-7.335l4.714-8.163a4.755 4.755 0 0 1-1.385-.532l-3.808-2.197a4.755 4.755 0 0 1-1.153-.932l-4.712 8.162a19.948 19.948 0 0 0-2.665 10.024Z" fill="#818C02"/><path d="M65.552 0h-51.27A5.499 5.499 0 0 0 8.79 5.493v58.52H1.1A1.099 1.099 0 0 0 0 65.114v4.394A5.5 5.5 0 0 0 5.493 75h51.27a5.499 5.499 0 0 0 5.493-5.493v-25.23a4.759 4.759 0 0 1-2.197.538v24.692a3.296 3.296 0 0 1-6.592 0v-4.395a1.099 1.099 0 0 0-1.099-1.098H10.986V5.494a3.3 3.3 0 0 1 3.296-3.297h46.875a5.464 5.464 0 0 0-1.098 3.296V21.74l2.197-3.809v-6.945h7.69a1.099 1.099 0 0 0 1.099-1.098V5.493A5.499 5.499 0 0 0 65.552 0ZM52.368 72.803H5.493a3.298 3.298 0 0 1-3.296-3.296V66.21H51.27v3.296a5.463 5.463 0 0 0 1.102 3.296h-.003Zm16.48-64.014h-6.592V5.493a3.296 3.296 0 1 1 6.592 0V8.79Z" fill="#1B325E"/><path d="M45.22 8.684a1.83 1.83 0 0 0-2.178-2.564l-.475.147a9.754 9.754 0 0 1-6.626-.323 1.094 1.094 0 0 0-.843 0 9.868 9.868 0 0 1-3.75.753 9.754 9.754 0 0 1-2.867-.43l-.475-.147a1.83 1.83 0 0 0-2.178 2.564l.114.23a8.507 8.507 0 0 1 .514 6.038 8.729 8.729 0 0 0 3.294 9.398c.98.71 2.096 1.211 3.278 1.472l2.251.519c.162.037.33.037.492 0l2.252-.519a8.863 8.863 0 0 0 3.277-1.465 8.73 8.73 0 0 0 3.294-9.4 8.508 8.508 0 0 1 .514-6.038l.112-.235Zm-2.748 6.843a6.545 6.545 0 0 1-2.482 7.054c-.74.53-1.58.905-2.47 1.1l-2.003.461-2.006-.461a6.667 6.667 0 0 1-2.456-1.1 6.545 6.545 0 0 1-2.482-7.054 10.762 10.762 0 0 0-.425-7.073c1.041.29 2.116.438 3.197.44a12.08 12.08 0 0 0 4.178-.757c1.335.497 2.749.753 4.174.758 1.08-.002 2.156-.15 3.197-.44a10.762 10.762 0 0 0-.422 7.072ZM54.932 29.957a1.098 1.098 0 0 0-1.099-1.098H30.86a1.099 1.099 0 1 0 0 2.197h22.973a1.099 1.099 0 0 0 1.099-1.099ZM15.747 31.055h8.032a1.099 1.099 0 0 0 0-2.198h-8.032a1.099 1.099 0 0 0 0 2.198ZM50.537 37.282a1.098 1.098 0 0 0-1.099-1.099h-33.69a1.099 1.099 0 0 0 0 2.197h33.69a1.099 1.099 0 0 0 1.1-1.098ZM47.607 44.606a1.098 1.098 0 0 0-1.098-1.099H15.747a1.099 1.099 0 0 0 0 2.198H46.51a1.099 1.099 0 0 0 1.098-1.099ZM43.58 50.83H15.746a1.099 1.099 0 1 0 0 2.197H43.58a1.099 1.099 0 1 0 0-2.197ZM15.747 58.154a1.099 1.099 0 1 0 0 2.198h11.719a1.099 1.099 0 0 0 0-2.198H15.747ZM43.58 58.154H31.86a1.098 1.098 0 1 0 0 2.198h11.72a1.099 1.099 0 0 0 0-2.198Z" fill="#1B325E"/></g><defs><clipPath id="ca"><path fill="#fff" d="M0 0h75v75H0z"/></clipPath></defs></svg><svg width="22" height="16" fill="none" viewBox="0 0 22 16" id="envelop-icon" y="300" xmlns="http://www.w3.org/2000/svg"><path d="M1.572.07C.477.33-.21 1.413.064 2.44c.086.312.245.596.46.812.193.192 9.345 6.125 9.68 6.271a2.03 2.03 0 0 0 1.641-.02c.409-.188 9.376-6.005 9.603-6.23 1.07-1.058.486-2.857-1.044-3.206C20-.025 1.968-.021 1.572.07Z" fill="#1B325E"/><path d="M0 9.348c0 3.373.013 4.918.047 5.072.16.733.77 1.332 1.547 1.511.404.092 18.333.092 18.785 0 .781-.158 1.413-.766 1.572-1.511.056-.254.069-9.935.013-9.91-.017.004-2.092 1.345-4.614 2.977-2.523 1.632-4.722 3.035-4.894 3.114-.473.234-.877.321-1.457.321-.58 0-.984-.087-1.456-.32-.172-.08-2.372-1.483-4.894-3.115A831.792 831.792 0 0 0 .034 4.51C.013 4.5 0 6.679 0 9.348Z" fill="#1B325E"/></svg><svg width="22" height="22" fill="none" viewBox="0 0 22 22" id="phone-icon" y="316" xmlns="http://www.w3.org/2000/svg"><path d="M3.246.04c-.095.035-.232.091-.306.13-.167.086-1.518 1.376-1.922 1.828-.344.392-.667.99-.822 1.519-.791 2.735.839 6.783 4.418 10.964.615.714 2.482 2.55 3.235 3.179 4.034 3.36 7.833 4.865 10.543 4.177.184-.048.554-.194.813-.319.559-.275.791-.473 1.85-1.574.86-.895.945-1.037.945-1.57 0-.594.035-.55-2.202-2.779-1.85-1.84-1.983-1.97-2.206-2.043a1.478 1.478 0 0 0-1.054.043c-.198.09-.4.258-.942.796-.895.882-1.192 1.045-1.923 1.045-.443 0-.74-.095-1.265-.387a14.219 14.219 0 0 1-4.473-3.94c-.607-.822-1.17-1.781-1.295-2.198-.15-.534-.06-1.205.228-1.67.06-.098.404-.481.77-.847.52-.529.684-.722.774-.92.142-.314.16-.71.043-1.058-.073-.224-.202-.357-2.043-2.207C4.244.032 4.24.028 3.706.002a1.594 1.594 0 0 0-.46.039Z" fill="#1B325E"/></svg></svg>