<?xml version="1.0" encoding="utf-8"?>
<!-- Generator: Adobe Illustrator 24.0.1, SVG Export Plug-In . SVG Version: 6.00 Build 0)  -->
<svg version="1.1" id="Слой_1" xmlns="http://www.w3.org/2000/svg" xmlns:xlink="http://www.w3.org/1999/xlink" x="0px" y="0px"
	 viewBox="0 0 192 192" style="enable-background:new 0 0 192 192;" xml:space="preserve">
<style type="text/css">
	.st0{fill:#101010;}
</style>
<g transform="translate(0.000000,192.000000) scale(0.100000,-0.100000)">
	<path class="st0" d="M939,1897c-27-23-28-47-2-47c11,0,8-9-12-32c-15-18-24-39-22-50c6-23,1-23-30,2c-62,49-162,46-231-6
		c-44-34-62-73-62-134c0-60,21-111,60-143c19-16,24-27,18-37c-7-10,0-38,20-85l30-70h262h261l30,70c20,47,27,75,21,85s-2,20,15,33
		c58,46,80,153,47,224c-46,97-192,130-277,63c-33-26-37-25-37,5c0,14-9,34-21,46c-20,20-20,21-3,34c17,12,17,14-6,39
		C970,1925,972,1925,939,1897z M988,1777c4-21-25-34-40-19c-8,8-8,16,2,27C966,1804,984,1800,988,1777z M851,1735
		c35-23,37-27,49-109c7-48,10-93,6-101c-4-11-21-15-58-15c-29-1-64-7-77-14c-66-37-151,41-151,138c0,56,34,100,95,121
		C763,1772,802,1766,851,1735z M1253,1743c59-30,85-120,53-181c-31-60-94-90-137-66c-13,7-48,13-77,14c-65,0-68,6-54,113
		c10,70,16,85,39,105C1129,1770,1189,1776,1253,1743z M996,1702c18-11-7-167-26-167c-11,0-18,21-26,80c-12,83-9,95,26,95
		C978,1710,990,1706,996,1702z M1008,1481c8-4,13-21,12-37c-3-45-1-54,14-54c16,0,26,21,26,56c0,21,5,24,34,24c58,0,67-7,60-51
		c-5-32-4-39,10-39c10,0,21,13,27,30c7,19,18,30,30,30c24,0,24-7-1-64l-19-46H970H739l-19,43c-25,53-25,67-1,67c12,0,23-11,30-31
		c14-40,37-33,34,12c-2,39,9,49,55,49c33,0,35-3,46-52c10-46,36-35,36,15c0,24,3,47,7,50C936,1493,992,1491,1008,1481z"/>
	<path class="st0" d="M538,1239c-5-4-8-150-6-385l3-379l30-54c16-29,48-69,70-88c53-46,163-97,253-119c69-16,78-16,150-1
		c163,36,288,120,335,225l27,60l-2,373l-3,372l-423,1C739,1245,544,1242,538,1239z M941,1058c1-79,2-212,3-296l1-152l-45-15
		c-25-8-62-27-83-41l-38-25l3,163l3,163l47,3c39,3,49,0,58-18c9-17,14-19,26-9c16,13,18,67,4,89c-9,13-12,13-24-2c-9-13-27-18-65-18
		h-51v40c0,37,2,40,26,40c15,0,32-7,39-17c19-25,35-6,35,43c0,37-3,44-20,44c-11,0-20-7-20-15c0-10-10-15-30-15c-28,0-30,3-30,35
		c0,22,6,38,15,41c8,4,15,12,15,20c0,10-14,14-50,14c-38,0-50-4-50-15c0-9,7-18,15-21c9-4,15-19,15-40c0-29-3-34-25-34
		c-13,0-28,7-33,17c-17,29-42,8-42-36c0-45,17-63,35-38c7,10,24,17,39,17c24,0,26-3,26-40v-40h-51c-37,0-55,5-64,17
		c-18,24-35,7-35-36c0-48,23-72,40-41c9,18,19,21,58,18l47-3l3-137c2-90-1-138-8-138c-5,0-10,4-10,8c0,12-78,54-114,62l-31,6l-3,272
		l-2,272h185h185L941,1058z M1360,1015V830h-185H991l-3,178c-2,97-2,180,0,185c2,4,86,7,188,7h184V1015z M1360,766c0-13-7-29-15-36
		c-13-11-20-9-38,9c-29,26-47,27-81,0c-26-20-28-20-46-4c-25,22-65,22-90,0c-17-16-20-16-48,5c-17,12-35,20-40,16c-13-8-25,10-17,24
		c4,6,78,10,191,10h184V766z M1296,699c12-13,27-19,41-16c19,4,23,0,23-23c0-37-25-45-61-18l-29,22l-31-23c-30-23-33-23-59-7
		c-35,20-54,20-85,0c-22-14-26-14-47,0c-12,9-30,16-40,16c-13,0-18,8-18,30c0,35,7,37,49,13c29-17,32-17,65,1c32,17,36,17,57,2
		c31-22,62-20,84,4C1268,725,1272,725,1296,699z M656,585c31-18,49-39,66-75c13-27,29-49,37-50c7,0,31,16,53,36c39,35,94,64,121,64
		c10,0,13-14,13-52l-1-53l-39-6c-45-7-106-65-106-99c0-30,17-24,59,20c26,27,46,40,64,40c27,0,27,0,27-78c0-43-3-81-6-84
		c-9-10-115,22-182,54c-64,30-152,104-152,127c0,10,11,12,44,7c49-8,65,4,40,28c-10,10-33,16-63,16c-46,0-49,1-55,31
		c-3,17-6,47-6,65c0,28,4,34,22,34C604,610,632,599,656,585z M1030,595c7-8,25-15,40-15s33,7,40,15s18,15,25,15s18-7,25-15
		c16-20,60-19,88,1c21,15,25,15,41,0c10-9,30-16,44-16c20,0,27-5,27-20c0-31-34-43-55-20c-23,25-40,25-76-1c-28-19-31-20-48-5
		c-23,20-69,21-92,0c-16-14-20-14-47,6c-17,12-35,19-41,16c-7-5-11,2-11,17C990,611,1008,621,1030,595z M1283,505c4-8,20-18,37-22
		c27-7,29-10,18-26c-11-15-17-16-45-5c-29,11-36,10-61-9l-28-20l-36,21l-37,21l-29-22c-30-22-30-22-55-3c-14,11-32,20-41,20
		c-10,0-16,9-16,25c0,30,8,31,49,8c29-17,32-17,65,1c32,17,36,17,57,2c31-22,62-20,84,4S1276,525,1283,505z M1037,400
		c32-25,45-25,74-1c23,19,24,19,61-2l37-22l31,24c28,20,34,21,47,9c13-13,10-18-18-42c-34-29-31-28-122-9c-17,3-36-1-52-11
		c-24-16-27-15-54,5c-16,12-34,18-40,15c-12-8-16,36-4,47C1006,423,1009,422,1037,400z M1034,305c25-19,60-19,76,0c14,17,46,20,55,5
		c7-11-45-34-121-54l-54-14v32C990,322,1001,330,1034,305z"/>
	<path class="st0" d="M1139,1113c-13-21-40-48-59-61s-36-27-38-32s14-20,36-34s49-41,62-60c12-20,27-36,33-36c7,0,22,16,35,35
		c12,19,38,45,57,57c45,29,44,48-3,75c-21,12-47,37-57,57c-11,20-25,36-31,36S1152,1133,1139,1113z M1204,1049l29-31l-30-30l-30-30
		l-31,31l-31,31l27,29c15,16,29,29,32,30C1173,1079,1188,1066,1204,1049z"/>
	<path class="st0" d="M344,1093c-16-38-16-158,1-196c6-14,3-17-16-15c-21,3-25-3-33-44c-7-36-5-62,6-105c15-50,15-58,1-72
		c-24-23-10-122,26-186c21-37,27-55,19-63c-28-28,41-140,112-179c27-16,48-32,46-38c-7-20,16-46,67-75c44-25,63-30,120-30
		c47,0,80,6,111,20c33,16,49,18,68,11c30-11,68-57,68-81c0-26,23-43,38-28c7,7,12,19,12,29c0,23,38,69,68,80c19,7,35,4,70-13
		c63-30,151-30,211,1c54,28,93,65,86,83c-3,8,7,19,25,27c49,21,89,60,115,112c27,53,31,75,14,81c-7,2,1,26,21,62c28,48,33,69,34,122
		c1,41-3,67-11,72c-10,6-9,19,3,57c17,55,13,143-7,156c-7,4-19,5-27,1c-12-4-14-1-7,14c17,39,18,158,1,197c-19,46-38,47-69,5
		c-59-79-59-81-61-367c-1-258-2-267-25-314c-52-106-179-196-347-246c-42-12-80-31-94-46l-23-24l-33,29c-19,16-53,34-76,40
		c-185,47-337,162-373,284c-15,51-22,212-16,401c4,118,3,135-18,180c-24,55-57,95-78,95C365,1130,352,1113,344,1093z M410,1028
		c21-47,28-168,10-168c-6,0-20,19-30,43c-26,55-27,167-3,167C389,1070,400,1051,410,1028z M1560,1002c0-57-29-142-48-142
		c-14,0-22,70-13,110c11,49,40,102,51,95C1556,1061,1560,1033,1560,1002z M370,803c32-41,50-90,50-136v-40l-21,19
		c-30,27-58,87-66,139C326,838,338,843,370,803z M1597,785c-8-52-36-112-66-139l-21-19v41c0,49,13,86,46,129
		C1591,843,1604,839,1597,785z M395,560c23-31,51-127,40-138c-8-9-45,30-70,73c-13,22-26,60-30,84c-7,43-7,44,14,28
		C361,599,382,578,395,560z M1595,578c-14-70-82-174-101-155c-15,14,20,112,54,148C1590,619,1604,620,1595,578z M459,350
		c36-18,101-84,101-102c0-29-100,19-133,64C379,378,387,387,459,350z M1526,343c-20-39-54-69-106-92c-55-25-63-12-23,37
		c32,40,97,82,126,82C1539,370,1539,368,1526,343z M728,170c24-11,41-24,37-30c-12-20-124-12-166,12c-27,15-35,24-27,30
		C596,197,684,190,728,170z M1344,184c9-3,16-9,16-14c0-10-70-39-100-41c-53-4-100,1-100,11C1160,170,1297,202,1344,184z"/>
</g>
</svg>
