<?xml version="1.0" encoding="utf-8"?>
<!-- Generator: Adobe Illustrator 24.0.1, SVG Export Plug-In . SVG Version: 6.00 Build 0)  -->
<svg version="1.1" id="Слой_1" xmlns="http://www.w3.org/2000/svg" xmlns:xlink="http://www.w3.org/1999/xlink" x="0px" y="0px"
	 viewBox="0 0 512 512" style="enable-background:new 0 0 512 512;" xml:space="preserve">
<style type="text/css">
	.st0{fill:#818C02;}
	.st1{fill:#E20E7F;}
	.st2{fill:none;stroke:#E20E7F;stroke-width:5.3333;stroke-miterlimit:10;}
	.st3{fill:#1B325E;}
</style>
<path class="st0" d="M292.8,366.1l-23.2-16.4l86-118.8l-86-118.8l23.2-17.4l97.6,135.2L292.8,366.1z"/>
<path class="st0" d="M295.7,86v343.9c-4.8,0-9.7,1-14.5,1l0,0c-4.8,0-9.7,0-13.5-1V86H295.7z"/>
<path class="st1" d="M295.7,434.7v29c-4.8,0-9.7,0-14.5,0l0,0c-4.8,0-9.7,0-13.5,0v-29c4.8,0,9.7,1,13.5,1l0,0
	C286.1,434.7,290.9,434.7,295.7,434.7z"/>
<path class="st2" d="M281.2,80.2v-6.8v-2.9v-1.9v-3.9"/>
<path class="st3" d="M281.2,474.3L214.6,512h66.7H348L281.2,474.3z"/>
<path class="st1" d="M311.2,432.8v29c-4.8,1-10.6,1-15.5,1.9c-4.8,0-9.7,0-14.5,0l0,0c-4.8,0-9.7,0-13.5,0
	C147,456,51.3,354.5,51.3,231.8C51.3,104.3,154.7,0,281.2,0h14.5v47.3c-4.8,0-9.7-1-13.5-1c-4.8,0-9.7,0-14.5,1V29
	C162.4,35.7,79.3,124.6,79.3,231.8S162.4,427,266.8,434.7c4.8,0,9.7,1,13.5,1l0,0c4.8,0,9.7,0,14.5-1
	C300.6,433.7,306.4,433.7,311.2,432.8z"/>
<path class="st3" d="M295.7,382.5c-4.8,1-9.7,1-14.5,1s-9.7,0-14.5-1c-76.3-6.8-136.2-72.5-136.2-150.7
	c0-83.1,67.6-151.7,149.7-151.7c83.1,0,149.7,67.6,149.7,151.7C431.9,310.1,372.1,374.8,295.7,382.5z M300.6,53.1c-1,0-1.9,0-2.9,0
	s-1.9,0-2.9,0c-4.8,0-9.7-1-13.5-1c-4.8,0-9.7,0-14.5,1c-1,0-1.9,0-2.9,0s-1.9,0-2.9,0c-88.9,9.7-158.4,86-158.4,178.7
	c0,94.7,72.5,172,164.2,179.7c4.8,0,9.7,1,14.5,1s9.7,0,14.5-1c91.8-7.7,164.2-85,164.2-179.7C460,139.1,390.4,62.8,300.6,53.1z"/>
</svg>
