<svg width="75" height="75" viewBox="0 0 75 75" fill="none" xmlns="http://www.w3.org/2000/svg">
<g clip-path="url(#clip0_312_719)">
<path d="M56.543 16.8457C61.1948 16.8457 64.9658 13.0747 64.9658 8.42285C64.9658 3.77104 61.1948 0 56.543 0C51.8912 0 48.1201 3.77104 48.1201 8.42285C48.1201 13.0747 51.8912 16.8457 56.543 16.8457Z" fill="#E20E7F"/>
<path d="M43.3594 32.959H69.7266C70.4062 32.9582 71.0578 32.6879 71.5384 32.2073C72.0189 31.7267 72.2893 31.0751 72.29 30.3955C72.2873 27.479 71.4755 24.6205 69.9451 22.1378C68.4146 19.6552 66.2254 17.6457 63.6211 16.333C61.6769 18.0789 59.156 19.0446 56.543 19.0446C53.9299 19.0446 51.409 18.0789 49.4648 16.333C46.8605 17.6457 44.6713 19.6552 43.1409 22.1378C41.6104 24.6205 40.7987 27.479 40.7959 30.3955C40.7967 31.0751 41.067 31.7267 41.5476 32.2073C42.0282 32.6879 42.6797 32.9582 43.3594 32.959Z" fill="#E20E7F"/>
<path d="M18.457 16.8457C23.1088 16.8457 26.8799 13.0747 26.8799 8.42285C26.8799 3.77104 23.1088 0 18.457 0C13.8052 0 10.0342 3.77104 10.0342 8.42285C10.0342 13.0747 13.8052 16.8457 18.457 16.8457Z" fill="#E20E7F"/>
<path d="M5.27344 32.959H31.6406C32.3203 32.9582 32.9718 32.6879 33.4524 32.2073C33.933 31.7267 34.2033 31.0751 34.2041 30.3955C34.2013 27.479 33.3896 24.6205 31.8591 22.1378C30.3287 19.6552 28.1395 17.6457 25.5352 16.333C23.591 18.0789 21.0701 19.0446 18.457 19.0446C15.844 19.0446 13.3231 18.0789 11.3789 16.333C8.77455 17.6457 6.5854 19.6552 5.05494 22.1378C3.52449 24.6205 2.71273 27.479 2.70996 30.3955C2.71074 31.0751 2.98107 31.7267 3.46164 32.2073C3.94222 32.6879 4.5938 32.9582 5.27344 32.959Z" fill="#E20E7F"/>
<path d="M73.9014 45.7031C74.1927 45.7031 74.4722 45.5874 74.6782 45.3813C74.8843 45.1753 75 44.8959 75 44.6045V38.7451C75 38.4537 74.8843 38.1743 74.6782 37.9683C74.4722 37.7622 74.1927 37.6465 73.9014 37.6465H1.09863C0.807257 37.6465 0.527816 37.7622 0.321782 37.9683C0.115748 38.1743 0 38.4537 0 38.7451L0 44.6045C0 44.8959 0.115748 45.1753 0.321782 45.3813C0.527816 45.5874 0.807257 45.7031 1.09863 45.7031H2.70996V66.9434H1.09863C0.807257 66.9434 0.527816 67.0591 0.321782 67.2651C0.115748 67.4712 0 67.7506 0 68.042L0 73.9014C0 74.1927 0.115748 74.4722 0.321782 74.6782C0.527816 74.8843 0.807257 75 1.09863 75H73.9014C74.1927 75 74.4722 74.8843 74.6782 74.6782C74.8843 74.4722 75 74.1927 75 73.9014V68.042C75 67.7506 74.8843 67.4712 74.6782 67.2651C74.4722 67.0591 74.1927 66.9434 73.9014 66.9434H72.29V45.7031H73.9014ZM2.19727 39.8438H72.8027V43.5059H2.19727V39.8438ZM72.8027 72.8027H2.19727V69.1406H72.8027V72.8027ZM70.0928 66.9434H4.90723V45.7031H70.0928V66.9434Z" fill="#1B325E"/>
<path d="M11.1328 64.0137C11.4242 64.0137 11.7036 63.8979 11.9097 63.6919C12.1157 63.4859 12.2314 63.2064 12.2314 62.915V49.7314C12.2314 49.4401 12.1157 49.1606 11.9097 48.9546C11.7036 48.7486 11.4242 48.6328 11.1328 48.6328C10.8414 48.6328 10.562 48.7486 10.356 48.9546C10.1499 49.1606 10.0342 49.4401 10.0342 49.7314V62.915C10.0342 63.2064 10.1499 63.4859 10.356 63.6919C10.562 63.8979 10.8414 64.0137 11.1328 64.0137Z" fill="#1B325E"/>
<path d="M19.9219 64.0137C20.2133 64.0137 20.4927 63.8979 20.6987 63.6919C20.9048 63.4859 21.0205 63.2064 21.0205 62.915V49.7314C21.0205 49.4401 20.9048 49.1606 20.6987 48.9546C20.4927 48.7486 20.2133 48.6328 19.9219 48.6328C19.6305 48.6328 19.3511 48.7486 19.145 48.9546C18.939 49.1606 18.8232 49.4401 18.8232 49.7314V62.915C18.8232 63.2064 18.939 63.4859 19.145 63.6919C19.3511 63.8979 19.6305 64.0137 19.9219 64.0137Z" fill="#1B325E"/>
<path d="M28.7109 64.0137C29.0023 64.0137 29.2818 63.8979 29.4878 63.6919C29.6938 63.4859 29.8096 63.2064 29.8096 62.915V49.7314C29.8096 49.4401 29.6938 49.1606 29.4878 48.9546C29.2818 48.7486 29.0023 48.6328 28.7109 48.6328C28.4196 48.6328 28.1401 48.7486 27.9341 48.9546C27.7281 49.1606 27.6123 49.4401 27.6123 49.7314V62.915C27.6123 63.2064 27.7281 63.4859 27.9341 63.6919C28.1401 63.8979 28.4196 64.0137 28.7109 64.0137Z" fill="#1B325E"/>
<path d="M37.5 64.0137C37.7914 64.0137 38.0708 63.8979 38.2769 63.6919C38.4829 63.4859 38.5986 63.2064 38.5986 62.915V49.7314C38.5986 49.4401 38.4829 49.1606 38.2769 48.9546C38.0708 48.7486 37.7914 48.6328 37.5 48.6328C37.2086 48.6328 36.9292 48.7486 36.7231 48.9546C36.5171 49.1606 36.4014 49.4401 36.4014 49.7314V62.915C36.4014 63.2064 36.5171 63.4859 36.7231 63.6919C36.9292 63.8979 37.2086 64.0137 37.5 64.0137Z" fill="#1B325E"/>
<path d="M46.2891 64.0137C46.5804 64.0137 46.8599 63.8979 47.0659 63.6919C47.2719 63.4859 47.3877 63.2064 47.3877 62.915V49.7314C47.3877 49.4401 47.2719 49.1606 47.0659 48.9546C46.8599 48.7486 46.5804 48.6328 46.2891 48.6328C45.9977 48.6328 45.7182 48.7486 45.5122 48.9546C45.3062 49.1606 45.1904 49.4401 45.1904 49.7314V62.915C45.1904 63.2064 45.3062 63.4859 45.5122 63.6919C45.7182 63.8979 45.9977 64.0137 46.2891 64.0137Z" fill="#1B325E"/>
<path d="M55.0781 64.0137C55.3695 64.0137 55.6489 63.8979 55.855 63.6919C56.061 63.4859 56.1768 63.2064 56.1768 62.915V49.7314C56.1768 49.4401 56.061 49.1606 55.855 48.9546C55.6489 48.7486 55.3695 48.6328 55.0781 48.6328C54.7867 48.6328 54.5073 48.7486 54.3013 48.9546C54.0952 49.1606 53.9795 49.4401 53.9795 49.7314V62.915C53.9795 63.2064 54.0952 63.4859 54.3013 63.6919C54.5073 63.8979 54.7867 64.0137 55.0781 64.0137Z" fill="#1B325E"/>
<path d="M63.8672 64.0137C64.1586 64.0137 64.438 63.8979 64.644 63.6919C64.8501 63.4859 64.9658 63.2064 64.9658 62.915V49.7314C64.9658 49.4401 64.8501 49.1606 64.644 48.9546C64.438 48.7486 64.1586 48.6328 63.8672 48.6328C63.5758 48.6328 63.2964 48.7486 63.0903 48.9546C62.8843 49.1606 62.7686 49.4401 62.7686 49.7314V62.915C62.7686 63.2064 62.8843 63.4859 63.0903 63.6919C63.2964 63.8979 63.5758 64.0137 63.8672 64.0137Z" fill="#1B325E"/>
</g>
<defs>
<clipPath id="clip0_312_719">
<rect width="75" height="75" fill="white"/>
</clipPath>
</defs>
</svg>
