<svg width="75" height="75" viewBox="0 0 75 75" fill="none" xmlns="http://www.w3.org/2000/svg">
<g clip-path="url(#clip0_312_735)">
<path d="M73.2026 26.0742L71.6162 25.1587L72.5098 23.6265C72.8384 23.0726 72.9531 22.4177 72.832 21.7852C72.7608 21.4268 72.6133 21.088 72.3995 20.7917C72.1856 20.4955 71.9105 20.2488 71.5928 20.0684L67.8384 17.8989C67.2844 17.5707 66.6294 17.4566 65.9971 17.5781C65.6407 17.6495 65.3036 17.7961 65.0086 18.0084C64.7135 18.2206 64.4672 18.4934 64.2861 18.8086L54.0322 36.5698C53.6925 37.1584 53.6004 37.8579 53.7762 38.5144C53.952 39.1709 54.3813 39.7307 54.9697 40.0708L58.7783 42.2681C59.1668 42.4936 59.6079 42.6124 60.0571 42.6123C60.2822 42.6121 60.5062 42.5826 60.7236 42.5244C61.0491 42.4381 61.3543 42.2881 61.6216 42.0832C61.8889 41.8783 62.1129 41.6225 62.2808 41.3306L70.5205 27.0586L72.104 27.9785C72.1878 28.0272 72.2489 28.1071 72.2738 28.2007C72.2988 28.2944 72.2857 28.3941 72.2373 28.478L67.8428 36.0952C67.7706 36.2202 67.7238 36.3583 67.705 36.5014C67.6862 36.6445 67.6958 36.7899 67.7332 36.9294C67.7706 37.0688 67.8351 37.1995 67.923 37.314C68.011 37.4285 68.1206 37.5245 68.2456 37.5967C68.3706 37.6688 68.5087 37.7156 68.6518 37.7344C68.7949 37.7532 68.9403 37.7436 69.0798 37.7062C69.2192 37.6688 69.3499 37.6043 69.4644 37.5164C69.5789 37.4285 69.6749 37.3189 69.7471 37.1938L74.1416 29.5767C74.4813 28.9876 74.5732 28.2878 74.3971 27.6311C74.2211 26.9743 73.7914 26.4143 73.2026 26.0742Z" fill="#E20E7F"/>
<path d="M73.3521 12.6328C72.5948 12.1958 71.695 12.0773 70.8503 12.3033C70.0057 12.5294 69.2854 13.0815 68.8477 13.8384L67.8662 15.5376C68.2212 15.6436 68.5624 15.7911 68.8828 15.977L72.6914 18.1743C73.0113 18.359 73.3087 18.5802 73.5776 18.8335L74.5605 17.1386C74.9978 16.3809 75.1161 15.4804 74.8895 14.6354C74.6628 13.7904 74.1098 13.0701 73.3521 12.6328Z" fill="#E20E7F"/>
<path d="M45.3369 59.2339C45.3345 59.5213 45.4425 59.7987 45.6387 60.0088C45.808 60.1875 46.0325 60.3041 46.2761 60.34C46.5197 60.3759 46.7683 60.3289 46.9819 60.2065C50.0418 58.4558 52.5828 55.925 54.3457 52.8721L59.0596 44.7085C58.5732 44.6048 58.1061 44.4253 57.6753 44.1768L53.8667 41.9795C53.4361 41.7311 53.0471 41.4168 52.7139 41.0479L48.0015 49.21C46.245 52.2579 45.3257 55.7161 45.3369 59.2339Z" fill="#E20E7F"/>
<path d="M65.5518 0H14.2822C12.8258 0.00155101 11.4295 0.580792 10.3997 1.61062C9.36985 2.64046 8.79061 4.03676 8.78906 5.49316V64.0137H1.09863C0.807257 64.0137 0.527816 64.1294 0.321782 64.3354C0.115748 64.5415 0 64.8209 0 65.1123L0 69.5068C0.00155101 70.9632 0.580792 72.3595 1.61062 73.3894C2.64046 74.4192 4.03676 74.9985 5.49316 75H56.7627C58.2191 74.9985 59.6154 74.4192 60.6452 73.3894C61.6751 72.3595 62.2543 70.9632 62.2559 69.5068V44.2764C61.5774 44.6301 60.8237 44.815 60.0586 44.8154V69.5068C60.0586 70.381 59.7113 71.2193 59.0933 71.8374C58.4751 72.4555 57.6368 72.8027 56.7627 72.8027C55.8886 72.8027 55.0502 72.4555 54.4321 71.8374C53.814 71.2193 53.4668 70.381 53.4668 69.5068V65.1123C53.4668 64.8209 53.3511 64.5415 53.145 64.3354C52.939 64.1294 52.6595 64.0137 52.3682 64.0137H10.9863V5.49316C10.9871 4.61928 11.3346 3.7814 11.9525 3.16347C12.5705 2.54554 13.4083 2.19804 14.2822 2.19727H61.1572C60.4422 3.14711 60.0565 4.30426 60.0586 5.49316V21.7397L62.2559 17.9312V10.9863H69.9463C70.0906 10.9863 70.2334 10.9579 70.3667 10.9027C70.5 10.8475 70.6211 10.7666 70.7231 10.6645C70.8252 10.5625 70.9061 10.4414 70.9613 10.3081C71.0165 10.1748 71.0449 10.032 71.0449 9.8877V5.49316C71.0434 4.03676 70.4641 2.64046 69.4343 1.61062C68.4045 0.580792 67.0082 0.00155101 65.5518 0ZM52.3682 72.8027H5.49316C4.61928 72.802 3.7814 72.4545 3.16347 71.8365C2.54554 71.2186 2.19804 70.3807 2.19727 69.5068V66.2109H51.2695V69.5068C51.2682 70.6961 51.655 71.8533 52.3711 72.8027H52.3682ZM68.8477 8.78906H62.2559V5.49316C62.2559 4.61904 62.6031 3.78071 63.2212 3.16261C63.8393 2.54451 64.6776 2.19727 65.5518 2.19727C66.4259 2.19727 67.2642 2.54451 67.8823 3.16261C68.5004 3.78071 68.8477 4.61904 68.8477 5.49316V8.78906Z" fill="#1B325E"/>
<path d="M45.2197 8.68359C45.3787 8.36292 45.4401 8.0027 45.3965 7.64746C45.353 7.29223 45.2062 6.95756 44.9745 6.68482C44.7427 6.41209 44.4361 6.21324 44.0926 6.11288C43.7491 6.01252 43.3836 6.01503 43.0415 6.12012L42.5669 6.2666C41.6372 6.55243 40.6699 6.69759 39.6973 6.69727C38.4082 6.69405 37.1322 6.43825 35.9414 5.94434C35.8078 5.8885 35.6644 5.85974 35.5195 5.85974C35.3747 5.85974 35.2313 5.8885 35.0977 5.94434C33.9087 6.4375 32.6348 6.69328 31.3477 6.69727C30.376 6.6973 29.4097 6.55214 28.481 6.2666L28.0064 6.12012C27.6642 6.01503 27.2988 6.01252 26.9553 6.11288C26.6117 6.21324 26.3051 6.41209 26.0734 6.68482C25.8416 6.95756 25.6949 7.29223 25.6513 7.64746C25.6077 8.0027 25.6692 8.36292 25.8281 8.68359L25.9424 8.91357C26.8491 10.7949 27.0321 12.9441 26.4565 14.9517C25.9817 16.6671 26.0427 18.4867 26.6313 20.1665C27.2198 21.8464 28.3079 23.3061 29.7495 24.3501C30.7301 25.0599 31.8459 25.561 33.0278 25.8223L35.2793 26.3408C35.4413 26.3779 35.6095 26.3779 35.7715 26.3408L38.023 25.8223C39.2037 25.5626 40.3189 25.0641 41.2998 24.3574C42.7418 23.3134 43.8302 21.8535 44.4191 20.1734C45.0079 18.4933 45.069 16.6733 44.5942 14.9575C44.0187 12.9499 44.2017 10.8008 45.1084 8.91943L45.2197 8.68359ZM42.4717 15.5273C42.8278 16.8157 42.7809 18.1823 42.3373 19.4432C41.8937 20.7041 41.0746 21.799 39.9902 22.5806C39.2507 23.1119 38.4102 23.4863 37.5205 23.6807L35.5166 24.1421L33.5112 23.6807C32.6261 23.4848 31.7902 23.1105 31.0547 22.5806C29.9703 21.799 29.1513 20.7041 28.7076 19.4432C28.264 18.1823 28.2171 16.8157 28.5732 15.5273C29.2343 13.1891 29.0845 10.696 28.1484 8.45361C29.1891 8.74395 30.2643 8.89178 31.3447 8.89307C32.771 8.88974 34.1854 8.63384 35.5225 8.13721C36.8585 8.634 38.2719 8.89039 39.6973 8.89453C40.7777 8.89324 41.8529 8.74541 42.8936 8.45508C41.9588 10.6973 41.8101 13.1899 42.4717 15.5273Z" fill="#1B325E"/>
<path d="M54.9316 29.9575C54.9316 29.6661 54.8159 29.3867 54.6099 29.1807C54.4038 28.9746 54.1244 28.8589 53.833 28.8589H30.8599C30.5685 28.8589 30.289 28.9746 30.083 29.1807C29.877 29.3867 29.7612 29.6661 29.7612 29.9575C29.7612 30.2489 29.877 30.5283 30.083 30.7344C30.289 30.9404 30.5685 31.0562 30.8599 31.0562H53.833C54.1244 31.0562 54.4038 30.9404 54.6099 30.7344C54.8159 30.5283 54.9316 30.2489 54.9316 29.9575Z" fill="#1B325E"/>
<path d="M15.7471 31.0547H23.7788C24.0702 31.0547 24.3496 30.9389 24.5557 30.7329C24.7617 30.5269 24.8774 30.2474 24.8774 29.9561C24.8774 29.6647 24.7617 29.3852 24.5557 29.1792C24.3496 28.9732 24.0702 28.8574 23.7788 28.8574H15.7471C15.4557 28.8574 15.1763 28.9732 14.9702 29.1792C14.7642 29.3852 14.6484 29.6647 14.6484 29.9561C14.6484 30.2474 14.7642 30.5269 14.9702 30.7329C15.1763 30.9389 15.4557 31.0547 15.7471 31.0547Z" fill="#1B325E"/>
<path d="M50.5371 37.2817C50.5371 36.9904 50.4214 36.7109 50.2153 36.5049C50.0093 36.2989 49.7299 36.1831 49.4385 36.1831H15.7471C15.4557 36.1831 15.1763 36.2989 14.9702 36.5049C14.7642 36.7109 14.6484 36.9904 14.6484 37.2817C14.6484 37.5731 14.7642 37.8526 14.9702 38.0586C15.1763 38.2646 15.4557 38.3804 15.7471 38.3804H49.4385C49.7299 38.3804 50.0093 38.2646 50.2153 38.0586C50.4214 37.8526 50.5371 37.5731 50.5371 37.2817Z" fill="#1B325E"/>
<path d="M47.6074 44.606C47.6074 44.3146 47.4917 44.0351 47.2856 43.8291C47.0796 43.6231 46.8002 43.5073 46.5088 43.5073H15.7471C15.4557 43.5073 15.1763 43.6231 14.9702 43.8291C14.7642 44.0351 14.6484 44.3146 14.6484 44.606C14.6484 44.8973 14.7642 45.1768 14.9702 45.3828C15.1763 45.5888 15.4557 45.7046 15.7471 45.7046H46.5088C46.8002 45.7046 47.0796 45.5888 47.2856 45.3828C47.4917 45.1768 47.6074 44.8973 47.6074 44.606Z" fill="#1B325E"/>
<path d="M43.5791 50.8301H15.7471C15.4557 50.8301 15.1763 50.9458 14.9702 51.1519C14.7642 51.3579 14.6484 51.6373 14.6484 51.9287C14.6484 52.2201 14.7642 52.4995 14.9702 52.7056C15.1763 52.9116 15.4557 53.0273 15.7471 53.0273H43.5791C43.8705 53.0273 44.1499 52.9116 44.356 52.7056C44.562 52.4995 44.6777 52.2201 44.6777 51.9287C44.6777 51.6373 44.562 51.3579 44.356 51.1519C44.1499 50.9458 43.8705 50.8301 43.5791 50.8301Z" fill="#1B325E"/>
<path d="M15.7471 58.1543C15.4557 58.1543 15.1763 58.27 14.9702 58.4761C14.7642 58.6821 14.6484 58.9616 14.6484 59.2529C14.6484 59.5443 14.7642 59.8237 14.9702 60.0298C15.1763 60.2358 15.4557 60.3516 15.7471 60.3516H27.4658C27.7572 60.3516 28.0366 60.2358 28.2427 60.0298C28.4487 59.8237 28.5645 59.5443 28.5645 59.2529C28.5645 58.9616 28.4487 58.6821 28.2427 58.4761C28.0366 58.27 27.7572 58.1543 27.4658 58.1543H15.7471Z" fill="#1B325E"/>
<path d="M43.5791 58.1543H31.8604C31.569 58.1543 31.2895 58.27 31.0835 58.4761C30.8775 58.6821 30.7617 58.9616 30.7617 59.2529C30.7617 59.5443 30.8775 59.8237 31.0835 60.0298C31.2895 60.2358 31.569 60.3516 31.8604 60.3516H43.5791C43.8705 60.3516 44.1499 60.2358 44.356 60.0298C44.562 59.8237 44.6777 59.5443 44.6777 59.2529C44.6777 58.9616 44.562 58.6821 44.356 58.4761C44.1499 58.27 43.8705 58.1543 43.5791 58.1543Z" fill="#1B325E"/>
</g>
<defs>
<clipPath id="clip0_312_735">
<rect width="75" height="75" fill="white"/>
</clipPath>
</defs>
</svg>
