<svg width="32" height="20" viewBox="0 0 32 20" fill="none" xmlns="http://www.w3.org/2000/svg">
<g clip-path="url(#clip0_1_1880)">
<path d="M9.87108 20.0008C15.32 20.0008 19.7373 15.525 19.7373 10.0038C19.7373 4.48263 15.32 0.00683594 9.87108 0.00683594C4.42212 0.00683594 0.00488281 4.48263 0.00488281 10.0038C0.00488281 15.525 4.42212 20.0008 9.87108 20.0008Z" fill="#7F7F7F"/>
<path d="M22.1289 20.0008C27.5778 20.0008 31.995 15.525 31.995 10.0038C31.995 4.48263 27.5778 0.00683594 22.1289 0.00683594C16.6799 0.00683594 12.2627 4.48263 12.2627 10.0038C12.2627 15.525 16.6799 20.0008 22.1289 20.0008Z" fill="#7F7F7F"/>
<path d="M12.2627 10.0038C12.2627 13.178 13.723 16.0064 15.9998 17.8377C18.2765 16.0064 19.7369 13.178 19.7369 10.0038C19.7369 6.82955 18.2766 4.00113 15.9998 2.16992C13.7231 4.00129 12.2627 6.82962 12.2627 10.0038Z" fill="#A2A2A2"/>
</g>
<defs>
<clipPath id="clip0_1_1880">
<rect width="32" height="20" fill="white"/>
</clipPath>
</defs>
</svg>
