<svg width="50" height="49" viewBox="0 0 50 49" fill="none" xmlns="http://www.w3.org/2000/svg">
<path d="M12.5002 0.833313C12.1877 0.833313 11.8753 0.950653 11.68 1.18503L3.86752 8.99753C3.63315 9.19284 3.51581 9.50519 3.51581 9.81769V32.1094C3.51581 32.7734 4.02362 33.2812 4.68768 33.2812C5.35174 33.2812 5.85956 32.7734 5.85956 32.1094V10.9896H44.1408V32.1094C44.1408 32.7734 44.6486 33.2812 45.3127 33.2812C45.9767 33.2812 46.4846 32.7734 46.4846 32.1094V9.81769C46.4846 9.50519 46.3672 9.19284 46.1328 8.99753L38.3203 1.18503C38.125 0.950653 37.8127 0.833313 37.5002 0.833313H12.5002ZM12.9686 3.17706H23.8283V8.64581H7.49988L12.9686 3.17706ZM26.1721 3.17706H37.0317L42.5005 8.64581H26.1721V3.17706ZM43.0094 37.7154C42.4694 37.7277 41.9774 38.1253 41.8749 38.6722C41.7577 39.2972 42.1875 39.9222 42.8125 40.0393L45.508 40.5467C32.3439 49.0233 14.9613 48.4764 2.30502 38.9842C1.79721 38.5936 1.05456 38.7106 0.663939 39.2184C0.273314 39.7262 0.391112 40.4689 0.898924 40.8595C8.0083 46.2111 16.5235 48.8673 25.0391 48.8673C32.6172 48.8673 40.1958 46.7576 46.7974 42.4998L46.2892 45.1175C46.1721 45.7425 46.6019 46.3675 47.2269 46.4847C47.305 46.4847 47.383 46.5236 47.4611 46.5236C48.008 46.5236 48.516 46.1328 48.5941 45.5859L49.6096 40.1561C49.6486 39.8436 49.6096 39.5314 49.4142 39.297C49.258 39.0236 48.9844 38.867 48.6719 38.7889L43.2421 37.7345C43.1639 37.7199 43.0865 37.7137 43.0094 37.7154Z" fill="black"/>
</svg>
