<svg width="34" height="34" viewBox="0 0 34 34" fill="none" xmlns="http://www.w3.org/2000/svg">
<rect width="34" height="34" rx="8" fill="white"/>
<path fill-rule="evenodd" clip-rule="evenodd" d="M9.23701 15.8879C14.0672 13.6299 17.2882 12.1413 18.8997 11.4221C23.5011 9.36867 24.4573 9.01193 25.0804 9.00012C25.2175 8.99755 25.524 9.03401 25.7225 9.20686C26.017 9.46325 26.0187 10.0198 25.986 10.3881C25.7366 13.1992 24.6577 20.021 24.1087 23.1694C23.8764 24.5017 23.4191 24.9484 22.9764 24.9921C22.0142 25.0871 21.2836 24.3098 20.3516 23.6544C18.8934 22.6287 18.0695 21.9902 16.6539 20.9894C15.0181 19.8327 16.0786 19.197 17.0108 18.158C17.2548 17.8862 21.4943 13.7487 21.5763 13.3734C21.5866 13.3264 21.5961 13.1514 21.4992 13.0591C21.4023 12.9667 21.2594 12.9982 21.1562 13.0234C21.0099 13.059 18.6803 14.7112 14.1673 17.9798C13.506 18.467 12.9071 18.7044 12.3704 18.6919C11.7788 18.6783 10.6409 18.333 9.79486 18.038C8.75722 17.6761 7.93252 17.4847 8.00436 16.8701C8.04177 16.5499 8.45263 16.2226 9.23701 15.8879Z" fill="#808080"/>
</svg>
