<svg width="63" height="20" viewBox="0 0 63 20" fill="none" xmlns="http://www.w3.org/2000/svg">
<g clip-path="url(#clip0_1_1866)">
<path d="M22.4844 19.717L25.6576 0.249023H30.7951L27.622 19.717H22.4844Z" fill="#7F7F7F"/>
<path d="M45.9116 0.752639C44.8935 0.358094 43.2983 -0.0644531 41.3063 -0.0644531C36.2289 -0.0644531 32.6524 2.57664 32.6216 6.36046C32.5934 9.15718 35.1747 10.7172 37.1247 11.6492C39.1244 12.6015 39.7969 13.2126 39.7871 14.0637C39.7747 15.3686 38.1894 15.9652 36.7122 15.9652C34.6561 15.9645 33.5633 15.6699 31.8757 14.9434L31.2137 14.6332L30.4922 18.9914C31.6925 19.535 33.9122 20.0065 36.2164 20.0303C41.6166 20.029 45.1238 17.4206 45.1631 13.3788C45.1827 11.1645 43.8135 9.47918 40.8492 8.08937C39.053 7.18991 37.953 6.58918 37.9649 5.67627C37.9649 4.86736 38.8966 4.00209 40.9075 4.00209C42.5877 3.97482 43.805 4.35318 44.7538 4.74773L45.2135 4.97227L45.9116 0.752639Z" fill="#7F7F7F"/>
<path d="M54.6708 0.249023C53.4399 0.249023 52.5505 0.639569 52.0096 1.90702L44.3955 19.7177H49.835L50.8926 16.7345H57.3915L57.9953 19.7177H62.8311L58.6004 0.249571H54.671L54.6708 0.249023ZM52.3358 12.839C52.7602 11.7179 54.3821 7.39775 54.3821 7.39775C54.3527 7.44884 54.8043 6.2712 55.0637 5.54048L55.4114 7.21811C55.4114 7.21811 56.3942 11.8654 56.6005 12.8396H52.3358V12.839Z" fill="#7F7F7F"/>
<path d="M13.1149 13.5941L12.6624 10.9252C11.7247 7.81411 8.81466 4.44793 5.55371 2.76139L10.0929 19.717H15.5336L23.6931 0.249023H18.2536L13.1149 13.5941Z" fill="#7F7F7F"/>
<path d="M-0.03125 0.249023V0.563389C6.41539 2.1743 10.891 6.24684 12.6629 10.9254L10.8 1.91048C10.489 0.678478 9.54667 0.291931 8.43157 0.249203L-0.03125 0.249023Z" fill="#7F7F7F"/>
</g>
<defs>
<clipPath id="clip0_1_1866">
<rect width="63" height="20" fill="white"/>
</clipPath>
</defs>
</svg>
